{"glyphs":{"0":{"ha":831,"x_min":34,"x_max":798,"o":"m 416 357 q 456 375 437 357 q 488 428 475 393 q 500 516 500 463 q 487 618 500 576 q 454 680 474 659 q 413 701 435 701 q 374 681 393 701 q 343 621 355 661 q 332 519 332 581 q 344 429 332 465 q 376 375 357 393 q 416 357 395 357 m 416 1 q 246 39 318 1 q 127 143 174 78 q 57 291 80 209 q 34 462 34 374 q 59 646 34 555 q 133 810 85 737 q 253 928 182 884 q 416 972 324 972 q 579 928 509 972 q 699 812 650 885 q 773 650 748 740 q 798 466 798 559 q 774 294 798 377 q 705 145 751 211 q 586 40 658 79 q 416 1 514 1 z "},"1":{"ha":645,"x_min":34,"x_max":611,"o":"m 378 0 q 292 12 332 0 q 228 48 252 24 q 203 110 203 72 q 206 138 203 123 q 256 357 240 279 q 275 559 275 458 q 261 713 275 635 l 237 696 q 195 666 214 678 q 158 654 176 654 q 101 675 130 654 q 53 727 73 696 q 34 787 34 758 q 74 842 34 826 q 250 924 172 875 q 316 962 288 949 q 378 974 343 974 q 466 956 424 974 q 534 908 507 939 q 561 838 561 877 q 559 822 561 830 q 542 588 542 719 q 553 396 542 496 q 599 188 568 283 q 611 133 610 160 q 575 61 610 91 q 487 16 540 32 q 378 0 433 0 z "},"2":{"ha":823,"x_min":0,"x_max":0,"o":""},"3":{"ha":765,"x_min":34,"x_max":731,"o":"m 344 1 q 230 16 286 1 q 131 61 175 31 q 60 139 87 92 q 34 250 34 186 l 34 289 q 71 419 34 363 q 151 474 107 474 q 206 435 184 474 q 278 363 235 385 q 359 340 320 340 q 418 356 393 340 q 443 400 443 372 q 399 457 443 432 q 274 483 356 483 q 242 497 252 483 q 233 528 233 511 q 241 565 233 548 q 261 583 250 581 q 373 617 336 586 q 410 692 410 648 q 391 745 410 728 q 344 763 372 763 q 289 744 316 763 q 250 686 262 724 q 214 644 241 657 q 153 630 186 630 q 100 639 125 630 q 58 666 74 648 q 41 708 41 683 q 96 861 43 803 q 230 946 149 920 q 393 972 311 972 q 554 936 486 972 q 660 844 623 901 q 697 724 697 787 q 677 637 697 680 q 595 541 652 584 q 578 524 578 531 q 610 503 578 517 q 703 421 674 470 q 731 316 731 372 q 705 205 731 261 q 630 103 680 149 q 508 29 580 57 q 344 1 436 1 z "},"4":{"ha":808,"x_min":0,"x_max":0,"o":""},"5":{"ha":747,"x_min":34,"x_max":713,"o":"m 353 1 q 205 25 277 1 q 87 101 134 50 q 35 231 41 152 l 34 248 l 34 262 q 70 392 34 333 q 150 450 106 450 q 205 416 180 450 q 312 349 254 349 q 384 382 355 349 q 414 454 414 416 q 400 499 414 478 q 355 534 386 521 q 273 547 324 547 q 201 541 242 547 q 159 537 179 537 q 109 551 128 537 q 90 604 90 566 l 90 659 q 88 758 88 707 q 92 848 88 812 q 160 949 103 925 q 298 972 213 972 l 367 972 q 564 960 508 972 q 623 884 623 946 q 590 785 623 835 q 524 735 557 735 q 498 749 510 735 q 464 768 486 762 q 414 774 441 774 q 319 764 369 774 q 293 748 304 760 q 282 720 282 735 q 299 692 282 705 q 357 680 315 680 q 561 635 482 677 q 676 523 640 592 q 713 375 713 454 q 688 241 713 307 q 616 120 663 174 q 503 33 569 66 q 353 1 436 1 z "},"6":{"ha":779,"x_min":34,"x_max":745,"o":"m 393 0 q 261 25 326 0 q 146 104 197 51 q 64 243 95 158 q 34 447 34 328 q 94 721 35 600 q 244 905 151 836 q 450 974 338 974 q 513 968 481 974 q 578 922 558 958 q 598 848 598 886 q 585 788 598 814 q 549 762 572 762 q 524 770 538 762 q 488 781 502 781 q 420 750 454 781 q 366 678 387 719 q 345 609 345 637 q 357 583 345 590 q 391 576 370 576 q 595 539 517 570 q 709 452 673 508 q 745 317 745 397 q 715 186 745 245 q 635 86 685 128 q 522 22 585 45 q 393 0 459 0 m 442 328 q 527 352 487 328 q 566 405 566 375 q 512 465 562 438 q 411 492 463 492 q 359 478 380 492 q 338 431 338 464 q 371 352 342 376 q 442 328 401 328 z "},"7":{"ha":733,"x_min":34,"x_max":699,"o":"m 372 1 q 271 17 319 1 q 192 68 222 34 q 161 157 161 103 q 168 210 161 182 q 220 354 190 289 q 280 475 250 418 q 363 661 332 566 q 370 705 370 686 q 296 766 370 766 q 240 760 269 766 q 192 745 212 753 q 168 732 172 736 q 140 719 156 719 q 70 772 105 719 q 34 879 34 826 q 49 930 34 908 q 98 959 64 952 q 216 970 132 966 q 396 974 300 974 q 605 954 530 974 q 699 867 699 929 q 687 819 699 846 q 602 553 625 679 q 578 296 578 427 q 581 213 578 252 q 584 132 583 174 q 553 61 584 90 q 474 16 522 31 q 372 1 425 1 z "},"8":{"ha":756,"x_min":0,"x_max":0,"o":""},"9":{"ha":779,"x_min":0,"x_max":0,"o":""},"\u0000":{"ha":0,"x_min":0,"x_max":0,"o":""},"\r":{"ha":347,"x_min":0,"x_max":0,"o":""}," ":{"ha":345,"x_min":0,"x_max":0,"o":""}," ":{"ha":345,"x_min":0,"x_max":0,"o":""},"!":{"ha":434,"x_min":23,"x_max":392,"o":"m 214 1 q 91 32 142 1 q 39 109 39 64 q 91 185 39 154 q 214 217 142 217 q 337 185 286 217 q 389 109 389 154 q 337 32 389 64 q 214 1 286 1 m 212 263 q 149 275 180 263 q 98 311 118 287 q 79 370 79 334 q 81 393 79 380 q 98 551 98 486 q 84 665 98 611 q 46 791 71 718 l 28 847 q 23 878 23 863 q 49 934 23 911 q 116 967 75 956 q 201 978 157 978 q 290 967 246 978 q 363 935 334 956 q 392 882 392 913 q 376 767 391 817 q 345 675 362 717 q 317 601 329 637 q 306 520 306 564 q 330 387 306 455 q 335 353 335 369 q 317 304 335 324 q 272 273 300 283 q 212 263 243 263 z "},"\"":{"ha":380,"x_min":34,"x_max":347,"o":"m 277 694 q 241 704 258 694 q 225 734 225 714 q 226 744 225 740 q 232 805 232 780 q 226 854 232 831 q 208 913 220 878 q 203 932 203 927 q 224 962 203 952 q 272 972 245 972 q 324 962 302 972 q 347 934 347 952 q 342 902 347 920 q 331 866 337 885 q 319 828 324 847 q 313 793 313 810 q 322 742 313 771 q 324 729 324 735 q 309 703 324 712 q 277 694 294 694 m 108 694 q 73 704 89 694 q 56 734 56 714 q 57 744 56 740 q 63 805 63 780 q 57 854 63 831 q 39 913 51 878 q 34 932 34 927 q 55 962 34 952 q 103 972 77 972 q 155 962 133 972 q 178 934 178 952 q 173 902 178 920 q 162 866 168 885 q 150 828 155 847 q 144 793 144 810 q 153 742 144 771 q 155 729 155 735 q 140 703 155 712 q 108 694 125 694 z "},"#":{"ha":1069,"x_min":34,"x_max":1035,"o":"m 639 5 q 567 17 602 5 q 512 52 533 28 q 490 109 490 75 q 503 161 490 133 q 521 200 511 181 q 538 234 531 218 q 545 262 545 250 q 533 282 545 278 q 493 287 521 287 q 459 280 468 287 q 450 256 450 273 q 455 219 450 240 q 465 127 463 186 q 440 59 465 86 q 378 19 416 32 q 300 5 340 5 q 229 17 262 5 q 173 52 195 28 q 152 109 152 75 q 164 161 152 133 l 183 203 q 203 256 203 241 q 189 267 203 267 q 125 254 170 267 q 106 252 115 252 q 52 283 71 252 q 34 354 34 315 q 45 413 34 384 q 78 462 56 443 q 134 481 100 481 q 187 475 163 480 q 228 469 208 469 q 264 498 261 469 l 265 513 q 251 534 265 534 q 214 530 237 534 q 149 520 172 520 q 84 550 105 520 q 64 619 64 580 q 76 680 64 650 q 112 729 88 709 q 171 749 136 749 q 224 743 205 747 q 252 741 238 741 q 272 746 267 741 q 277 764 277 751 q 273 796 277 779 q 266 876 268 823 q 281 932 266 910 q 321 964 296 954 q 373 974 345 974 q 451 957 412 974 q 516 908 490 939 q 542 836 542 878 q 523 768 542 806 q 513 741 513 749 q 541 729 513 729 q 604 735 589 729 q 618 763 618 742 q 614 798 618 779 q 605 876 607 825 q 620 932 605 910 q 659 964 635 954 q 712 974 684 974 q 790 957 751 974 q 855 908 829 939 q 881 836 881 877 q 876 804 881 820 q 866 774 871 787 q 859 753 859 759 q 867 747 859 747 q 883 749 873 747 q 935 755 901 753 q 991 735 969 755 q 1024 687 1013 716 q 1035 627 1035 657 q 1017 556 1035 587 q 963 525 999 525 q 943 528 954 525 q 905 539 924 533 q 869 549 886 545 q 838 553 852 553 q 809 544 821 553 q 795 508 798 534 q 794 503 795 505 l 793 488 q 798 469 793 474 q 811 463 802 463 q 837 467 823 463 q 897 476 858 474 q 956 456 932 476 q 992 406 980 436 q 1005 346 1005 376 q 996 297 1005 320 q 968 261 987 275 q 920 247 949 247 q 857 254 900 247 q 815 259 829 259 q 793 239 793 259 q 796 203 793 222 q 804 126 802 176 q 779 59 804 85 q 717 19 755 32 q 639 5 679 5 m 561 455 q 594 465 587 455 q 604 506 601 475 l 606 517 q 608 541 608 532 q 603 557 608 553 q 583 562 597 562 l 523 559 q 470 551 483 559 q 456 507 458 543 q 454 493 455 498 q 453 476 453 487 q 467 458 453 461 q 515 456 480 456 l 561 455 z "},"$":{"ha":797,"x_min":34,"x_max":763,"o":"m 413 -138 q 364 -129 389 -138 q 323 -102 340 -119 q 307 -60 307 -84 q 313 -25 307 -42 q 317 -7 317 -14 q 310 5 317 1 q 284 13 302 9 q 158 66 214 31 q 68 152 103 100 q 34 272 34 203 q 52 377 35 327 q 98 459 70 427 q 159 491 127 491 q 217 452 189 491 q 278 401 235 426 q 353 376 321 376 q 387 409 387 376 q 360 450 387 429 q 292 496 332 471 q 222 542 258 517 q 154 598 186 568 q 103 667 123 629 q 83 751 83 705 q 129 871 83 820 q 247 949 175 922 q 280 961 267 957 q 307 972 298 967 q 315 989 315 977 q 312 1008 315 996 q 307 1037 307 1022 q 323 1079 307 1061 q 363 1105 339 1096 q 412 1114 388 1114 q 466 1100 442 1114 q 489 1055 489 1086 q 478 1004 489 1036 q 473 981 473 989 q 481 968 473 972 q 511 956 489 964 q 615 895 569 937 q 688 787 661 853 q 692 766 692 777 q 671 715 692 739 q 620 675 650 690 q 562 659 590 659 q 520 674 537 659 q 502 726 503 690 q 479 780 500 762 q 435 799 458 799 q 401 786 416 799 q 387 746 387 773 q 397 701 387 724 q 428 661 407 678 q 540 588 480 622 q 622 536 582 563 q 693 478 661 510 q 744 406 725 446 q 763 312 763 366 q 728 168 763 227 q 504 14 662 54 q 480 7 488 10 q 473 -5 473 3 q 479 -28 473 -13 q 489 -79 489 -60 q 466 -123 489 -109 q 413 -138 443 -138 z "},"%":{"ha":1025,"x_min":34,"x_max":991,"o":"m 404 -1 q 311 18 357 -1 q 232 71 264 38 q 201 146 201 104 q 217 201 201 172 q 285 311 250 256 q 437 576 371 441 q 513 863 504 711 q 559 946 517 920 q 654 972 601 972 q 733 959 694 972 q 796 921 771 945 q 821 863 821 896 q 795 796 821 832 q 527 111 541 462 q 488 25 524 51 q 404 -1 452 -1 m 791 163 q 821 181 808 163 q 835 235 835 199 q 821 297 835 275 q 789 318 806 318 q 760 298 773 318 q 747 235 747 277 q 761 181 747 199 q 791 163 774 163 m 791 1 q 678 31 722 1 q 612 109 633 61 q 590 210 590 157 q 613 320 590 267 q 682 407 637 373 q 791 441 726 441 q 901 408 856 441 q 968 321 945 374 q 991 212 991 268 q 970 110 991 158 q 904 31 949 62 q 791 1 860 1 m 235 693 q 265 711 252 693 q 279 765 279 729 q 264 828 279 806 q 233 849 250 849 q 204 829 217 849 q 191 766 191 808 q 204 711 191 730 q 235 693 218 693 m 235 531 q 121 561 165 531 q 55 639 77 591 q 34 740 34 687 q 57 850 34 797 q 125 938 81 903 q 235 972 170 972 q 345 938 300 972 q 412 851 389 904 q 435 742 435 799 q 414 640 435 688 q 348 562 392 592 q 235 531 303 531 z "},"&":{"ha":890,"x_min":34,"x_max":856,"o":"m 366 290 q 389 298 378 290 q 390 303 390 300 q 364 348 390 317 q 309 405 338 378 q 265 431 279 431 q 251 410 251 430 q 270 361 251 390 q 316 311 290 333 q 366 290 343 290 m 348 1 q 176 46 245 2 q 70 163 106 90 q 34 323 34 237 q 101 554 34 444 q 132 631 132 604 q 127 652 132 642 q 115 674 123 662 q 98 705 107 686 q 73 800 73 758 q 110 897 73 859 q 202 954 146 935 q 317 972 258 972 q 460 939 401 972 q 522 838 519 905 q 503 761 522 801 q 457 683 484 721 q 402 615 429 646 q 372 567 372 583 q 376 555 372 560 q 387 545 380 551 q 485 464 454 488 q 533 437 518 437 q 546 453 546 437 q 539 489 546 470 q 524 524 532 508 q 521 536 521 529 q 538 582 521 555 q 582 630 555 609 q 634 650 608 650 q 686 617 665 650 q 718 535 707 584 q 728 438 728 486 q 727 405 728 420 q 725 376 725 389 q 734 336 725 352 q 771 320 744 320 q 797 324 783 320 q 822 328 811 328 q 848 316 840 328 q 856 286 856 304 q 836 211 856 254 q 784 136 816 168 q 718 104 753 104 q 692 110 705 104 q 627 134 644 134 q 611 128 618 134 q 591 111 603 122 q 471 27 537 57 q 348 1 413 1 m 283 656 q 301 678 291 658 q 320 726 312 699 q 328 775 328 753 q 311 803 328 803 q 273 774 284 801 q 261 717 261 747 q 267 675 261 693 q 283 656 273 657 z "},"'":{"ha":212,"x_min":34,"x_max":178,"o":"m 108 694 q 73 704 89 694 q 56 734 56 714 q 57 744 56 740 q 63 805 63 780 q 57 854 63 831 q 39 913 51 878 q 34 932 34 927 q 55 962 34 952 q 103 972 77 972 q 155 962 133 972 q 178 934 178 952 q 173 902 178 920 q 162 866 168 885 q 150 828 155 847 q 144 793 144 810 q 153 742 144 771 q 155 729 155 735 q 140 703 155 712 q 108 694 125 694 z "},"(":{"ha":660,"x_min":34,"x_max":626,"o":"m 459 -158 q 216 -45 315 -158 q 81 208 127 55 q 34 524 34 361 q 76 808 34 673 q 206 1030 118 943 q 431 1129 294 1118 l 459 1130 q 557 1113 521 1130 q 610 1069 593 1095 q 626 1018 626 1044 q 611 969 626 990 q 571 949 595 949 q 555 950 562 949 q 538 951 548 951 q 427 911 475 951 q 348 806 379 872 q 300 657 316 740 q 284 486 284 574 q 300 316 284 399 q 348 166 316 233 q 427 61 379 100 q 537 21 474 21 q 554 22 548 21 q 570 24 561 24 q 611 3 595 24 q 626 -46 626 -18 q 610 -98 626 -72 q 557 -141 593 -123 q 459 -158 521 -158 z "},")":{"ha":660,"x_min":34,"x_max":626,"o":"m 201 -158 q 103 -141 140 -158 q 50 -98 66 -123 q 34 -46 34 -72 q 49 3 34 -18 q 90 24 64 24 q 105 22 99 24 q 123 21 112 21 q 233 61 186 21 q 312 166 281 100 q 360 316 344 233 q 376 486 376 399 q 360 657 376 574 q 312 806 344 740 q 233 911 281 872 q 122 951 185 951 q 105 950 112 951 q 89 949 98 949 q 49 969 64 949 q 34 1018 34 990 q 50 1069 34 1044 q 103 1113 66 1095 q 201 1130 140 1130 l 229 1129 q 454 1030 366 1118 q 584 808 542 943 q 626 524 626 673 q 579 208 626 361 q 444 -45 532 55 q 201 -158 345 -158 z "},"*":{"ha":466,"x_min":34,"x_max":432,"o":"m 139 585 q 87 610 115 585 q 59 658 59 636 q 67 674 59 668 q 81 684 75 680 q 129 720 110 704 q 148 749 148 736 q 55 792 148 773 q 34 819 34 797 q 54 870 34 843 q 93 897 73 897 q 107 892 100 897 l 129 873 q 166 843 150 855 q 191 831 182 831 q 199 845 199 831 q 178 931 199 867 q 176 940 176 936 q 194 964 176 956 q 233 971 212 971 q 273 964 254 971 q 291 941 291 956 l 290 936 q 273 845 273 870 q 281 829 273 829 q 309 845 290 829 q 359 892 328 861 q 374 898 366 898 q 412 870 393 898 q 432 819 432 842 q 412 792 432 797 q 308 749 308 772 q 323 727 308 739 q 364 699 339 715 l 399 675 q 407 659 407 668 q 380 612 407 637 q 328 587 353 587 q 304 602 313 587 q 265 670 281 648 q 234 693 249 693 q 202 669 219 693 q 163 599 186 646 q 139 585 154 585 z "},"+":{"ha":685,"x_min":34,"x_max":651,"o":"m 348 178 q 277 188 310 178 q 243 218 245 199 q 252 309 245 273 q 256 347 256 332 q 244 388 256 377 q 203 399 233 399 q 163 395 186 399 q 75 387 129 389 q 45 425 56 389 q 34 500 34 461 q 43 559 34 534 q 72 585 52 585 q 163 578 113 585 q 203 574 186 574 q 244 585 233 574 q 256 626 256 595 q 251 667 256 644 q 243 753 245 701 q 281 783 245 772 q 357 794 317 794 q 416 785 390 794 q 441 756 441 777 q 435 673 441 720 q 430 628 430 648 q 442 585 430 597 q 486 572 454 572 q 526 577 503 572 q 612 585 560 584 q 641 555 631 584 q 651 492 651 526 q 641 421 651 454 q 610 387 630 389 q 522 395 557 389 q 484 399 499 399 q 440 388 452 399 q 429 343 429 376 q 433 304 429 327 q 441 216 440 269 q 412 187 440 196 q 348 178 383 178 z "},",":{"ha":323,"x_min":34,"x_max":290,"o":"m 161 -193 q 111 -179 135 -193 q 87 -147 87 -165 q 111 -117 87 -132 q 156 -68 134 -102 q 178 -14 178 -34 q 165 1 178 1 q 154 0 159 1 q 142 -1 149 -1 q 65 32 96 -1 q 34 102 34 64 q 71 174 34 144 q 159 203 108 203 q 237 185 208 203 q 277 135 265 166 q 290 64 290 103 q 264 -67 290 0 q 207 -174 238 -135 q 161 -193 191 -193 z "},"-":{"ha":685,"x_min":34,"x_max":651,"o":"m 610 387 q 492 393 555 389 q 342 401 416 401 q 189 393 258 401 q 75 387 130 388 q 45 424 56 387 q 34 500 34 461 q 43 559 34 533 q 72 585 52 585 q 193 580 127 585 q 362 573 271 573 q 509 580 437 573 q 612 585 566 585 q 641 556 631 585 q 651 492 651 526 q 641 420 651 454 q 610 387 630 387 z "},"­":{"ha":685,"x_min":34,"x_max":651,"o":"m 610 387 q 492 393 555 389 q 342 401 416 401 q 189 393 258 401 q 75 387 130 388 q 45 424 56 387 q 34 500 34 461 q 43 559 34 533 q 72 585 52 585 q 193 580 127 585 q 362 573 271 573 q 509 580 437 573 q 612 585 566 585 q 641 556 631 585 q 651 492 651 526 q 641 420 651 454 q 610 387 630 387 z "},".":{"ha":319,"x_min":34,"x_max":286,"o":"m 160 1 q 71 31 108 1 q 34 102 34 60 q 71 174 34 144 q 160 203 108 203 q 249 174 212 203 q 286 102 286 144 q 249 31 286 60 q 160 1 212 1 z "},"/":{"ha":618,"x_min":34,"x_max":584,"o":"m 231 -10 q 140 7 185 -10 q 64 55 94 24 q 34 127 34 86 q 45 174 34 149 q 109 302 77 239 q 191 468 153 385 q 254 636 229 551 q 278 811 278 722 l 277 873 q 300 937 277 911 q 357 974 322 962 q 429 985 391 985 q 503 974 468 985 q 561 939 538 962 q 584 883 584 916 q 564 822 584 856 q 459 619 505 724 q 388 403 414 514 q 361 176 361 292 q 363 136 361 151 q 364 102 364 121 q 346 38 364 62 q 296 1 327 13 q 231 -10 266 -10 z "},":":{"ha":387,"x_min":68,"x_max":319,"o":"m 193 1 q 104 31 141 1 q 68 102 68 60 q 104 174 68 144 q 193 203 141 203 q 282 174 245 203 q 319 102 319 144 q 282 31 319 60 q 193 1 245 1 m 193 562 q 104 591 141 562 q 68 663 68 621 q 104 734 68 705 q 193 764 141 764 q 282 734 245 764 q 319 663 319 705 q 282 591 319 621 q 193 562 245 562 z "},";":{"ha":391,"x_min":68,"x_max":323,"o":"m 195 -193 q 145 -179 168 -193 q 121 -147 121 -165 q 144 -117 121 -132 q 189 -68 168 -102 q 211 -13 211 -34 q 198 1 211 0 q 190 0 193 1 q 183 0 186 0 q 176 -1 180 -1 q 99 32 130 -1 q 68 102 68 64 q 105 174 68 144 q 193 203 142 203 q 271 184 242 203 q 311 134 299 165 q 323 64 323 102 q 298 -67 323 0 q 241 -174 273 -135 q 195 -193 224 -193 m 193 562 q 104 591 141 562 q 68 663 68 621 q 104 734 68 705 q 193 764 141 764 q 282 734 245 764 q 319 663 319 705 q 282 591 319 621 q 193 562 245 562 z "},"<":{"ha":688,"x_min":34,"x_max":654,"o":"m 559 141 q 545 146 552 141 q 310 288 457 208 q 53 414 162 368 q 39 439 43 418 q 34 486 34 460 q 39 532 34 511 q 53 558 43 553 q 310 684 162 604 q 545 826 458 764 q 560 831 552 831 q 602 805 581 831 q 639 744 624 779 q 654 683 654 709 q 638 651 654 659 q 390 532 528 607 q 348 506 362 517 q 334 486 334 496 q 348 466 334 477 q 390 441 362 456 q 638 321 528 366 q 654 290 654 313 q 639 228 654 263 q 602 167 624 193 q 559 141 580 141 z "},"=":{"ha":644,"x_min":34,"x_max":610,"o":"m 571 273 q 463 279 519 273 q 323 286 398 286 q 182 279 251 286 q 77 273 125 274 q 45 304 57 273 q 34 380 34 336 q 42 434 34 410 q 69 458 50 458 q 183 453 121 458 q 342 446 257 446 q 480 453 416 446 q 574 458 532 457 q 602 430 593 458 q 610 370 610 403 q 601 304 610 335 q 571 273 591 273 m 571 514 q 463 519 519 514 q 323 526 398 526 q 182 519 251 526 q 77 514 125 515 q 45 546 57 514 q 34 621 34 577 q 42 675 34 651 q 69 699 50 699 q 183 694 121 699 q 342 688 257 688 q 480 694 416 688 q 574 699 532 699 q 602 672 593 699 q 610 612 610 644 q 601 545 610 576 q 571 514 591 514 z "},">":{"ha":688,"x_min":34,"x_max":654,"o":"m 128 141 q 86 167 108 141 q 49 228 64 193 q 34 290 34 263 q 50 321 34 313 q 298 441 160 366 q 339 466 326 456 q 353 486 353 477 q 339 506 353 496 q 298 532 326 517 q 50 651 160 607 q 34 683 34 659 q 49 744 34 709 q 86 805 64 779 q 128 831 108 831 q 142 826 136 831 q 378 684 231 764 q 635 558 526 604 q 649 532 644 553 q 654 486 654 511 q 649 439 654 460 q 635 414 644 418 q 378 288 526 368 q 142 146 231 208 q 128 141 136 141 z "},"?":{"ha":741,"x_min":34,"x_max":707,"o":"m 386 1 q 302 13 342 1 q 237 48 262 24 q 212 107 212 72 q 237 166 212 142 q 302 202 262 190 q 386 214 342 214 q 469 202 429 214 q 535 166 509 190 q 560 107 560 142 q 535 48 560 72 q 469 13 509 24 q 386 1 429 1 m 376 268 q 308 283 338 268 q 272 330 277 298 l 271 349 q 282 410 271 382 q 310 462 293 437 q 345 509 326 486 q 392 575 372 541 q 412 648 412 608 q 400 702 412 681 q 370 733 389 723 q 332 743 352 743 q 282 723 304 743 q 256 665 259 703 q 233 617 254 632 q 184 602 212 602 q 117 617 151 602 q 58 659 82 633 q 34 718 34 686 q 86 861 37 805 q 212 945 136 918 q 366 972 288 972 q 490 956 429 972 q 600 909 551 940 q 677 832 648 878 q 707 728 707 787 q 687 649 707 691 q 638 565 667 607 q 579 482 610 522 q 519 397 544 436 q 494 333 494 358 q 476 298 494 313 q 432 276 459 283 q 376 268 406 268 z "},"@":{"ha":949,"x_min":34,"x_max":915,"o":"m 480 3 q 248 65 348 3 q 91 237 147 127 q 34 492 35 347 q 73 696 34 608 q 176 843 111 784 q 320 931 240 901 q 486 961 401 961 q 644 932 568 961 q 782 846 721 904 q 879 701 843 788 q 915 497 915 614 q 885 350 915 418 q 805 239 856 281 q 688 197 753 197 q 562 238 629 197 q 550 230 556 235 q 513 209 538 219 q 437 197 488 199 q 334 225 377 197 q 267 295 290 252 q 243 382 243 337 q 264 463 243 425 q 332 523 286 500 q 451 548 378 546 q 477 547 469 548 q 493 545 484 545 q 517 555 509 545 q 525 579 525 566 q 508 623 525 601 q 463 646 490 646 q 435 633 448 646 q 415 598 422 621 q 394 565 409 575 q 362 554 380 554 q 304 576 333 554 q 275 627 275 598 q 307 726 279 686 q 380 786 336 766 q 473 806 424 806 q 575 780 526 806 q 657 701 625 753 q 690 569 690 648 q 689 537 690 548 q 688 498 688 526 q 689 441 688 471 q 690 378 690 411 q 702 354 690 366 q 728 343 714 343 q 766 385 757 343 q 775 499 775 430 q 751 664 775 595 q 685 777 726 733 q 592 842 644 821 q 486 863 541 863 q 372 841 427 863 q 272 775 317 819 q 200 663 227 731 q 174 503 174 595 l 174 473 q 223 268 178 352 q 342 140 269 184 q 497 96 415 96 q 703 172 607 96 q 721 178 712 178 q 751 156 739 178 q 764 110 764 134 q 742 67 764 78 q 480 3 608 3 m 400 383 q 472 401 436 383 q 508 437 508 420 q 494 454 508 448 q 450 461 481 461 q 381 447 404 460 q 358 412 358 433 q 369 392 358 400 q 400 383 379 383 z "},"A":{"ha":854,"x_min":4,"x_max":840,"o":"m 676 1 q 570 17 623 1 q 484 64 518 33 q 449 137 449 94 q 452 163 449 149 q 464 205 458 185 q 485 305 479 258 l 486 317 q 467 345 486 336 q 426 355 448 355 q 381 344 402 355 q 359 313 359 333 q 382 202 363 258 l 393 163 q 396 138 396 150 q 361 64 396 94 q 275 17 327 33 q 169 1 222 1 q 88 12 125 1 q 27 46 50 23 q 4 106 4 70 q 9 138 4 121 q 104 560 75 395 q 150 762 127 682 q 207 889 172 843 q 299 951 241 930 q 420 972 357 972 q 550 949 489 972 q 644 880 611 926 q 696 755 676 833 q 739 562 717 677 q 836 138 769 396 q 840 106 840 120 q 817 46 840 70 q 757 12 794 23 q 676 1 720 1 m 422 536 q 469 545 448 536 q 491 576 491 555 q 490 585 491 580 q 459 670 478 631 q 422 708 440 708 q 382 667 405 708 q 353 577 359 625 l 352 569 q 374 544 352 553 q 422 536 397 536 z "},"B":{"ha":817,"x_min":39,"x_max":794,"o":"m 399 637 q 490 660 463 640 q 518 701 518 679 q 489 747 518 724 q 408 772 459 770 q 357 746 376 772 q 338 692 338 720 q 350 654 338 671 q 389 637 362 637 l 399 637 m 433 342 q 472 348 451 342 q 548 384 524 363 q 573 425 573 405 q 545 465 573 447 q 464 482 517 482 q 442 482 448 482 q 427 481 437 481 q 372 457 390 478 q 354 412 354 437 q 374 364 354 386 q 433 342 395 342 m 204 0 q 123 11 161 0 q 62 46 85 22 q 39 106 39 69 q 44 138 39 120 q 94 486 94 317 q 44 835 94 655 q 39 871 39 854 q 59 929 39 907 q 111 963 79 952 q 180 974 143 974 q 196 972 187 974 q 212 971 204 971 q 222 973 218 971 q 234 975 227 975 q 340 985 299 985 q 502 962 420 985 q 642 883 583 938 q 717 733 701 827 q 720 697 720 715 q 669 550 720 616 q 764 443 734 502 q 794 323 794 385 q 747 168 794 242 q 619 47 701 94 q 433 1 538 1 q 372 7 406 1 q 302 13 336 13 q 252 6 277 12 q 204 0 227 0 z "},"C":{"ha":759,"x_min":23,"x_max":732,"o":"m 385 1 q 230 44 297 1 q 116 160 162 87 q 46 322 70 233 q 23 506 23 412 q 45 678 23 595 q 111 827 66 762 q 224 932 156 893 q 385 972 292 972 q 517 948 452 972 q 628 872 581 925 q 691 732 675 819 q 692 721 692 727 q 669 665 692 692 q 614 621 647 638 q 549 604 581 604 q 502 620 522 604 q 475 672 481 636 q 453 720 469 703 q 417 737 437 737 q 343 692 366 734 q 320 588 320 650 q 333 494 320 541 q 366 417 345 448 q 413 387 387 387 q 472 415 443 389 q 524 473 502 441 q 591 514 553 514 q 659 481 627 514 q 712 398 691 449 q 732 294 732 348 q 721 224 732 258 q 590 59 682 117 q 385 1 498 1 z "},"D":{"ha":759,"x_min":39,"x_max":728,"o":"m 390 441 q 452 494 430 445 q 475 600 475 543 q 466 665 475 634 q 439 714 458 695 q 393 733 421 733 q 354 695 366 732 q 341 597 341 659 q 347 524 341 559 q 363 465 353 488 q 390 441 374 441 m 305 1 q 288 4 296 1 q 271 8 280 8 q 241 5 258 8 q 201 1 222 1 q 121 12 157 1 q 61 46 84 23 q 39 106 39 69 q 43 138 39 121 q 93 486 93 317 q 43 835 93 655 q 39 870 39 854 q 58 928 39 905 q 109 962 77 951 q 176 973 140 973 q 250 962 213 973 q 256 964 252 962 q 263 966 259 966 q 345 973 307 973 q 515 936 443 973 q 634 834 587 898 q 705 689 682 770 q 728 522 728 608 q 701 333 728 426 q 620 166 673 241 q 487 46 566 91 q 305 1 408 1 z "},"E":{"ha":718,"x_min":38,"x_max":688,"o":"m 426 1 q 356 4 390 1 q 293 8 321 8 q 245 4 266 7 q 202 1 224 1 q 122 12 159 1 q 62 46 85 23 q 39 106 39 70 q 43 138 39 120 q 93 486 93 317 q 43 835 93 655 q 38 871 38 854 q 58 929 38 906 q 110 963 77 951 q 178 974 142 974 q 218 970 201 974 q 258 965 235 966 q 323 970 288 965 q 402 975 362 975 q 648 929 618 975 q 663 878 663 907 q 627 771 663 825 q 557 718 592 718 q 530 730 542 718 q 496 753 518 743 q 447 762 473 762 l 424 762 q 359 731 385 758 q 334 678 334 704 q 348 649 334 661 q 396 636 363 636 q 438 641 416 636 q 486 645 461 645 q 519 608 507 645 q 531 528 531 570 q 520 462 531 492 q 484 433 509 433 q 453 434 471 433 q 399 435 429 435 q 369 424 378 435 q 360 397 360 412 q 377 350 360 374 q 421 326 393 326 q 566 373 524 330 q 585 382 574 382 q 631 343 608 382 q 672 247 655 304 q 688 136 688 189 q 673 58 688 91 q 622 16 658 25 q 426 1 534 1 z "},"F":{"ha":661,"x_min":39,"x_max":656,"o":"m 203 1 q 123 12 161 1 q 62 46 85 23 q 39 106 39 70 q 44 138 39 120 q 94 486 94 317 q 44 835 94 655 q 39 871 39 854 q 58 929 39 907 q 110 963 78 952 q 179 974 142 974 q 217 970 201 974 q 256 966 233 967 q 320 970 286 966 q 396 975 357 975 q 641 929 611 975 q 656 878 656 907 q 621 771 656 825 q 550 718 585 718 q 522 732 535 718 q 485 752 509 746 q 431 758 460 758 l 406 758 q 356 730 376 754 q 336 680 336 706 q 350 648 336 661 q 394 634 363 634 q 500 645 404 634 q 532 607 520 645 q 545 528 545 570 q 533 462 545 492 q 498 433 522 433 q 392 424 422 433 q 363 387 363 414 q 369 349 363 371 q 387 296 376 327 q 427 163 406 244 q 431 137 431 149 q 396 64 431 94 q 309 17 361 33 q 203 1 257 1 z "},"G":{"ha":766,"x_min":25,"x_max":731,"o":"m 398 1 q 263 28 330 1 q 143 117 197 56 q 57 273 90 177 q 25 505 25 368 q 47 677 25 593 q 113 827 68 761 q 227 932 158 893 q 388 972 295 972 q 519 948 455 972 q 630 872 583 925 q 694 732 676 819 q 694 721 694 727 q 672 665 694 692 q 617 621 650 638 q 552 604 584 604 q 504 620 525 604 q 477 672 484 636 q 456 720 472 703 q 421 737 440 737 q 346 688 368 735 q 323 566 323 641 q 340 432 323 484 q 385 355 358 380 q 440 331 412 331 q 491 351 470 331 q 513 395 513 370 q 493 410 513 410 q 453 404 476 410 q 412 397 429 397 q 377 428 388 397 q 366 496 366 458 q 377 573 366 536 q 406 610 388 610 q 481 597 445 608 q 524 588 502 592 q 574 583 547 583 q 650 591 612 583 l 659 591 q 699 564 686 591 q 711 500 711 536 q 694 425 711 460 q 731 283 731 359 q 683 138 731 202 q 559 38 635 75 q 398 1 484 1 z "},"H":{"ha":860,"x_min":25,"x_max":837,"o":"m 659 1 q 566 14 612 1 q 491 53 521 27 q 461 118 461 79 q 479 259 464 193 q 496 400 494 324 q 472 435 496 423 q 421 446 448 446 q 374 437 396 446 q 352 410 352 427 l 352 407 q 382 228 363 318 q 399 132 399 145 q 369 60 399 90 q 290 16 338 31 q 193 1 243 1 q 111 13 149 1 q 49 48 73 24 q 25 110 25 73 q 31 146 25 126 q 95 547 95 349 q 62 842 95 689 q 60 867 60 856 q 81 926 60 903 q 137 961 102 949 q 209 972 171 972 q 291 959 251 972 q 356 920 330 946 q 381 857 381 895 q 376 826 381 842 q 354 742 363 784 q 344 656 344 699 q 361 629 344 637 q 402 621 379 621 q 461 633 431 621 q 491 667 491 646 q 481 735 490 703 q 454 817 474 760 q 448 852 448 836 q 475 917 448 890 q 543 957 502 943 q 627 971 585 971 q 696 960 664 971 q 748 926 728 949 q 768 867 768 903 q 767 848 768 859 q 746 606 746 722 q 829 154 746 380 q 837 113 837 133 q 811 51 837 76 q 745 13 785 26 q 659 1 704 1 z "},"I":{"ha":450,"x_min":34,"x_max":408,"o":"m 201 1 q 120 13 158 1 q 58 48 82 24 q 34 109 34 73 q 40 146 34 126 q 90 482 90 317 q 47 847 90 640 q 43 875 43 862 q 69 936 43 915 q 134 964 95 956 q 217 972 174 972 q 300 964 260 972 q 365 939 340 957 q 390 887 390 920 q 385 858 390 873 q 349 592 349 732 q 366 374 349 483 q 406 153 383 265 q 408 132 408 142 q 377 60 408 89 q 299 16 347 31 q 201 1 252 1 z "},"J":{"ha":690,"x_min":-3,"x_max":641,"o":"m 344 1 q 139 59 231 1 q 8 224 47 117 q -3 294 -3 258 q 17 398 -3 348 q 71 481 38 449 q 138 514 103 514 q 205 473 175 514 q 305 380 270 380 q 340 422 330 380 q 349 532 349 465 q 305 793 349 663 q 299 830 299 812 q 330 905 299 873 q 408 955 361 937 q 500 972 454 972 q 565 961 536 972 q 613 928 595 951 q 631 869 631 905 q 628 842 631 857 q 601 567 601 694 q 628 335 601 435 q 641 242 641 286 q 563 66 641 132 q 344 1 484 1 z "},"K":{"ha":880,"x_min":35,"x_max":864,"o":"m 625 1 q 551 57 591 3 q 471 199 510 111 q 406 387 433 286 q 383 419 395 419 q 372 410 376 419 q 367 385 367 401 q 368 367 367 376 q 407 153 385 261 q 409 132 409 142 q 378 60 409 89 q 300 16 347 31 q 202 1 252 1 q 121 13 159 1 q 59 48 83 24 q 35 109 35 73 q 41 146 35 126 q 91 481 91 317 q 47 847 91 638 q 43 875 43 862 q 69 936 43 915 q 134 964 95 956 q 217 972 174 972 q 301 964 261 972 q 366 939 340 957 q 391 886 391 920 q 384 849 391 870 q 370 806 378 828 q 355 749 355 768 q 361 740 355 741 q 401 773 370 740 q 538 928 490 867 q 615 967 568 967 q 694 943 655 967 q 760 885 734 919 q 786 822 786 851 q 752 775 786 789 q 691 741 727 764 q 618 688 654 718 q 534 558 534 615 q 551 515 534 535 q 645 445 589 473 q 770 416 701 416 q 798 418 787 416 l 814 419 q 852 394 840 419 q 864 329 864 368 q 848 226 864 283 q 801 119 832 170 q 726 34 770 68 q 625 1 681 1 z "},"L":{"ha":749,"x_min":42,"x_max":734,"o":"m 363 1 l 338 1 q 120 66 198 1 q 42 242 42 132 q 55 335 42 286 q 82 567 82 435 q 55 842 82 694 q 52 869 52 857 q 70 928 52 905 q 118 961 88 951 q 182 972 147 972 q 275 955 229 972 q 353 905 321 937 q 384 830 384 873 q 377 793 384 812 q 334 532 334 662 q 358 426 334 466 q 424 385 381 385 q 485 408 452 385 q 554 480 518 430 q 601 511 577 511 q 665 463 635 511 q 715 345 696 415 q 734 206 734 274 q 722 116 734 157 q 644 36 701 61 q 512 6 587 12 q 363 1 436 1 z "},"M":{"ha":1030,"x_min":24,"x_max":1006,"o":"m 843 1 q 743 16 792 1 q 663 62 694 32 q 631 136 631 92 q 632 153 631 144 q 651 374 651 283 q 641 499 651 455 q 618 543 630 543 q 598 506 607 543 q 590 389 590 469 q 591 347 590 368 l 591 319 q 564 287 591 298 q 506 276 537 276 q 454 286 477 276 q 431 319 431 296 l 431 336 q 420 495 431 444 q 397 545 410 545 q 378 509 387 545 q 369 406 369 473 q 396 153 369 295 q 398 132 398 142 q 367 60 398 90 q 288 16 336 31 q 191 1 241 1 q 110 13 148 1 q 47 48 71 24 q 24 109 24 72 q 30 146 24 126 q 95 570 95 357 q 63 874 95 720 q 60 899 60 888 q 81 947 60 932 q 134 967 102 963 q 201 972 166 972 q 307 960 272 972 q 358 922 341 947 q 391 859 376 897 q 425 787 404 828 q 467 717 449 741 q 500 694 484 694 q 533 716 515 694 q 585 804 551 739 q 633 888 608 850 q 695 949 659 926 q 791 972 732 972 q 865 960 830 972 q 922 927 899 949 q 944 876 944 906 l 943 863 q 920 605 920 732 q 999 146 920 375 q 1006 106 1006 124 q 983 47 1006 70 q 922 12 960 24 q 843 1 885 1 z "},"N":{"ha":922,"x_min":24,"x_max":884,"o":"m 713 1 q 631 12 671 1 q 563 53 591 24 q 527 132 535 81 q 454 401 503 280 q 376 522 406 522 q 357 454 358 522 q 397 153 357 369 q 399 132 399 142 q 368 60 399 90 q 289 16 336 31 q 191 1 241 1 q 110 13 148 1 q 48 48 72 24 q 24 109 24 73 q 30 146 24 126 q 96 550 96 351 q 64 842 96 691 q 61 865 61 854 q 84 924 61 901 q 144 960 108 948 q 220 972 180 972 q 301 956 262 972 q 361 905 340 939 q 454 738 409 825 q 522 613 492 665 q 566 562 551 562 q 575 592 574 562 q 536 842 575 650 q 533 867 533 855 q 554 926 533 903 q 610 961 576 949 q 682 972 644 972 q 764 959 724 972 q 828 920 803 946 q 854 857 854 895 q 849 826 854 842 q 816 591 816 713 q 831 408 816 499 q 865 220 846 316 l 882 139 q 884 114 884 125 q 860 48 884 73 q 796 12 835 24 q 713 1 757 1 z "},"O":{"ha":816,"x_min":19,"x_max":782,"o":"m 399 404 q 446 431 427 404 q 475 500 465 458 q 485 587 485 543 q 476 667 485 629 q 449 727 467 704 q 402 751 431 751 q 354 726 373 751 q 326 663 335 702 q 317 581 317 624 q 337 461 317 515 q 397 404 358 407 l 399 404 m 401 1 q 238 45 309 1 q 118 163 167 90 q 44 329 69 237 q 19 517 19 421 q 42 689 19 606 q 113 839 65 772 q 233 944 160 905 q 406 983 306 983 q 573 944 503 983 q 690 838 644 905 q 759 687 736 771 q 782 513 782 603 q 757 327 782 418 q 684 162 732 236 q 565 45 636 89 q 401 1 494 1 z "},"P":{"ha":798,"x_min":37,"x_max":778,"o":"m 403 623 q 491 637 456 624 q 543 670 526 650 q 560 709 560 690 q 532 758 560 736 q 451 780 503 780 l 428 780 q 373 765 396 780 q 337 727 349 749 q 324 684 324 705 q 342 641 324 660 q 399 623 360 623 l 403 623 m 195 0 q 118 11 154 0 q 60 46 82 22 q 37 106 37 69 q 42 138 37 121 q 91 493 91 321 q 45 836 91 659 q 41 865 41 851 q 64 924 41 901 q 122 960 87 948 q 197 972 158 972 q 298 950 251 972 q 444 966 376 966 q 592 942 529 966 q 696 877 655 918 q 758 784 738 836 q 778 675 778 731 q 740 520 778 596 q 630 390 703 444 q 450 319 557 336 q 389 309 401 313 q 373 289 373 304 q 384 245 373 275 q 408 161 394 216 q 410 136 410 149 q 378 62 410 93 q 296 16 345 32 q 195 0 246 0 z "},"Q":{"ha":825,"x_min":22,"x_max":781,"o":"m 398 404 q 439 425 419 404 q 472 487 459 446 q 484 590 484 529 q 472 679 484 644 q 441 733 460 715 q 401 751 422 751 q 360 733 380 751 q 328 679 340 715 q 316 588 316 642 q 328 485 316 526 q 358 424 340 444 q 398 404 377 404 m 640 -151 q 595 -128 608 -150 q 575 -77 583 -106 q 561 -35 569 -55 q 536 -3 552 -16 q 492 10 521 10 q 454 6 475 10 q 402 1 429 1 q 263 35 331 1 q 141 138 195 70 q 54 309 87 207 q 22 549 22 412 q 54 739 22 657 q 139 874 85 820 q 260 956 193 928 q 398 983 328 983 q 537 956 469 983 q 660 872 606 928 q 746 734 714 817 q 779 541 779 652 q 680 161 779 312 q 663 134 670 146 q 656 111 656 121 q 699 91 656 91 q 726 93 712 91 q 751 95 737 94 q 774 80 766 95 q 781 42 781 65 q 772 -18 781 15 q 744 -82 762 -52 q 699 -132 726 -112 q 640 -151 673 -151 z "},"R":{"ha":880,"x_min":40,"x_max":864,"o":"m 395 668 q 488 681 452 668 q 542 712 524 694 q 559 748 559 731 q 533 788 559 770 q 459 806 507 806 l 433 806 q 377 791 401 806 q 339 756 353 777 q 326 716 326 735 q 341 683 326 697 q 395 668 357 668 m 199 0 q 121 11 158 0 q 62 46 85 22 q 40 105 40 69 q 44 136 40 119 q 91 484 91 315 q 44 833 91 653 q 40 863 40 849 q 63 923 40 899 q 121 959 85 947 q 197 971 157 971 q 298 949 251 971 q 463 967 393 967 q 639 933 570 967 q 743 844 709 899 q 777 725 777 789 q 737 587 777 655 q 621 469 697 518 q 584 427 584 445 q 607 398 584 410 q 664 378 631 386 q 732 367 698 370 q 789 363 767 363 q 805 363 800 363 q 814 364 810 364 q 852 341 840 364 q 864 285 864 319 q 848 196 864 245 q 802 103 832 147 q 728 30 772 59 q 629 1 684 1 q 550 57 594 3 q 466 195 507 111 q 400 370 425 279 q 385 399 395 389 q 366 410 375 410 q 352 386 352 410 q 355 364 352 378 q 410 161 376 267 q 414 130 414 144 q 382 60 414 90 q 300 16 349 31 q 199 0 250 0 z "},"S":{"ha":789,"x_min":24,"x_max":752,"o":"m 375 1 q 254 18 316 1 q 140 71 192 36 q 56 156 88 105 q 24 273 24 207 q 42 377 24 328 q 88 459 60 427 q 148 491 116 491 q 206 452 178 491 q 268 401 224 426 q 343 376 311 376 q 377 409 377 376 q 350 450 377 429 q 281 496 322 471 q 212 542 248 517 q 144 598 176 568 q 93 667 113 629 q 73 751 73 705 q 104 847 73 804 q 186 922 135 890 q 301 971 237 954 q 432 989 366 989 q 557 970 497 989 q 665 911 618 951 q 738 808 712 871 q 741 791 741 799 q 711 732 741 761 q 638 683 680 703 q 558 664 595 664 q 511 679 530 664 q 491 726 492 693 q 468 780 489 762 q 424 799 448 799 q 390 786 405 799 q 376 745 376 772 q 387 700 376 724 q 417 661 397 677 q 530 587 470 622 q 612 536 572 562 q 683 478 651 509 q 733 406 714 446 q 752 312 752 365 q 718 168 752 227 q 627 72 683 109 q 505 18 572 35 q 375 1 439 1 z "},"T":{"ha":795,"x_min":-5,"x_max":775,"o":"m 414 1 q 322 16 366 1 q 250 59 278 30 q 222 133 222 88 q 225 159 222 146 q 269 537 269 382 q 264 640 269 590 q 199 730 255 730 q 83 677 154 730 q 61 669 71 669 q 27 692 41 669 q 4 751 12 715 q -5 825 -5 786 q 15 923 -5 879 q 81 970 35 967 q 385 971 233 971 q 690 970 538 971 q 755 923 735 967 q 775 825 775 879 q 767 751 775 786 q 744 692 758 715 q 709 669 729 669 q 688 677 699 669 q 576 730 614 730 q 537 704 548 730 q 527 623 527 679 q 548 398 527 513 q 604 163 570 283 q 608 129 608 145 q 580 58 608 87 q 507 16 551 30 q 414 1 463 1 z "},"U":{"ha":857,"x_min":46,"x_max":828,"o":"m 662 1 q 519 35 587 1 q 486 58 497 49 q 474 66 479 63 q 463 69 469 69 q 423 48 450 69 q 286 1 357 1 q 152 30 205 1 q 73 109 99 58 q 47 223 47 159 q 54 298 47 259 q 81 551 81 426 q 49 842 81 693 q 46 867 46 855 q 67 926 46 903 q 123 961 89 949 q 195 972 157 972 q 277 959 237 972 q 341 920 316 946 q 367 857 367 895 q 362 826 367 842 q 325 569 325 700 q 333 436 325 502 q 366 324 342 359 q 415 288 389 288 q 475 337 448 288 q 506 473 503 385 q 507 551 507 512 q 500 686 507 618 q 471 826 493 753 q 467 856 467 842 q 494 920 467 894 q 562 959 521 945 q 647 972 604 972 q 717 962 684 972 q 770 931 750 951 q 791 878 791 910 q 785 842 791 861 q 741 576 741 706 q 764 364 741 470 q 822 146 786 258 q 828 109 828 125 q 805 48 828 72 q 743 13 781 24 q 662 1 705 1 z "},"V":{"ha":889,"x_min":-6,"x_max":879,"o":"m 440 1 l 435 1 q 274 31 336 1 q 209 130 211 61 q 165 434 209 307 q 22 736 121 561 q -6 831 -6 789 q 56 935 -6 898 q 217 972 117 972 q 293 960 258 972 q 350 924 328 947 q 371 867 371 901 q 370 851 371 859 q 356 690 356 760 q 370 559 356 611 q 405 480 383 507 q 450 454 426 454 q 493 479 472 454 q 527 553 513 504 q 540 677 540 603 q 522 858 540 754 q 520 873 520 866 q 545 929 520 907 q 609 962 570 951 q 694 972 649 972 q 782 960 740 972 q 852 922 825 947 q 879 857 879 896 q 859 789 879 827 q 725 464 760 610 q 690 137 690 317 q 655 59 689 89 q 564 15 621 28 q 440 1 507 1 z "},"W":{"ha":1236,"x_min":-3,"x_max":1221,"o":"m 857 1 q 767 17 810 1 q 697 66 724 33 q 669 150 669 99 l 669 153 q 654 306 669 256 q 618 356 638 356 q 581 302 598 356 q 564 147 564 249 l 564 144 q 535 62 564 94 q 461 15 506 30 q 368 1 417 1 q 239 33 296 1 q 179 130 183 65 q 150 433 178 306 q 25 736 121 561 q -3 833 -3 791 q 56 936 -3 899 q 209 972 114 972 q 286 959 248 972 q 349 922 324 946 q 373 863 373 898 l 372 850 q 357 671 357 746 q 377 526 357 573 q 420 478 396 478 q 463 524 444 478 q 482 656 482 570 q 458 858 482 739 q 456 877 456 868 q 478 930 456 909 q 535 962 500 951 q 609 972 570 972 q 683 962 648 972 q 740 930 718 951 q 762 877 762 909 q 760 858 762 868 q 736 657 736 739 q 754 531 736 574 q 795 488 772 488 q 838 536 819 488 q 858 683 858 585 q 844 857 858 755 l 843 869 q 868 926 843 903 q 932 960 893 949 q 1010 972 970 972 q 1162 936 1104 972 q 1221 833 1221 899 q 1193 736 1221 791 q 1069 433 1098 561 q 1039 130 1040 306 q 980 33 1035 65 q 857 1 925 1 z "},"X":{"ha":906,"x_min":16,"x_max":885,"o":"m 656 1 q 589 18 620 1 q 541 74 559 35 l 518 127 q 481 207 495 180 q 456 234 468 234 q 431 204 445 234 q 395 114 418 174 l 382 82 q 333 21 366 40 q 262 3 301 3 q 157 30 210 3 q 68 99 104 56 q 33 191 33 142 q 102 304 33 254 q 233 411 189 366 q 277 497 277 456 q 223 589 277 542 q 60 699 170 635 q 16 773 16 726 q 49 863 16 817 q 132 940 83 909 q 227 972 181 972 q 311 915 284 972 l 318 901 q 390 751 363 802 q 439 701 418 701 q 488 753 463 701 q 555 910 513 805 q 644 971 581 971 q 740 941 690 971 q 824 866 789 911 q 858 779 858 822 q 817 708 858 736 q 666 594 715 642 q 616 504 616 546 q 666 416 616 461 q 810 311 715 371 q 885 195 885 262 q 849 101 885 146 q 760 29 813 57 q 656 1 707 1 z "},"Y":{"ha":863,"x_min":-18,"x_max":856,"o":"m 395 -1 q 312 10 351 -1 q 249 44 273 21 q 225 104 225 67 q 230 136 225 119 q 279 416 271 282 l 279 428 q 196 613 279 521 q 28 746 127 689 q -18 817 -18 774 q 12 889 -18 853 q 89 948 41 924 q 191 972 136 972 l 197 972 q 257 960 230 972 q 301 915 285 949 l 307 902 q 373 765 348 810 q 419 719 398 719 q 465 765 440 719 q 531 902 490 810 l 537 915 q 581 960 553 949 q 642 972 608 972 l 647 972 q 749 948 702 972 q 826 889 797 924 q 856 817 856 853 q 810 746 856 774 q 701 669 753 713 q 582 448 582 567 q 628 161 585 321 q 631 135 631 147 q 596 61 631 92 q 506 15 560 31 q 395 -1 451 -1 z "},"Z":{"ha":812,"x_min":31,"x_max":777,"o":"m 648 1 l 621 1 q 449 4 534 1 q 277 8 363 8 q 106 1 193 8 l 101 1 q 62 20 77 1 q 38 71 46 40 q 31 136 31 102 q 38 201 31 170 q 61 251 45 232 q 322 646 233 460 q 345 716 345 692 q 303 752 345 752 q 207 727 263 752 q 117 677 151 701 q 95 669 106 669 q 52 712 68 669 q 37 808 37 755 q 59 917 37 867 q 130 970 81 966 q 486 972 412 972 l 645 972 q 717 941 695 970 q 739 872 739 911 q 708 768 739 819 q 660 699 689 739 q 586 593 625 651 q 519 475 548 536 q 502 415 502 438 q 551 374 502 374 q 640 394 590 374 q 723 437 689 414 q 739 443 732 443 q 767 408 758 443 q 777 321 777 373 q 762 182 777 256 q 719 55 747 107 q 648 1 690 3 z "},"[":{"ha":631,"x_min":34,"x_max":597,"o":"m 253 -157 q 150 -147 201 -157 q 67 -112 100 -136 q 34 -43 34 -87 q 40 -7 34 -26 q 79 210 66 83 q 91 475 91 337 q 47 1004 91 773 q 43 1032 43 1019 q 69 1093 43 1072 q 134 1122 95 1114 q 217 1129 174 1129 l 391 1130 l 517 1129 q 576 1100 558 1127 q 593 1036 593 1072 q 572 950 593 991 q 520 910 551 910 q 492 920 507 910 q 426 947 454 947 q 370 910 391 947 q 341 811 350 873 q 332 671 332 749 l 332 621 q 331 522 331 577 q 333 401 331 465 q 341 277 335 338 q 361 168 348 217 q 394 90 374 119 q 446 60 415 60 q 503 82 471 60 q 528 91 516 91 q 578 48 558 91 q 597 -42 597 6 q 579 -118 597 -85 q 517 -153 560 -151 l 409 -155 q 253 -157 329 -157 z "},"\\":{"ha":618,"x_min":34,"x_max":584,"o":"m 387 -10 q 321 1 352 -10 q 272 38 291 13 q 254 102 254 62 q 255 136 254 121 q 256 176 256 151 q 230 403 256 292 q 159 619 204 514 q 54 822 113 724 q 34 883 34 856 q 57 939 34 916 q 115 974 79 962 q 189 985 151 985 q 261 974 227 985 q 318 937 296 962 q 340 873 340 911 l 340 811 q 364 636 340 722 q 427 468 389 551 q 509 302 465 385 q 572 174 541 239 q 584 127 584 149 q 554 55 584 86 q 478 7 524 24 q 387 -10 433 -10 z "},"]":{"ha":631,"x_min":34,"x_max":597,"o":"m 378 -157 q 222 -155 302 -157 l 114 -153 q 53 -118 71 -151 q 34 -42 34 -85 q 54 48 34 6 q 103 91 73 91 q 129 82 115 91 q 185 60 161 60 q 237 90 216 60 q 270 168 258 119 q 290 277 283 217 q 298 401 296 338 q 300 522 300 465 l 299 671 q 205 947 299 947 q 139 920 177 947 q 111 910 124 910 q 59 950 80 910 q 38 1036 38 991 q 56 1100 38 1072 q 114 1129 73 1127 l 241 1130 l 414 1129 q 497 1122 458 1129 q 562 1093 536 1114 q 587 1032 587 1072 q 585 1004 587 1019 q 541 475 541 773 q 553 210 541 337 q 591 -7 565 83 q 597 -43 597 -26 q 564 -112 597 -87 q 481 -147 531 -136 q 378 -157 431 -157 z "},"^":{"ha":549,"x_min":34,"x_max":515,"o":"m 410 591 q 338 631 364 591 q 275 759 296 696 q 212 631 255 696 q 139 591 185 591 q 67 616 100 591 q 34 669 34 642 q 64 711 34 694 q 155 803 116 739 q 204 943 195 866 q 227 964 207 957 q 270 972 246 972 q 313 964 294 972 q 335 943 332 957 q 389 803 346 866 q 485 711 433 739 q 515 669 515 694 q 483 616 515 642 q 410 591 450 591 z "},"_":{"ha":645,"x_min":34,"x_max":611,"o":"m 572 -157 q 464 -152 521 -157 q 322 -145 399 -145 q 182 -152 251 -145 q 76 -157 125 -157 q 45 -131 56 -157 q 34 -66 34 -104 q 42 -19 34 -40 q 70 3 51 3 q 184 -3 121 3 q 339 -9 257 -9 q 478 -2 411 -9 q 576 3 533 2 q 603 -20 594 3 q 611 -71 611 -43 q 601 -130 611 -102 q 572 -157 591 -157 z "},"`":{"ha":350,"x_min":34,"x_max":316,"o":"m 248 1043 q 215 1059 229 1043 q 154 1114 199 1080 q 52 1175 109 1147 q 34 1206 34 1185 q 66 1276 34 1238 q 130 1314 98 1314 q 160 1298 147 1314 q 215 1214 193 1251 q 259 1146 237 1177 q 313 1090 281 1116 q 316 1084 316 1088 q 294 1058 316 1073 q 248 1043 272 1043 z "},"a":{"ha":800,"x_min":28,"x_max":758,"o":"m 551 9 q 448 31 502 9 q 398 14 425 19 q 334 9 372 9 q 208 34 264 9 q 111 102 151 60 q 50 196 71 144 q 28 302 28 248 q 59 421 28 363 q 156 516 90 478 q 326 559 222 553 q 343 559 336 559 q 362 560 350 560 q 395 558 383 560 q 422 556 407 556 q 458 572 446 556 q 469 608 469 587 q 457 655 469 631 q 422 696 445 680 q 370 713 400 713 q 327 695 347 713 q 297 641 307 676 q 264 586 287 603 q 214 569 241 569 q 151 585 183 569 q 98 628 119 602 q 76 684 76 654 q 125 843 79 781 q 242 936 172 905 q 384 966 313 966 q 508 942 447 966 q 620 870 570 918 q 699 751 669 823 q 729 583 729 679 l 728 536 q 727 468 727 505 q 736 293 727 387 q 758 117 751 150 q 758 105 758 112 q 724 55 758 77 q 642 21 690 33 q 551 9 594 9 m 277 300 q 390 329 334 300 q 446 387 446 358 q 424 413 446 401 q 354 424 402 424 l 329 424 q 240 397 270 422 q 210 347 210 372 q 227 314 210 328 q 277 300 243 300 z "},"b":{"ha":812,"x_min":46,"x_max":789,"o":"m 444 416 q 553 438 518 418 q 587 480 587 457 q 546 531 587 507 q 427 557 504 555 q 366 538 385 557 q 347 496 347 519 q 371 442 347 468 q 436 416 395 416 l 444 416 m 454 0 q 314 16 371 0 q 211 0 262 0 q 130 11 168 0 q 69 46 92 22 q 46 106 46 69 q 51 138 46 121 q 100 486 100 317 q 51 835 100 655 q 46 871 46 854 q 68 934 46 909 q 127 971 91 959 q 203 983 163 983 q 289 969 247 983 q 357 927 330 955 q 384 860 384 900 q 380 831 384 846 q 366 769 366 785 q 380 755 366 755 q 417 759 393 755 q 486 766 452 766 q 618 734 562 766 q 713 651 675 703 q 770 533 751 599 q 789 397 789 467 q 768 253 789 323 q 706 125 747 182 q 601 34 664 68 q 454 0 538 0 z "},"c":{"ha":760,"x_min":25,"x_max":732,"o":"m 390 12 q 234 54 302 12 q 119 168 165 97 q 49 328 73 239 q 25 508 25 416 q 47 674 25 593 q 113 819 68 755 q 225 921 157 883 q 386 958 294 958 q 493 945 439 958 q 592 903 547 932 q 665 825 637 873 q 692 706 692 777 q 670 653 692 678 q 614 612 647 627 q 551 596 581 596 q 503 612 524 596 q 475 663 481 627 q 453 712 470 696 q 414 728 436 728 q 363 709 383 728 q 333 658 342 690 q 323 589 323 627 q 336 503 323 545 q 373 432 349 460 q 433 404 397 404 q 478 418 456 404 q 525 466 500 431 q 591 507 557 507 q 659 475 627 507 q 712 393 691 443 q 732 290 732 343 q 721 220 732 254 q 593 63 683 115 q 390 12 503 12 z "},"d":{"ha":813,"x_min":20,"x_max":763,"o":"m 373 416 q 438 442 414 416 q 463 496 463 468 q 444 538 463 519 q 382 557 425 557 q 263 531 305 555 q 222 480 222 507 q 256 438 222 457 q 366 416 291 418 l 373 416 m 598 0 q 495 16 547 0 q 355 0 438 0 q 209 34 271 0 q 104 125 146 68 q 41 253 62 182 q 20 397 20 323 q 39 533 20 467 q 96 651 58 599 q 191 734 134 703 q 323 766 248 766 q 392 759 357 766 q 427 755 415 755 q 443 768 443 755 q 429 831 443 785 q 425 860 425 846 q 452 927 425 900 q 520 969 479 955 q 606 983 562 983 q 682 971 646 983 q 741 934 718 959 q 763 871 763 909 q 758 835 763 854 q 709 486 709 655 q 758 138 709 317 q 763 106 763 121 q 740 46 763 69 q 679 11 717 22 q 598 0 642 0 z "},"e":{"ha":761,"x_min":25,"x_max":732,"o":"m 390 12 q 234 54 302 12 q 120 168 166 97 q 49 328 73 239 q 25 508 25 416 q 47 674 25 593 q 113 819 68 755 q 225 921 157 883 q 386 958 294 958 q 522 935 458 958 q 630 860 586 911 q 692 722 675 808 q 694 694 694 708 q 663 606 694 644 q 580 556 631 569 q 469 546 529 546 q 417 547 441 546 q 380 548 399 548 q 338 537 351 548 q 326 511 326 526 q 342 467 326 490 q 383 426 358 443 q 437 410 408 410 q 525 466 481 410 q 591 507 555 507 q 659 475 627 507 q 712 393 691 443 q 732 290 732 343 q 721 220 732 254 q 592 63 682 115 q 390 12 503 12 m 391 633 q 449 642 421 633 q 477 665 477 650 q 453 708 475 694 q 403 723 431 723 q 352 707 375 723 q 328 659 330 692 q 347 639 328 646 q 391 633 366 633 z "},"f":{"ha":694,"x_min":-15,"x_max":684,"o":"m 290 6 q 198 18 241 6 q 127 55 155 30 q 100 121 100 81 q 120 214 100 142 q 134 271 127 244 q 140 318 140 298 q 129 356 140 342 q 90 370 118 370 q 63 367 75 370 l 41 363 q 0 393 15 363 q -15 457 -15 423 q -2 512 -15 488 q 41 536 12 536 q 60 534 52 535 q 79 532 68 532 q 114 542 104 532 q 123 568 123 551 q 112 632 123 593 q 100 688 106 658 q 94 749 94 718 q 118 850 94 808 q 183 919 142 892 q 274 959 223 946 q 378 972 324 972 q 489 958 435 972 q 588 919 544 945 q 658 857 632 894 q 684 774 684 820 q 663 708 684 738 q 609 656 641 678 q 542 622 576 634 q 481 610 507 610 q 443 635 443 610 q 432 726 443 696 q 406 755 420 755 q 381 725 393 755 q 367 633 369 694 l 366 597 q 373 539 366 554 q 402 524 379 524 q 439 529 418 524 q 494 536 460 533 q 536 511 523 536 q 550 457 550 487 q 535 393 550 423 q 494 363 520 363 l 473 367 q 450 370 462 370 q 409 334 409 370 q 433 256 409 302 q 482 170 457 210 l 491 155 q 503 115 503 134 q 472 56 503 81 q 391 19 440 32 q 290 6 342 6 z "},"g":{"ha":727,"x_min":30,"x_max":677,"o":"m 394 1 q 273 16 333 1 q 164 58 212 31 q 86 122 115 85 q 56 206 56 160 q 65 313 56 262 q 92 394 75 363 q 133 425 109 425 q 151 420 141 425 q 225 391 176 407 q 322 376 275 376 q 389 392 363 376 q 414 432 414 408 q 400 455 414 445 q 356 465 387 465 l 321 464 q 164 501 229 464 q 65 595 99 538 q 30 716 31 652 q 58 820 30 776 q 130 894 85 865 q 229 938 175 924 q 334 953 282 953 q 436 936 391 953 q 469 961 446 955 q 532 967 492 967 q 604 960 572 967 q 655 932 636 954 q 674 869 674 911 q 668 821 674 848 q 634 574 634 667 q 640 488 634 530 q 654 393 645 446 q 677 220 677 256 q 653 121 677 162 q 590 53 630 79 q 499 14 550 26 q 394 1 449 1 m 286 701 q 393 729 357 705 q 429 779 429 753 q 411 809 429 795 q 355 822 393 822 l 331 821 q 248 794 276 818 q 220 747 220 770 q 236 715 220 728 q 286 701 252 701 z "},"h":{"ha":846,"x_min":41,"x_max":846,"o":"m 680 0 q 567 14 616 0 q 490 57 517 28 q 462 127 462 85 q 467 165 462 145 q 488 282 484 224 q 491 377 491 331 l 491 417 q 477 516 490 476 q 444 575 464 555 q 405 595 424 595 q 373 576 386 595 q 359 518 359 557 q 361 490 359 505 q 429 163 383 336 q 432 139 432 151 q 397 64 432 96 q 310 17 362 33 q 203 1 257 1 q 123 12 160 1 q 63 45 86 22 q 41 104 41 68 q 45 138 41 120 q 100 505 100 327 q 56 835 100 652 q 52 868 52 853 q 76 930 52 907 q 138 962 100 952 q 217 972 176 972 q 303 960 264 972 q 366 923 342 947 q 390 861 390 899 q 385 828 390 846 q 371 762 371 779 q 376 753 371 753 q 405 766 385 753 q 459 794 426 779 q 568 817 515 817 q 656 799 616 817 q 720 744 696 781 q 745 655 745 708 q 743 618 745 637 q 740 572 740 595 q 755 427 740 502 q 792 280 770 353 q 839 140 814 207 q 846 102 846 120 q 823 45 846 68 q 761 11 799 22 q 680 0 723 0 z "},"i":{"ha":444,"x_min":39,"x_max":413,"o":"m 209 787 q 94 819 141 787 q 46 899 46 852 q 94 977 46 945 q 209 1010 141 1010 q 323 977 276 1010 q 371 899 371 945 q 323 819 371 852 q 209 787 276 787 m 206 1 q 124 13 163 1 q 62 48 86 24 q 39 110 39 73 q 44 146 39 126 q 82 294 70 229 q 95 420 95 358 q 67 638 95 516 q 64 670 64 655 q 86 728 64 709 q 218 762 124 762 q 300 755 267 762 q 368 683 368 739 q 363 647 368 667 q 338 494 338 560 q 349 399 338 444 q 373 304 359 354 q 411 153 393 240 q 413 132 413 142 q 382 60 413 90 q 303 16 351 31 q 206 1 256 1 z "},"j":{"ha":635,"x_min":10,"x_max":585,"o":"m 399 787 q 284 819 332 787 q 236 899 236 852 q 284 977 236 945 q 399 1010 332 1010 q 514 977 466 1010 q 562 899 562 945 q 514 819 562 852 q 399 787 466 787 m 311 -7 l 307 -7 q 73 68 149 -7 q 10 235 10 133 q 30 348 10 294 q 77 435 49 401 q 132 471 104 469 q 202 425 167 471 q 254 364 227 391 q 301 337 280 337 q 336 434 336 337 q 318 493 336 468 q 279 540 300 519 q 246 579 260 559 q 232 623 232 599 q 302 725 232 689 q 444 755 361 755 q 545 725 508 755 q 582 644 582 696 q 577 610 582 627 q 564 471 564 549 q 583 224 564 368 q 585 195 585 209 q 546 83 585 127 q 444 15 507 38 q 311 -7 381 -7 z "},"k":{"ha":845,"x_min":42,"x_max":838,"o":"m 625 1 q 546 19 580 1 q 494 86 513 37 q 475 243 475 136 q 452 435 475 353 q 413 487 438 487 q 380 456 395 487 q 365 370 365 425 q 392 237 369 302 q 414 153 406 195 q 416 132 416 142 q 386 60 416 89 q 307 16 355 31 q 210 1 260 1 q 128 13 166 1 q 66 48 90 24 q 42 109 42 73 q 48 146 42 126 q 98 481 98 317 q 54 847 98 638 q 51 875 51 862 q 77 936 51 915 q 142 964 102 956 q 224 972 181 972 q 308 964 269 972 q 373 939 348 957 q 398 886 398 920 q 393 858 398 873 q 365 722 365 758 q 375 698 365 698 q 422 745 391 698 q 482 859 453 792 q 551 907 503 907 q 629 881 589 907 q 699 818 670 854 q 727 750 727 781 q 696 707 727 720 q 580 618 652 685 q 564 593 564 604 q 579 566 564 581 q 642 463 615 522 q 681 391 661 425 q 729 336 701 358 q 798 315 757 315 q 838 271 838 315 q 822 120 838 180 q 761 30 806 60 q 625 1 715 1 z "},"l":{"ha":474,"x_min":41,"x_max":468,"o":"m 230 1 q 138 13 181 1 q 67 47 94 24 q 41 108 41 71 q 45 138 41 122 q 100 505 100 327 q 57 835 100 665 q 52 869 52 853 q 76 930 52 907 q 138 962 100 952 q 217 972 176 972 q 303 960 264 972 q 366 923 342 947 q 390 861 390 899 q 385 828 390 846 q 351 580 351 699 q 378 368 351 472 q 458 159 406 264 q 468 121 468 139 q 432 57 468 83 q 342 16 397 30 q 230 1 287 1 z "},"m":{"ha":1250,"x_min":41,"x_max":1233,"o":"m 1052 0 q 911 30 960 0 q 863 117 863 60 q 870 165 863 139 q 890 362 887 234 q 894 572 894 490 q 881 671 894 631 q 850 730 869 711 q 810 750 831 750 q 764 716 785 750 q 744 613 744 682 l 744 578 q 770 342 744 462 q 824 144 795 222 q 831 109 831 125 q 804 49 831 73 q 735 12 777 24 q 650 0 694 0 q 509 30 558 0 q 460 117 460 60 q 468 165 460 139 q 488 363 485 235 q 492 558 492 492 l 492 572 q 467 704 492 656 q 414 751 442 751 q 373 715 391 751 q 355 601 355 679 q 373 412 356 504 q 416 218 391 319 l 429 163 q 432 139 432 151 q 397 64 432 96 q 310 17 362 33 q 203 1 257 1 q 123 12 160 1 q 63 45 86 22 q 41 104 41 68 q 45 138 41 120 q 100 505 100 328 q 57 835 100 665 q 52 869 52 854 q 76 930 52 907 q 138 962 100 953 q 217 972 176 972 q 289 965 263 972 q 328 947 315 958 q 350 928 342 937 q 361 917 355 922 q 376 913 368 913 q 433 935 393 913 q 568 972 503 972 q 646 958 610 972 q 707 916 682 943 q 736 880 728 892 q 749 867 745 867 q 761 877 754 867 q 800 913 770 888 q 884 957 840 943 q 970 972 928 972 q 1058 954 1018 972 q 1122 899 1098 935 q 1147 810 1147 863 q 1145 768 1147 790 q 1141 703 1141 741 q 1166 412 1141 576 q 1226 144 1190 247 q 1233 109 1233 125 q 1206 49 1233 73 q 1138 12 1179 24 q 1052 0 1096 0 z "},"n":{"ha":861,"x_min":41,"x_max":847,"o":"m 680 0 q 567 14 616 0 q 490 57 518 28 q 462 127 462 85 q 468 165 462 145 q 488 352 484 232 q 492 569 491 440 q 480 667 492 627 q 451 729 469 707 q 414 750 433 750 q 373 714 391 750 q 355 599 355 677 q 374 411 356 504 q 416 219 391 319 l 429 163 q 432 139 432 151 q 397 64 432 95 q 310 17 362 33 q 203 1 257 1 q 123 12 160 1 q 63 45 86 22 q 41 104 41 68 q 45 138 41 120 q 100 505 100 327 q 57 835 100 665 q 52 869 52 853 q 76 930 52 907 q 138 962 100 952 q 217 972 176 972 q 284 965 260 972 q 323 949 309 958 q 345 932 337 940 q 358 920 352 924 q 375 916 365 916 q 439 939 395 916 q 568 972 505 972 q 656 953 616 972 q 721 899 696 935 q 745 810 745 863 q 743 773 745 793 q 741 722 741 751 q 771 421 741 594 q 840 140 802 248 q 847 102 847 119 q 823 45 847 68 q 762 11 800 22 q 680 0 724 0 z "},"o":{"ha":819,"x_min":26,"x_max":783,"o":"m 402 448 q 444 469 424 448 q 476 532 463 490 q 489 635 489 574 q 477 724 489 688 q 446 778 465 760 q 406 795 427 795 q 365 777 385 795 q 333 723 346 759 q 321 632 321 686 q 333 529 321 570 q 363 468 345 488 q 402 448 382 448 m 405 1 q 259 35 328 1 q 138 138 190 69 q 56 310 86 207 q 26 549 26 412 q 58 739 26 657 q 144 874 90 820 q 265 956 198 928 q 403 983 332 983 q 542 956 474 983 q 665 872 610 928 q 751 734 719 817 q 783 541 783 652 q 753 303 783 405 q 671 135 723 202 q 550 34 618 67 q 405 1 481 1 z "},"p":{"ha":811,"x_min":45,"x_max":791,"o":"m 416 619 q 448 622 430 619 q 555 656 521 634 q 589 702 589 679 q 557 744 589 726 q 467 762 524 762 l 452 762 q 371 730 400 758 q 342 673 342 702 q 360 635 342 651 q 416 619 378 619 m 211 1 q 130 12 168 1 q 69 46 92 23 q 46 106 46 70 q 51 138 46 121 q 100 486 100 317 q 51 835 100 655 q 45 871 45 854 q 65 929 45 906 q 117 963 85 951 q 186 974 149 974 q 320 937 256 974 q 515 978 420 978 q 668 940 607 978 q 760 840 730 901 q 791 709 791 778 q 770 596 791 652 q 707 496 749 541 q 603 425 666 452 q 457 398 541 398 q 395 387 412 398 q 378 353 378 376 q 385 315 378 337 q 401 265 391 293 q 435 163 418 221 q 438 138 438 150 q 404 64 438 94 q 317 17 369 33 q 211 1 264 1 z "},"q":{"ha":753,"x_min":0,"x_max":703,"o":"m 264 615 q 319 623 288 615 q 392 662 370 637 q 415 711 415 686 q 398 749 415 732 q 353 765 382 765 q 323 760 340 765 q 237 712 268 743 q 207 655 207 681 q 221 627 207 638 q 264 615 235 615 m 475 1 q 395 12 432 1 q 335 45 358 22 q 313 104 313 68 q 317 138 313 119 q 361 247 335 195 q 387 307 376 279 q 397 355 397 335 q 383 387 397 375 q 334 398 369 398 q 188 425 250 398 q 83 496 125 452 q 21 596 41 541 q 0 709 0 652 q 31 839 0 777 q 122 939 61 901 q 275 978 183 978 q 420 954 340 978 q 509 974 460 974 q 598 958 554 974 q 671 913 642 943 q 700 840 700 883 q 696 809 700 825 q 652 507 652 648 q 665 342 652 425 q 701 163 677 258 q 703 138 703 151 q 669 64 703 95 q 581 17 634 33 q 475 1 528 1 z "},"r":{"ha":770,"x_min":43,"x_max":759,"o":"m 209 11 q 129 22 166 11 q 70 56 92 33 q 47 115 47 79 q 52 148 47 130 q 99 469 99 316 q 86 641 99 553 q 48 825 73 728 q 43 859 43 843 q 67 920 43 897 q 129 952 92 942 q 208 962 167 962 q 302 943 273 962 q 332 880 332 925 l 330 852 q 340 821 330 821 q 357 833 347 821 q 377 860 367 845 q 395 882 387 874 q 495 950 439 928 q 610 972 550 972 q 699 960 654 972 q 745 921 730 951 q 759 851 759 891 q 742 750 759 802 q 700 663 726 699 q 647 627 675 627 q 612 648 629 627 q 564 686 591 673 q 507 698 536 698 q 427 676 466 698 q 364 613 389 654 q 339 515 339 572 q 354 413 339 463 q 390 310 370 362 q 435 173 416 245 q 438 149 438 161 q 403 74 438 105 q 316 27 368 43 q 209 11 263 11 z "},"s":{"ha":768,"x_min":28,"x_max":751,"o":"m 373 1 q 254 18 315 1 q 142 69 193 35 q 60 153 92 103 q 28 269 28 203 q 48 373 30 323 q 95 454 66 422 q 155 486 123 486 q 212 448 184 486 q 263 410 228 426 q 332 394 299 394 q 383 434 382 394 q 356 472 383 454 q 289 511 330 490 q 220 550 256 528 q 154 599 184 571 q 103 662 123 627 q 83 743 83 697 q 128 864 85 812 q 239 943 171 915 q 380 972 307 972 q 555 930 489 972 q 657 795 622 889 q 661 774 661 785 q 627 710 661 737 q 557 683 593 683 q 516 700 534 683 q 498 755 499 716 q 483 797 496 783 q 450 810 469 810 q 405 791 427 810 q 384 738 384 772 q 424 655 384 690 q 536 581 476 615 q 615 531 576 557 q 684 474 653 505 q 733 403 715 443 q 751 312 751 363 q 690 131 749 199 q 545 31 632 62 q 373 1 457 1 z "},"t":{"ha":798,"x_min":-14,"x_max":789,"o":"m 430 1 q 330 15 380 1 q 236 56 279 29 q 168 123 194 83 q 142 213 142 162 q 149 267 142 239 q 191 435 174 353 q 209 562 209 518 q 201 596 209 586 q 173 606 193 606 q 130 600 157 606 q 65 584 103 594 q 44 580 50 580 q 2 611 18 580 q -14 676 -14 642 q -1 728 -14 705 q 40 751 12 751 q 101 744 75 749 q 151 740 128 740 q 176 744 167 740 q 185 760 185 749 q 150 833 185 781 q 131 886 131 863 q 155 934 131 915 q 215 962 178 953 q 294 972 252 972 q 408 954 367 972 q 448 897 448 935 q 435 850 448 876 q 412 781 412 804 q 423 756 412 763 q 452 750 434 750 q 524 760 481 750 q 568 767 560 767 q 610 742 597 767 q 623 686 623 717 q 609 625 623 653 q 570 596 595 596 q 523 605 557 597 q 446 616 477 616 q 408 604 422 616 q 393 556 393 591 q 404 479 395 513 q 430 425 412 445 q 476 406 448 406 q 592 463 519 406 q 655 488 625 488 q 750 410 712 488 q 789 214 789 331 q 745 109 789 158 q 620 31 701 60 q 430 1 540 1 z "},"u":{"ha":866,"x_min":28,"x_max":836,"o":"m 669 1 q 560 20 612 1 q 479 76 507 39 q 326 1 416 12 l 302 1 q 202 18 243 1 q 134 63 161 36 q 92 119 107 90 q 71 174 77 149 q 64 213 64 200 l 65 220 q 87 454 87 340 q 33 825 87 638 q 28 856 28 841 q 51 917 28 892 q 111 953 75 941 q 189 965 148 965 q 266 953 229 965 q 326 916 302 941 q 349 855 349 892 q 347 830 349 843 q 325 633 325 728 q 327 568 325 600 q 349 413 334 473 q 385 325 365 353 q 426 297 405 297 q 489 368 461 297 q 517 569 517 439 q 479 826 517 696 q 474 858 474 843 q 499 921 474 895 q 564 959 525 946 q 645 972 603 972 q 717 961 683 972 q 773 926 751 949 q 795 867 795 903 q 792 842 795 855 q 762 557 762 694 q 829 146 762 354 q 836 109 836 126 q 812 48 836 72 q 750 12 788 24 q 669 1 712 1 z "},"v":{"ha":878,"x_min":-10,"x_max":874,"o":"m 453 -1 q 295 32 366 -1 q 219 130 224 65 q 169 434 216 307 q 19 736 121 561 q -10 833 -10 791 q 51 936 -10 900 q 211 972 112 972 q 286 960 250 972 q 343 927 321 949 q 366 875 366 905 q 359 779 364 821 q 354 703 354 740 q 368 565 354 620 q 405 482 382 509 q 451 454 427 454 q 493 478 473 454 q 525 549 513 502 q 538 666 538 596 q 517 858 538 762 q 515 874 515 866 q 540 929 515 907 q 604 962 564 951 q 687 972 643 972 q 777 960 734 972 q 847 921 820 947 q 874 856 874 895 q 855 789 874 827 q 725 471 760 613 q 689 150 689 328 l 689 136 q 655 60 689 91 q 567 15 621 30 q 453 -1 513 -1 z "},"w":{"ha":1235,"x_min":-3,"x_max":1221,"o":"m 857 1 q 768 17 810 1 q 697 65 725 33 q 670 147 670 97 l 670 155 q 654 307 670 257 q 619 356 638 356 q 581 302 598 356 q 564 144 564 248 q 535 62 564 94 q 461 15 507 30 q 368 1 416 1 q 239 33 296 1 q 180 130 183 65 q 150 433 179 306 q 25 736 120 561 q -3 833 -3 790 q 56 936 -3 899 q 209 972 114 972 q 291 959 248 972 q 363 923 334 947 q 393 866 393 900 q 384 756 391 805 q 376 656 376 707 q 386 533 376 583 q 411 459 396 484 q 441 435 426 435 q 471 468 458 435 q 484 567 484 501 q 458 772 484 657 q 456 791 456 783 q 479 844 456 823 q 536 876 501 865 q 610 886 572 886 q 683 876 648 886 q 740 844 718 865 q 762 791 762 823 q 760 772 762 783 q 734 572 734 649 q 748 476 734 508 q 779 444 761 444 q 810 469 795 444 q 837 545 826 494 q 847 671 847 596 q 832 855 847 750 q 831 867 831 861 q 859 925 831 901 q 928 960 887 948 q 1010 972 970 972 q 1163 936 1105 972 q 1221 833 1221 899 q 1194 736 1221 790 q 1069 433 1099 561 q 1039 130 1040 306 q 980 33 1036 65 q 857 1 925 1 z "},"x":{"ha":914,"x_min":24,"x_max":894,"o":"m 665 1 q 598 18 629 1 q 550 74 568 35 l 525 131 q 490 208 504 182 q 466 234 477 234 q 440 203 454 234 q 403 111 426 173 l 391 82 q 342 21 374 40 q 271 3 310 3 q 167 30 220 3 q 78 99 114 56 q 42 191 42 142 q 112 304 42 254 q 242 411 198 366 q 286 497 286 456 q 233 589 286 542 q 69 699 179 635 q 24 773 24 726 q 58 863 24 817 q 141 940 92 909 q 236 972 190 972 q 321 915 294 972 l 330 896 q 400 750 374 800 q 449 701 427 701 q 498 753 472 701 q 565 910 524 805 q 652 971 591 971 q 749 941 699 971 q 833 866 798 911 q 867 779 867 822 q 826 708 867 736 q 675 594 724 642 q 626 504 626 546 q 675 416 626 461 q 819 311 724 371 q 894 195 894 262 q 858 101 894 146 q 770 29 823 57 q 665 1 717 1 z "},"y":{"ha":857,"x_min":-20,"x_max":854,"o":"m 393 -1 q 310 10 349 -1 q 247 44 271 21 q 223 104 223 68 q 228 136 223 119 q 277 431 275 299 q 193 614 277 523 q 26 746 123 690 q -20 817 -20 774 q 9 889 -20 853 q 86 948 39 924 q 192 972 134 972 q 254 961 227 972 q 300 915 282 950 q 311 890 306 903 q 374 762 350 805 q 417 719 397 719 q 464 766 439 719 q 532 908 490 813 l 535 915 q 580 961 552 950 q 642 972 608 972 q 748 948 701 972 q 825 889 795 924 q 854 817 854 853 q 808 746 854 774 q 700 670 751 713 q 580 450 580 569 q 626 161 583 313 q 629 135 629 147 q 593 62 629 92 q 503 15 557 31 q 393 -1 449 -1 z "},"z":{"ha":797,"x_min":28,"x_max":772,"o":"m 681 1 l 640 1 q 475 4 557 1 q 310 8 393 8 q 166 2 238 8 q 131 1 149 1 q 90 23 106 1 q 65 81 73 46 q 56 151 56 115 q 62 207 56 180 q 81 251 68 234 q 323 646 242 460 q 342 713 342 689 q 299 752 342 752 q 204 726 259 752 q 116 677 149 701 q 94 669 104 669 q 60 692 75 669 q 37 751 45 715 q 28 825 28 787 q 48 923 28 879 q 114 970 68 967 q 494 972 307 972 l 660 972 q 710 946 695 970 q 725 885 725 921 q 704 779 725 835 q 653 695 682 724 q 549 576 584 633 q 486 419 513 520 q 478 369 478 389 q 530 315 478 315 q 613 337 567 315 q 692 381 659 358 q 709 387 701 387 q 742 360 728 387 q 764 290 756 333 q 772 199 772 247 q 750 65 772 126 q 681 1 729 4 z "},"{":{"ha":692,"x_min":34,"x_max":659,"o":"m 488 -157 l 368 -157 q 295 -150 326 -157 q 246 -124 264 -143 q 229 -70 229 -106 q 233 -32 229 -53 q 254 151 254 75 q 238 273 254 224 q 198 350 222 321 q 146 391 173 378 q 94 404 119 403 q 49 439 64 407 q 34 511 34 471 q 41 563 34 538 q 61 603 47 587 q 94 618 75 618 q 197 653 157 618 q 254 827 254 701 q 233 1004 254 899 q 229 1042 229 1025 q 246 1097 229 1078 q 295 1122 264 1116 q 368 1129 326 1129 l 488 1130 l 581 1129 q 640 1100 622 1128 q 659 1036 659 1072 q 649 978 659 1006 q 622 931 639 949 q 583 912 604 912 q 555 920 570 912 q 477 948 507 948 q 434 924 448 948 q 417 859 421 899 q 413 771 414 819 q 400 618 413 692 q 332 508 387 545 q 410 430 386 482 q 441 313 435 378 q 449 187 448 249 q 453 106 450 142 q 466 48 456 70 q 497 26 475 26 q 555 52 519 26 q 583 62 570 62 q 636 22 615 62 q 657 -63 657 -18 q 639 -127 657 -99 q 581 -157 621 -155 l 488 -157 z "},"|":{"ha":809,"x_min":305,"x_max":504,"o":"m 410 -156 q 339 -145 372 -156 q 305 -114 305 -135 l 305 -111 q 314 120 309 -49 q 319 484 319 289 q 314 847 319 678 q 305 1078 309 1015 l 305 1080 q 342 1112 305 1100 q 419 1123 379 1123 q 478 1114 452 1123 q 504 1085 504 1105 l 504 1080 q 496 831 500 1016 q 492 439 492 646 q 496 96 492 252 q 504 -111 500 -59 l 504 -117 q 475 -146 504 -137 q 410 -156 446 -156 z "},"}":{"ha":692,"x_min":34,"x_max":659,"o":"m 205 -157 l 111 -157 q 53 -127 71 -155 q 35 -63 35 -99 q 56 22 35 -18 q 109 62 77 62 q 136 52 122 62 q 195 26 174 26 q 227 48 217 26 q 239 106 236 70 q 243 187 242 142 q 251 313 243 249 q 282 430 258 378 q 359 508 307 482 q 292 618 306 545 q 279 771 279 692 q 274 859 278 819 q 257 924 271 899 q 214 948 244 948 q 136 920 185 948 q 110 912 123 912 q 71 931 88 912 q 44 978 54 949 q 34 1036 34 1006 q 52 1100 34 1072 q 111 1129 70 1128 l 205 1130 l 324 1129 q 397 1122 366 1129 q 446 1097 429 1116 q 464 1042 464 1078 q 459 1004 464 1025 q 438 827 438 899 q 494 653 438 701 q 597 618 534 618 q 631 603 618 618 q 652 563 645 587 q 659 511 659 538 q 644 439 659 471 q 597 404 629 407 q 546 391 574 403 q 494 350 519 378 q 454 273 470 321 q 438 151 438 224 q 459 -32 438 75 q 464 -70 464 -53 q 446 -124 464 -106 q 397 -150 429 -143 q 324 -157 366 -157 l 205 -157 z "},"~":{"ha":713,"x_min":34,"x_max":680,"o":"m 482 336 q 402 349 433 336 q 352 383 371 363 q 319 424 333 403 q 290 459 305 445 q 250 474 275 474 q 216 465 233 474 q 199 432 199 455 q 210 401 199 419 q 215 382 215 391 q 185 348 215 360 q 122 336 156 336 q 71 344 94 336 q 41 371 48 353 q 34 422 34 395 q 58 521 34 471 q 127 604 83 570 q 231 637 172 637 q 314 622 282 637 q 368 584 347 606 q 404 540 389 562 q 434 502 419 517 q 473 486 450 486 q 502 497 489 486 q 515 532 515 509 q 503 572 515 550 q 498 590 498 582 q 527 625 498 612 q 591 637 557 637 q 642 628 619 637 q 672 601 665 619 q 680 550 680 576 q 655 452 680 501 q 586 369 631 402 q 482 336 542 336 z "},"¡":{"ha":437,"x_min":34,"x_max":403,"o":"m 212 433 q 89 465 140 433 q 37 542 37 497 q 89 618 37 587 q 212 650 140 650 q 335 618 284 650 q 387 542 387 587 q 335 465 387 497 q 212 433 284 433 m 224 -328 q 136 -317 180 -328 q 63 -284 92 -306 q 34 -231 34 -263 q 50 -116 35 -166 q 81 -24 64 -66 q 109 50 97 13 q 120 130 120 87 q 96 264 120 195 q 91 297 91 282 q 109 347 91 327 q 154 377 126 367 q 214 387 182 387 q 277 375 247 387 q 328 340 308 363 q 347 280 347 316 q 345 258 347 270 q 328 99 328 165 q 341 -14 328 40 q 380 -141 355 -68 l 397 -197 q 403 -227 403 -213 q 377 -283 403 -261 q 311 -317 351 -306 q 224 -328 270 -328 z "},"¢":{"ha":775,"x_min":34,"x_max":741,"o":"m 355 -139 q 304 -129 330 -139 q 262 -100 279 -119 q 245 -56 245 -81 q 250 -32 245 -44 l 250 -29 q 267 28 267 13 q 262 42 267 37 q 244 54 256 47 q 208 79 231 61 q 78 266 123 149 q 34 507 34 382 q 63 699 34 607 q 153 857 92 791 q 305 947 213 922 q 338 954 325 952 q 356 959 351 956 q 362 974 362 962 q 360 995 362 981 q 356 1034 356 1014 q 371 1075 356 1059 q 408 1100 385 1091 q 455 1108 431 1108 q 513 1093 487 1108 q 538 1047 538 1078 q 533 1019 538 1035 l 527 1004 q 512 956 512 970 q 519 942 512 947 q 543 929 526 937 l 557 922 q 648 846 610 895 q 700 722 686 797 l 701 711 q 678 656 701 682 q 623 613 656 629 q 559 596 591 596 q 511 612 532 596 q 484 663 490 627 q 461 712 478 696 q 423 728 444 728 q 354 685 376 726 q 332 589 332 645 q 345 503 332 545 q 382 432 357 460 q 440 404 406 404 l 445 404 q 533 466 488 404 q 600 507 565 507 q 668 475 635 507 q 721 393 700 443 q 741 290 741 343 q 730 220 741 254 q 629 82 697 132 q 469 17 560 31 q 450 14 458 15 q 423 8 431 12 q 415 -7 415 5 q 418 -28 415 -17 q 425 -82 423 -46 q 403 -125 425 -111 q 355 -139 382 -139 z "},"£":{"ha":851,"x_min":34,"x_max":817,"o":"m 414 1 q 149 124 149 1 q 199 258 149 177 q 222 339 222 294 q 220 361 222 350 q 80 343 121 350 q 45 368 57 343 q 34 419 34 393 q 43 461 34 442 q 75 479 53 479 q 126 477 100 479 q 183 473 153 475 q 165 511 175 492 q 120 614 140 561 q 99 725 99 668 q 146 859 100 804 q 268 943 192 914 q 431 972 343 972 q 585 946 509 972 q 713 865 661 920 q 772 725 764 810 q 773 720 772 721 l 773 711 q 750 656 773 682 q 693 614 726 630 q 628 597 659 597 q 581 613 601 597 q 555 665 561 629 q 531 715 550 700 q 488 731 512 731 q 431 709 458 731 q 401 648 404 686 l 400 635 q 408 557 400 593 q 429 481 414 535 q 562 493 555 493 q 593 473 583 493 q 604 429 604 452 q 593 380 604 403 q 563 357 582 357 q 543 359 553 357 q 453 367 500 363 l 454 349 q 446 286 454 327 q 441 257 441 268 q 481 235 441 235 q 597 264 548 237 q 673 337 646 292 q 736 387 705 387 q 778 361 760 387 q 807 295 796 336 q 817 210 817 255 q 804 121 817 164 q 688 13 776 24 q 414 1 567 1 z "},"¤":{"ha":612,"x_min":34,"x_max":578,"o":"m 307 395 q 337 414 323 395 q 351 472 351 433 q 337 523 351 506 q 307 541 323 541 q 275 523 290 541 q 261 472 261 506 q 275 414 261 433 q 307 395 290 395 m 509 216 q 481 230 494 216 q 406 306 451 263 q 306 280 359 280 q 205 306 253 280 q 132 230 161 263 q 104 216 119 216 q 56 244 79 216 q 34 297 34 272 q 50 326 34 315 q 132 380 84 345 q 102 496 102 436 q 126 596 102 549 q 50 646 81 629 q 34 675 34 656 q 56 728 34 700 q 104 755 79 755 q 132 742 119 755 q 202 670 160 710 q 306 692 251 692 q 410 670 361 692 q 481 742 452 710 q 509 755 494 755 q 556 728 534 755 q 578 675 578 700 q 562 646 578 656 q 486 596 530 629 q 510 496 510 549 q 480 380 510 436 q 562 326 528 345 q 578 298 578 316 q 556 244 578 272 q 509 216 534 216 z "},"¥":{"ha":941,"x_min":34,"x_max":907,"o":"m 447 -1 q 363 10 402 -1 q 300 44 324 21 q 276 104 276 68 q 281 136 276 119 q 306 237 295 184 q 202 224 227 229 q 168 250 179 224 q 156 300 156 275 q 165 341 156 323 q 197 360 175 360 l 326 355 q 330 406 329 380 q 202 391 239 397 q 168 416 179 391 q 156 467 156 441 q 165 508 156 490 q 197 527 175 527 l 243 525 q 311 522 273 523 q 247 614 290 567 q 80 746 178 688 q 34 817 34 773 q 63 889 34 853 q 140 948 92 924 q 245 972 187 972 q 308 961 280 972 q 353 915 336 950 q 427 762 399 811 q 471 719 450 719 q 514 762 490 719 q 577 890 538 805 q 633 961 600 948 q 694 972 661 972 q 801 948 753 972 q 878 889 848 924 q 907 817 907 853 q 861 746 907 773 q 667 571 727 669 q 648 533 655 553 q 750 541 743 541 q 781 521 771 541 q 791 477 791 500 q 781 428 791 451 q 751 405 770 405 q 743 406 745 405 q 634 414 681 412 q 638 365 635 390 q 743 374 742 373 l 750 374 q 782 354 772 374 q 791 310 791 334 q 781 261 791 284 q 751 238 770 238 q 743 239 745 238 q 658 246 709 242 q 680 161 667 204 q 683 136 683 148 q 647 62 683 92 q 557 15 611 31 q 447 -1 503 -1 z "},"¦":{"ha":267,"x_min":34,"x_max":233,"o":"m 139 485 q 67 490 101 485 q 34 503 34 494 l 34 504 q 42 604 37 531 q 47 760 47 676 q 42 916 47 844 q 34 1015 37 989 l 34 1017 q 71 1030 34 1025 q 148 1035 108 1035 q 207 1031 181 1035 q 233 1019 233 1027 l 233 1017 q 225 909 229 989 q 220 741 220 829 q 225 593 220 661 q 233 504 229 526 l 233 502 q 203 489 233 493 q 139 485 174 485 m 139 -284 q 67 -279 101 -284 q 34 -267 34 -275 l 34 -265 q 42 -165 37 -238 q 47 -9 47 -93 q 42 147 47 75 q 34 246 37 219 l 34 248 q 71 261 34 256 q 148 266 108 266 q 207 262 181 266 q 233 250 233 258 l 233 248 q 225 140 229 220 q 220 -28 220 60 q 225 -176 220 -109 q 233 -265 229 -243 l 233 -267 q 203 -280 233 -276 q 139 -284 174 -284 z "},"§":{"ha":792,"x_min":34,"x_max":758,"o":"m 353 -206 q 243 -190 300 -206 q 140 -143 187 -174 q 63 -65 93 -111 q 34 41 34 -19 q 51 136 35 91 q 92 210 66 181 q 146 239 118 239 q 200 204 175 239 q 256 154 224 170 q 314 138 288 138 q 343 145 332 138 q 355 163 355 151 q 346 185 355 173 q 316 213 336 198 q 270 243 295 227 q 205 285 239 262 q 144 336 172 308 q 97 399 115 365 q 79 477 79 434 q 110 572 79 530 q 193 641 142 614 q 141 768 141 699 q 181 875 141 829 q 286 946 222 921 q 420 972 350 972 q 529 954 476 972 q 624 899 582 937 q 690 800 666 861 q 694 781 694 791 q 675 734 694 757 q 629 698 656 712 q 576 684 602 684 q 538 697 553 684 q 520 744 522 711 q 500 793 519 777 q 460 810 481 810 q 429 798 441 810 q 416 761 416 786 q 426 721 416 741 q 454 685 436 700 q 558 616 503 648 q 654 553 609 587 q 729 476 700 520 q 758 368 758 432 q 674 172 758 245 q 696 77 696 132 q 665 -54 696 0 q 583 -142 633 -108 q 472 -191 532 -176 q 353 -206 412 -206 m 385 427 q 409 433 399 427 q 418 450 418 439 q 405 477 418 461 q 361 513 392 494 q 314 533 331 533 q 297 526 302 533 q 292 508 292 519 q 299 478 292 494 q 320 452 307 463 q 385 427 353 427 z "},"¨":{"ha":509,"x_min":34,"x_max":475,"o":"m 139 1042 q 65 1070 96 1042 q 34 1136 34 1097 q 65 1202 34 1175 q 139 1230 96 1230 q 213 1202 182 1230 q 243 1136 243 1175 q 213 1070 243 1097 q 139 1042 182 1042 m 370 1042 q 296 1070 326 1042 q 265 1136 265 1097 q 296 1202 265 1175 q 370 1230 326 1230 q 444 1202 413 1230 q 475 1136 475 1175 q 444 1070 475 1097 q 370 1042 413 1042 z "},"©":{"ha":996,"x_min":34,"x_max":962,"o":"m 498 9 q 262 75 368 9 q 96 249 157 140 q 34 486 34 357 q 96 723 34 615 q 262 897 157 831 q 498 962 368 962 q 734 897 629 962 q 901 723 840 831 q 962 486 962 615 q 901 249 962 357 q 734 75 840 140 q 498 9 629 9 m 490 157 q 385 187 431 157 q 308 265 339 216 q 261 375 277 314 q 245 500 245 437 q 260 616 245 560 q 305 718 275 673 q 381 789 335 763 q 491 816 428 816 q 585 799 538 816 q 664 744 632 782 q 699 642 695 705 q 666 590 699 613 q 602 567 633 567 q 570 577 584 567 q 551 612 555 588 q 536 645 547 634 q 512 656 526 656 q 462 626 477 655 q 447 555 447 597 q 465 463 447 507 q 509 419 484 419 q 585 477 545 420 q 631 505 606 505 q 696 458 666 505 q 726 356 726 411 q 718 309 726 332 q 629 196 692 235 q 490 157 567 157 m 498 81 q 698 137 609 81 q 839 285 787 193 q 891 486 891 377 q 839 687 891 595 q 698 835 787 779 q 498 891 609 891 q 298 835 387 891 q 158 687 210 779 q 106 486 106 595 q 158 285 106 377 q 298 137 210 193 q 498 81 387 81 z "},"ª":{"ha":549,"x_min":34,"x_max":515,"o":"m 379 460 q 311 474 346 460 q 278 464 295 467 q 236 460 261 460 q 129 487 174 460 q 59 554 83 513 q 34 637 34 594 q 54 708 34 673 q 118 765 75 743 q 231 791 161 787 l 254 791 q 276 790 268 791 q 294 789 283 789 q 317 799 310 789 q 325 821 325 808 q 307 862 325 841 q 260 884 289 884 q 231 872 244 884 q 211 839 217 861 q 189 807 204 817 q 156 797 174 797 q 96 818 126 797 q 65 866 65 839 q 98 961 67 924 q 175 1017 128 999 q 269 1035 222 1035 q 376 1009 324 1035 q 463 933 429 984 q 496 805 496 882 l 496 777 q 495 736 495 759 q 501 631 495 688 q 515 526 511 545 q 515 519 515 523 q 493 489 515 502 q 439 468 471 475 q 379 460 407 460 m 198 635 q 272 653 235 635 q 309 688 309 670 q 295 703 309 696 q 249 710 281 709 l 232 710 q 173 694 193 709 q 153 663 153 679 q 164 644 153 652 q 198 635 176 635 m 399 235 q 345 241 374 235 q 275 248 313 248 q 205 241 239 248 q 151 235 176 237 q 136 262 142 235 q 130 326 130 289 q 135 374 130 353 q 149 395 139 395 q 205 391 174 395 q 283 384 242 384 q 353 391 319 384 q 401 395 380 395 q 415 372 411 395 q 419 321 419 349 q 414 263 419 291 q 399 235 409 235 z "},"«":{"ha":861,"x_min":34,"x_max":827,"o":"m 325 173 q 306 181 313 173 q 204 290 264 233 q 111 374 144 347 q 34 494 34 440 q 97 596 34 544 q 179 671 135 628 q 258 749 224 714 q 299 791 292 784 q 316 799 305 799 q 370 778 338 799 q 426 728 401 757 q 451 675 451 699 q 440 653 451 663 q 408 625 429 644 q 367 588 387 607 l 326 551 q 287 515 300 530 q 274 486 274 500 q 316 429 274 461 q 446 321 411 348 q 456 300 456 313 q 432 247 456 277 q 378 195 409 217 q 325 173 347 173 m 696 173 q 677 181 684 173 q 575 290 635 233 q 483 374 516 347 q 406 494 406 440 q 469 596 406 544 q 551 671 507 628 q 630 749 595 714 q 670 791 664 784 q 688 799 677 799 q 741 778 709 799 q 798 728 773 757 q 823 675 823 699 q 811 653 823 663 q 779 625 800 644 q 739 588 759 607 l 697 551 q 658 515 671 530 q 645 486 645 500 q 688 429 645 461 q 817 321 783 348 q 827 300 827 313 q 804 247 827 277 q 750 195 781 217 q 696 173 719 173 z "},"¬":{"ha":637,"x_min":34,"x_max":603,"o":"m 509 282 q 438 293 471 282 q 405 323 405 303 l 405 328 q 416 400 409 372 q 422 441 421 422 q 423 448 422 445 l 424 474 q 410 509 424 503 q 371 513 399 513 q 187 500 294 513 q 76 492 89 492 q 45 529 57 492 q 34 605 34 566 q 43 664 34 638 q 72 690 52 690 l 142 686 q 334 677 239 677 q 448 682 408 677 q 515 685 479 684 q 576 668 551 685 q 600 622 600 651 l 600 614 q 600 610 600 614 q 593 527 597 559 q 589 469 589 494 q 594 407 589 439 q 603 328 599 376 l 603 322 q 573 292 603 302 q 509 282 544 282 z "},"®":{"ha":996,"x_min":34,"x_max":962,"o":"m 498 9 q 262 75 368 9 q 96 249 157 140 q 34 486 34 357 q 96 723 34 615 q 262 897 157 831 q 498 962 368 962 q 734 897 629 962 q 901 723 839 831 q 962 486 962 615 q 901 249 962 357 q 734 75 839 140 q 498 9 629 9 m 486 609 l 498 610 q 572 629 549 612 q 595 661 595 645 q 578 686 595 675 q 530 698 561 698 l 514 697 q 464 677 483 695 q 446 640 446 659 q 455 618 446 628 q 486 609 465 609 m 364 181 q 314 188 338 181 q 276 210 291 195 q 262 248 262 225 q 264 268 262 258 q 294 492 294 383 q 264 715 294 601 q 262 734 262 725 q 276 773 262 758 q 314 796 291 788 q 362 804 337 804 q 427 789 397 804 q 533 801 488 801 q 647 779 602 801 q 713 722 691 758 q 734 646 734 686 q 709 557 734 601 q 634 481 684 513 q 610 454 610 466 q 632 432 610 441 q 684 418 654 422 q 734 413 713 413 l 760 414 q 783 399 776 414 q 791 363 791 385 q 781 307 791 338 q 751 247 770 275 q 704 200 732 219 q 640 182 676 182 q 562 257 605 186 q 493 418 519 328 q 483 437 490 430 q 471 444 476 444 q 462 428 463 444 q 463 414 462 423 q 499 284 477 352 q 503 264 503 274 q 481 219 503 238 q 429 191 460 201 q 364 181 397 181 m 498 81 q 698 137 609 81 q 839 285 787 193 q 891 486 891 377 q 839 687 891 595 q 698 835 787 779 q 498 891 609 891 q 298 835 387 891 q 158 687 210 779 q 106 486 106 595 q 158 285 106 377 q 298 137 210 193 q 498 81 387 81 z "},"¯":{"ha":685,"x_min":34,"x_max":651,"o":"m 610 694 q 492 701 555 696 q 342 708 416 708 q 189 701 258 708 q 75 694 130 695 q 45 731 56 694 q 34 808 34 768 q 43 866 34 840 q 72 892 52 892 q 193 888 127 892 q 362 880 271 880 q 509 888 437 880 q 612 892 566 892 q 641 863 631 892 q 651 799 651 834 q 641 728 651 761 q 610 694 630 694 z "},"°":{"ha":469,"x_min":34,"x_max":435,"o":"m 233 654 q 264 675 250 654 q 279 738 279 696 q 265 792 279 774 q 235 810 252 810 q 204 791 218 810 q 191 736 191 773 q 204 674 191 694 q 233 654 217 654 m 235 531 q 125 565 170 531 q 57 653 81 600 q 34 763 34 706 q 55 864 34 816 q 121 942 77 911 q 235 972 165 972 q 348 941 303 972 q 414 863 392 911 q 435 761 435 814 q 412 651 435 704 q 345 565 389 599 q 235 531 300 531 z "},"±":{"ha":685,"x_min":34,"x_max":651,"o":"m 348 198 q 277 209 310 198 q 243 239 245 219 q 252 330 245 294 q 256 368 256 353 q 244 409 256 397 q 203 420 233 420 q 163 415 186 420 q 75 408 129 409 q 45 446 56 410 q 34 521 34 481 q 43 580 34 554 q 72 606 52 606 q 163 598 113 606 q 203 594 186 594 q 244 605 233 594 q 256 646 256 616 q 251 687 256 664 q 243 773 245 721 q 281 803 245 792 q 357 814 317 814 q 416 806 390 814 q 441 777 441 797 q 435 693 441 740 q 430 648 430 669 q 442 605 430 617 q 486 593 454 593 q 526 597 503 593 q 612 606 560 604 q 641 575 631 604 q 651 512 651 547 q 641 441 651 474 q 610 408 630 409 q 522 416 557 409 q 484 420 499 420 q 440 408 452 420 q 429 363 429 396 q 433 324 429 347 q 441 236 440 290 q 412 207 440 216 q 348 198 383 198 m 559 7 l 557 7 q 342 18 457 18 q 126 7 227 18 l 125 7 q 98 37 108 7 q 88 100 88 67 q 96 149 88 127 q 121 170 104 170 l 123 170 q 357 159 231 159 q 558 170 471 159 l 561 170 q 587 146 578 170 q 595 93 595 123 q 586 34 595 62 q 559 7 576 7 z "},"²":{"ha":488,"x_min":33,"x_max":453,"o":"m 218 488 q 109 513 157 488 q 56 584 60 538 q 69 626 56 606 q 102 667 82 647 q 144 704 122 686 q 184 740 165 722 q 214 774 202 757 q 225 810 225 792 q 216 834 225 826 q 195 842 208 842 q 181 837 186 842 q 174 819 176 832 q 153 788 169 798 q 120 777 138 777 q 62 798 92 777 q 33 844 33 819 l 33 850 q 72 922 42 894 q 143 965 102 951 q 228 979 185 979 q 315 964 273 979 q 384 921 357 949 q 412 854 412 893 q 295 663 412 767 q 345 684 328 673 q 391 701 370 701 q 425 688 411 701 q 446 654 439 675 q 453 612 453 633 q 444 561 453 587 q 362 494 421 500 q 218 488 303 488 z "},"³":{"ha":458,"x_min":34,"x_max":425,"o":"m 209 484 q 127 498 167 484 q 60 542 87 513 q 34 614 34 570 l 34 633 q 57 702 34 671 q 109 733 80 733 q 131 727 119 733 q 151 707 142 720 q 217 669 174 669 q 247 686 247 669 q 229 707 247 698 q 173 715 212 715 q 146 727 155 715 q 138 748 138 739 q 145 771 138 759 q 165 784 153 783 q 229 827 229 787 q 224 845 229 840 q 209 850 220 850 q 174 821 184 850 q 149 795 168 804 q 110 786 130 786 q 77 792 94 786 q 49 808 60 798 q 38 833 38 819 q 69 913 38 882 q 145 958 100 944 q 235 972 190 972 q 325 953 286 972 q 385 904 363 934 q 407 842 407 874 q 351 747 407 789 q 408 702 391 729 q 425 646 425 675 q 399 572 425 610 q 325 509 373 534 q 209 484 277 484 z "},"´":{"ha":350,"x_min":34,"x_max":316,"o":"m 101 1043 q 56 1058 77 1043 q 34 1084 34 1073 q 37 1090 34 1088 q 90 1146 68 1116 q 135 1214 113 1177 q 189 1298 157 1251 q 220 1314 203 1314 q 284 1276 252 1314 q 316 1206 316 1238 q 297 1175 316 1185 q 195 1114 240 1147 q 134 1059 151 1080 q 101 1043 120 1043 z "},"µ":{"ha":783,"x_min":34,"x_max":749,"o":"m 204 -239 q 133 -225 165 -239 q 84 -179 100 -211 q 66 -55 66 -140 q 79 152 66 9 q 89 285 84 217 q 94 418 94 353 q 50 677 94 586 q 34 739 34 713 q 57 798 34 775 q 116 830 79 820 q 193 841 153 841 q 275 830 235 841 q 340 799 315 819 q 366 749 366 778 q 364 736 366 743 q 350 645 358 708 q 336 517 342 582 q 330 427 330 452 q 347 371 330 392 q 385 351 363 351 q 430 377 408 351 q 466 458 452 404 q 480 592 480 511 q 456 713 480 660 q 446 755 446 736 q 468 806 446 785 q 524 837 490 827 q 595 847 558 847 q 669 836 634 847 q 727 803 705 825 q 749 747 749 781 q 743 714 749 732 q 710 501 710 613 q 721 365 710 429 q 743 248 731 301 q 745 232 745 240 q 713 166 745 195 q 636 121 682 138 q 549 105 591 105 q 494 116 517 105 q 463 152 470 127 q 443 185 456 173 q 414 197 429 197 q 376 174 393 197 q 359 98 359 151 q 371 6 359 59 q 414 -96 384 -47 q 421 -120 421 -108 q 388 -177 421 -149 q 304 -221 354 -204 q 204 -239 254 -239 z "},"¶":{"ha":1067,"x_min":34,"x_max":1033,"o":"m 774 3 q 707 15 739 3 q 655 49 675 26 q 635 109 635 73 q 641 147 635 126 q 682 352 672 257 q 692 544 692 447 q 690 665 692 602 l 689 747 q 669 781 689 768 q 626 794 649 794 q 589 782 606 794 q 570 742 573 770 l 569 718 q 561 505 561 603 q 571 339 561 422 q 609 154 581 256 q 613 123 613 138 q 588 58 613 85 q 525 17 563 31 q 446 3 486 3 q 378 15 410 3 q 327 49 347 26 q 307 108 307 73 q 313 147 307 126 q 345 286 328 199 q 363 441 363 372 q 324 530 363 530 q 307 526 317 530 q 222 509 261 509 q 121 541 163 509 q 57 623 79 572 q 34 730 34 673 q 50 818 34 774 q 98 896 65 861 q 183 951 131 930 q 307 972 235 972 q 628 971 467 972 q 952 970 789 970 q 999 957 981 970 q 1025 921 1017 943 q 1033 873 1033 899 q 1015 800 1033 834 q 970 766 998 766 q 950 772 961 766 q 900 787 922 787 q 871 778 882 787 q 850 637 850 763 q 874 407 850 520 q 934 168 899 294 l 937 154 q 941 123 941 138 q 917 58 941 85 q 853 17 892 31 q 774 3 814 3 z "},"·":{"ha":345,"x_min":34,"x_max":248,"o":"m 140 400 q 65 425 96 400 q 34 486 34 450 q 65 547 34 522 q 140 572 96 572 q 216 547 184 572 q 248 486 248 522 q 216 425 248 450 q 140 400 184 400 z "},"∙":{"ha":345,"x_min":34,"x_max":248,"o":"m 140 400 q 65 425 96 400 q 34 486 34 450 q 65 547 34 522 q 140 572 96 572 q 216 547 184 572 q 248 486 248 522 q 216 425 248 450 q 140 400 184 400 z "},"¸":{"ha":342,"x_min":34,"x_max":309,"o":"m 162 -232 q 65 -210 113 -232 q 41 -187 49 -201 q 34 -159 34 -173 q 40 -136 34 -145 q 56 -126 46 -126 q 64 -127 60 -126 q 123 -140 100 -140 q 161 -129 149 -140 q 173 -104 173 -117 q 162 -81 173 -92 q 130 -71 151 -71 q 88 -81 112 -71 q 77 -83 83 -83 q 54 -74 66 -83 q 43 -51 43 -66 q 45 -39 43 -45 l 83 85 q 116 100 89 100 q 161 90 138 100 q 184 62 184 79 q 179 49 184 56 l 151 8 q 141 -10 141 -5 q 148 -14 141 -14 l 196 -12 q 256 -27 231 -12 q 295 -65 281 -42 q 309 -114 309 -89 q 262 -203 306 -175 q 162 -232 218 -232 z "},"¹":{"ha":397,"x_min":34,"x_max":363,"o":"m 227 485 q 178 492 202 485 q 138 513 153 498 q 122 548 122 527 q 124 564 122 555 q 150 668 139 619 q 160 764 160 716 q 157 817 160 800 l 155 817 q 113 799 135 799 q 60 825 85 799 q 34 873 34 850 q 41 894 34 884 q 64 910 49 904 q 153 949 113 925 q 190 967 173 960 q 227 974 206 974 q 301 952 267 974 q 336 898 336 930 l 336 888 q 326 778 326 840 q 332 687 326 734 q 355 589 340 634 q 363 559 361 574 q 316 504 359 524 q 227 485 273 485 z "},"º":{"ha":493,"x_min":34,"x_max":459,"o":"m 247 677 q 267 692 257 677 q 276 742 276 707 q 266 802 276 784 q 245 820 256 820 q 225 803 235 820 q 216 743 216 786 q 226 692 216 707 q 247 677 236 677 m 247 484 q 126 518 174 484 q 57 605 79 552 q 34 716 34 659 q 59 836 34 777 q 131 933 83 895 q 246 972 178 972 q 362 934 315 972 q 434 838 410 896 q 459 718 459 779 q 436 607 459 661 q 366 518 413 553 q 247 484 319 484 z "},"»":{"ha":861,"x_min":34,"x_max":827,"o":"m 165 173 q 112 195 142 173 q 57 247 81 217 q 34 300 34 277 q 44 321 34 313 q 174 429 79 348 q 216 486 216 461 q 203 515 216 500 q 164 551 190 530 l 123 588 q 82 625 102 607 q 50 653 61 644 q 39 675 39 663 q 63 728 39 699 q 120 778 88 757 q 174 799 152 799 q 191 791 184 799 q 232 749 197 784 q 310 671 266 714 q 393 596 355 628 q 456 494 456 544 q 378 374 456 440 q 286 290 345 347 q 184 181 226 233 q 165 173 176 173 m 536 173 q 483 195 514 173 q 429 247 452 217 q 406 300 406 277 q 416 321 406 313 q 545 429 450 348 q 587 486 587 461 q 574 515 587 500 q 536 551 561 530 l 494 588 q 453 625 473 607 q 421 653 433 644 q 410 675 410 663 q 435 728 410 699 q 492 778 460 757 q 545 799 524 799 q 563 791 556 799 q 603 749 569 784 q 682 671 637 714 q 764 596 726 628 q 827 494 827 544 q 750 374 827 440 q 657 290 717 347 q 555 181 597 233 q 536 173 548 173 z "},"¼":{"ha":1065,"x_min":68,"x_max":998,"o":"m 261 485 q 212 492 236 485 q 172 513 187 498 q 156 548 156 527 q 158 564 156 555 q 183 668 173 619 q 194 764 194 716 q 191 817 194 800 l 189 817 q 146 799 169 799 q 94 825 119 799 q 68 873 68 850 q 75 894 68 884 q 98 910 83 904 q 187 949 146 925 q 223 967 207 960 q 261 974 240 974 q 335 952 300 974 q 370 898 370 930 l 370 888 q 360 778 360 840 q 366 687 360 734 q 389 589 374 634 q 397 559 395 574 q 350 504 393 524 q 261 485 307 485 m 391 10 q 297 32 345 10 q 217 91 250 54 q 184 169 184 127 q 207 231 184 203 q 295 345 250 289 q 457 567 384 454 q 559 810 530 680 l 570 871 q 616 937 580 917 q 696 957 652 957 q 779 942 739 957 q 847 899 820 926 q 873 838 873 872 q 841 766 873 804 q 517 172 582 486 q 511 133 513 149 q 505 98 509 118 q 464 31 495 52 q 391 10 432 10 m 752 270 q 785 301 777 270 q 791 334 791 326 l 791 338 q 753 295 778 334 q 746 276 746 284 q 747 271 746 271 q 752 270 747 270 m 854 0 q 805 7 829 0 q 766 28 781 14 q 750 63 750 42 q 754 83 750 72 q 771 155 771 136 q 762 179 771 172 q 721 185 752 185 q 642 179 692 185 l 632 178 q 605 187 616 178 q 589 209 594 196 q 584 236 584 222 q 594 279 584 258 q 746 463 624 342 q 787 481 759 475 q 846 487 814 487 q 914 479 879 487 q 974 454 949 471 q 998 410 998 437 q 994 391 998 402 q 963 220 963 302 q 981 87 963 157 q 982 75 982 80 q 962 34 982 50 q 912 9 942 18 q 854 0 883 0 z "},"½":{"ha":1109,"x_min":68,"x_max":1042,"o":"m 261 485 q 212 492 236 485 q 172 513 187 498 q 156 548 156 527 q 158 564 156 555 q 183 668 173 619 q 194 764 194 716 q 191 817 194 800 l 189 817 q 146 799 169 799 q 94 825 119 799 q 68 873 68 850 q 75 894 68 884 q 98 910 83 904 q 187 949 146 925 q 223 967 207 960 q 261 974 240 974 q 335 952 300 974 q 370 898 370 930 l 370 888 q 360 778 360 840 q 366 687 360 734 q 389 589 374 634 q 397 559 395 574 q 350 504 393 524 q 261 485 307 485 m 394 10 q 300 32 347 10 q 220 91 252 54 q 187 169 187 127 q 210 231 187 203 q 298 345 253 289 q 460 567 387 454 q 562 810 533 680 l 572 871 q 618 937 583 917 q 699 957 654 957 q 782 942 741 957 q 849 899 823 926 q 876 838 876 872 q 844 766 876 804 q 520 172 585 486 q 513 133 515 149 q 508 98 511 118 q 466 31 498 52 q 394 10 435 10 m 807 0 q 698 25 747 0 q 646 96 649 50 q 659 139 646 118 q 691 179 671 159 q 733 217 711 199 q 773 252 755 235 q 803 287 791 269 q 814 323 814 304 q 806 346 814 338 q 785 354 797 354 q 770 349 775 354 q 763 332 765 345 q 743 300 758 311 q 709 290 727 290 q 651 311 681 290 q 622 357 622 332 l 622 363 q 661 435 631 406 q 733 477 691 463 q 817 491 774 491 q 904 476 862 491 q 974 433 946 461 q 1001 366 1001 406 q 884 175 1001 279 q 934 197 917 186 q 980 214 960 214 q 1014 200 1000 214 q 1035 166 1028 187 q 1042 125 1042 146 q 1033 73 1042 100 q 951 6 1010 12 q 807 0 892 0 z "},"¾":{"ha":1109,"x_min":68,"x_max":1041,"o":"m 243 484 q 161 498 201 484 q 94 542 121 513 q 68 614 68 570 l 68 633 q 91 702 68 671 q 142 733 114 733 q 165 727 153 733 q 184 707 176 720 q 251 669 208 669 q 281 686 281 669 q 263 707 281 698 q 207 715 245 715 q 180 727 189 715 q 172 748 172 739 q 179 771 172 759 q 199 784 186 783 q 263 827 263 787 q 258 845 263 840 q 243 850 254 850 q 208 821 218 850 q 183 795 202 804 q 144 786 163 786 q 111 792 127 786 q 83 808 94 798 q 72 833 72 819 q 103 913 72 882 q 179 958 134 944 q 269 972 224 972 q 359 953 320 972 q 419 904 397 934 q 441 842 441 874 q 385 747 441 789 q 441 702 425 729 q 458 646 458 675 q 433 572 458 610 q 359 509 407 534 q 243 484 311 484 m 429 10 q 335 32 382 10 q 255 91 288 54 q 222 169 222 127 q 245 231 222 203 q 333 345 288 289 q 495 567 422 454 q 597 810 568 680 l 608 871 q 654 937 618 917 q 734 957 690 957 q 817 942 777 957 q 885 899 858 926 q 911 838 911 872 q 879 766 911 804 q 555 172 620 486 q 549 133 551 149 q 543 98 547 118 q 502 31 533 52 q 429 10 470 10 m 795 270 q 829 301 820 270 q 835 334 835 326 l 835 338 q 796 295 821 334 q 789 276 789 284 q 790 271 789 271 q 795 270 791 270 m 898 0 q 849 7 873 0 q 809 28 825 14 q 793 63 793 42 q 798 83 793 72 q 814 155 814 136 q 805 179 814 172 q 764 185 795 185 q 685 179 736 185 l 675 178 q 648 187 659 178 q 632 209 637 196 q 627 236 627 222 q 637 279 627 258 q 789 463 667 342 q 830 481 802 475 q 889 487 858 487 q 958 479 922 487 q 1017 454 993 471 q 1041 410 1041 437 q 1037 391 1041 402 q 1006 220 1006 302 q 1024 87 1006 157 q 1025 75 1025 80 q 1005 34 1025 50 q 956 9 985 18 q 898 0 926 0 z "},"¿":{"ha":741,"x_min":34,"x_max":707,"o":"m 355 437 q 271 449 311 437 q 206 484 231 460 q 180 543 180 507 q 206 602 180 578 q 271 638 231 626 q 355 650 311 650 q 438 638 398 650 q 504 602 478 626 q 529 543 529 578 q 504 484 529 507 q 438 449 478 460 q 355 437 398 437 m 375 -321 q 250 -306 311 -321 q 141 -259 189 -290 q 63 -182 92 -228 q 34 -78 34 -137 q 54 1 34 -41 q 102 85 73 43 q 161 168 131 127 q 222 253 197 214 q 247 317 247 292 q 264 352 247 338 q 309 375 281 367 q 364 382 336 382 q 433 367 402 382 q 469 320 464 352 l 469 301 q 458 240 469 268 q 431 189 448 213 q 395 141 414 164 q 349 75 369 109 q 329 2 329 42 q 340 -52 329 -31 q 370 -83 352 -73 q 408 -93 389 -93 q 459 -73 436 -93 q 485 -15 481 -54 q 508 33 487 18 q 557 48 528 48 q 624 33 589 48 q 683 -9 659 17 q 707 -68 707 -35 q 654 -212 704 -155 q 529 -295 605 -268 q 375 -321 453 -321 z "},"À":{"ha":854,"x_min":4,"x_max":840,"o":"m 676 1 q 570 17 623 1 q 484 64 518 33 q 449 137 449 94 q 452 163 449 149 q 464 205 458 185 q 485 305 479 258 l 486 317 q 467 345 486 336 q 426 355 448 355 q 381 344 402 355 q 359 313 359 333 q 382 202 363 258 l 393 163 q 396 138 396 150 q 361 64 396 94 q 275 17 327 33 q 169 1 222 1 q 88 12 125 1 q 27 46 50 23 q 4 106 4 70 q 9 138 4 121 q 104 560 75 395 q 150 762 127 682 q 207 889 172 843 q 299 951 241 930 q 420 972 357 972 q 550 949 489 972 q 644 880 611 926 q 696 755 676 833 q 739 562 717 677 q 836 138 769 396 q 840 106 840 120 q 817 46 840 70 q 757 12 794 23 q 676 1 720 1 m 422 536 q 469 545 448 536 q 491 576 491 555 q 490 585 491 580 q 459 670 478 631 q 422 708 440 708 q 382 667 405 708 q 353 577 359 625 l 352 569 q 374 544 352 553 q 422 536 397 536 m 448 1043 q 414 1059 429 1043 q 353 1114 398 1080 q 252 1175 309 1147 q 233 1206 233 1185 q 266 1276 233 1238 q 329 1314 298 1314 q 359 1298 347 1314 q 414 1214 392 1251 q 459 1146 437 1177 q 512 1090 481 1116 q 515 1084 515 1088 q 493 1058 515 1073 q 448 1043 471 1043 z "},"Á":{"ha":854,"x_min":4,"x_max":840,"o":"m 676 1 q 570 17 623 1 q 484 64 518 33 q 449 137 449 94 q 452 163 449 149 q 464 205 458 185 q 485 305 479 258 l 486 317 q 467 345 486 336 q 426 355 448 355 q 381 344 402 355 q 359 313 359 333 q 382 202 363 258 l 393 163 q 396 138 396 150 q 361 64 396 94 q 275 17 327 33 q 169 1 222 1 q 88 12 125 1 q 27 46 50 23 q 4 106 4 70 q 9 138 4 121 q 104 560 75 395 q 150 762 127 682 q 207 889 172 843 q 299 951 241 930 q 420 972 357 972 q 550 949 489 972 q 644 880 611 926 q 696 755 676 833 q 739 562 717 677 q 836 138 769 396 q 840 106 840 120 q 817 46 840 70 q 757 12 794 23 q 676 1 720 1 m 422 536 q 469 545 448 536 q 491 576 491 555 q 490 585 491 580 q 459 670 478 631 q 422 708 440 708 q 382 667 405 708 q 353 577 359 625 l 352 569 q 374 544 352 553 q 422 536 397 536 m 395 1043 q 349 1058 371 1043 q 328 1084 328 1073 q 330 1090 328 1088 q 384 1146 361 1116 q 429 1214 406 1177 q 483 1298 451 1251 q 513 1314 496 1314 q 577 1276 545 1314 q 610 1206 610 1238 q 591 1175 610 1185 q 489 1114 534 1147 q 428 1059 444 1080 q 395 1043 414 1043 z "},"Â":{"ha":854,"x_min":4,"x_max":840,"o":"m 676 1 q 570 17 623 1 q 484 64 518 33 q 449 137 449 94 q 452 163 449 149 q 464 205 458 185 q 485 305 479 258 l 486 317 q 467 345 486 336 q 426 355 448 355 q 381 344 402 355 q 359 313 359 333 q 382 202 363 258 l 393 163 q 396 138 396 150 q 361 64 396 94 q 275 17 327 33 q 169 1 222 1 q 88 12 125 1 q 27 46 50 23 q 4 106 4 70 q 9 138 4 121 q 104 560 75 395 q 150 762 127 682 q 207 889 172 843 q 299 951 241 930 q 420 972 357 972 q 550 949 489 972 q 644 880 611 926 q 696 755 676 833 q 739 562 717 677 q 836 138 769 396 q 840 106 840 120 q 817 46 840 70 q 757 12 794 23 q 676 1 720 1 m 422 536 q 469 545 448 536 q 491 576 491 555 q 490 585 491 580 q 459 670 478 631 q 422 708 440 708 q 382 667 405 708 q 353 577 359 625 l 352 569 q 374 544 352 553 q 422 536 397 536 m 527 1042 q 496 1057 509 1042 q 439 1145 453 1118 q 420 1170 427 1170 q 403 1147 414 1170 q 346 1057 389 1118 q 315 1042 333 1042 q 260 1066 288 1042 q 233 1111 233 1089 q 243 1130 233 1122 q 290 1171 262 1144 q 343 1222 319 1197 q 376 1258 368 1248 q 394 1268 381 1265 q 421 1272 406 1272 q 448 1268 435 1272 q 467 1258 461 1265 q 499 1223 475 1248 q 552 1171 524 1198 q 599 1130 580 1144 q 609 1111 609 1122 q 582 1066 609 1089 q 527 1042 554 1042 z "},"Ã":{"ha":854,"x_min":4,"x_max":840,"o":"m 676 1 q 570 17 623 1 q 484 64 518 33 q 449 137 449 94 q 452 163 449 149 q 464 205 458 185 q 485 305 479 258 l 486 317 q 467 345 486 336 q 426 355 448 355 q 381 344 402 355 q 359 313 359 333 q 382 202 363 258 l 393 163 q 396 138 396 150 q 361 64 396 94 q 275 17 327 33 q 169 1 222 1 q 88 12 125 1 q 27 46 50 23 q 4 106 4 70 q 9 138 4 121 q 104 560 75 395 q 150 762 127 682 q 207 889 172 843 q 299 951 241 930 q 420 972 357 972 q 550 949 489 972 q 644 880 611 926 q 696 755 676 833 q 739 562 717 677 q 836 138 769 396 q 840 106 840 120 q 817 46 840 70 q 757 12 794 23 q 676 1 720 1 m 422 536 q 469 545 448 536 q 491 576 491 555 q 490 585 491 580 q 459 670 478 631 q 422 708 440 708 q 382 667 405 708 q 353 577 359 625 l 352 569 q 374 544 352 553 q 422 536 397 536 m 484 1042 q 435 1056 451 1042 q 406 1087 418 1069 q 382 1114 395 1101 q 359 1124 372 1124 q 331 1076 331 1124 l 331 1072 q 315 1050 331 1056 q 284 1044 300 1044 q 265 1046 276 1044 q 245 1053 254 1048 q 237 1067 237 1058 q 247 1137 237 1101 q 282 1197 256 1173 q 358 1221 309 1221 q 413 1208 393 1221 q 450 1170 434 1195 q 495 1140 472 1140 q 513 1147 505 1140 q 524 1168 521 1154 q 527 1194 527 1181 q 540 1213 527 1207 q 567 1219 553 1219 q 594 1213 582 1219 q 606 1193 606 1207 q 595 1124 606 1158 q 558 1066 585 1089 q 484 1042 532 1042 z "},"Ä":{"ha":854,"x_min":4,"x_max":840,"o":"m 676 1 q 570 17 623 1 q 484 64 518 33 q 449 137 449 94 q 452 163 449 149 q 464 205 458 185 q 485 305 479 258 l 486 317 q 467 345 486 336 q 426 355 448 355 q 381 344 402 355 q 359 313 359 333 q 382 202 363 258 l 393 163 q 396 138 396 150 q 361 64 396 94 q 275 17 327 33 q 169 1 222 1 q 88 12 125 1 q 27 46 50 23 q 4 106 4 70 q 9 138 4 121 q 104 560 75 395 q 150 762 127 682 q 207 889 172 843 q 299 951 241 930 q 420 972 357 972 q 550 949 489 972 q 644 880 611 926 q 696 755 676 833 q 739 562 717 677 q 836 138 769 396 q 840 106 840 120 q 817 46 840 70 q 757 12 794 23 q 676 1 720 1 m 422 536 q 469 545 448 536 q 491 576 491 555 q 490 585 491 580 q 459 670 478 631 q 422 708 440 708 q 382 667 405 708 q 353 577 359 625 l 352 569 q 374 544 352 553 q 422 536 397 536 m 306 1042 q 232 1070 262 1042 q 201 1136 201 1097 q 232 1202 201 1175 q 306 1230 262 1230 q 380 1202 349 1230 q 410 1136 410 1175 q 380 1070 410 1097 q 306 1042 349 1042 m 536 1042 q 463 1070 493 1042 q 432 1136 432 1097 q 463 1202 432 1175 q 536 1230 493 1230 q 611 1202 580 1230 q 642 1136 642 1175 q 611 1070 642 1097 q 536 1042 580 1042 z "},"Å":{"ha":854,"x_min":4,"x_max":840,"o":"m 676 1 q 570 17 623 1 q 484 64 518 33 q 449 137 449 94 q 452 163 449 149 q 464 205 458 185 q 485 305 479 258 l 486 317 q 467 345 486 336 q 426 355 448 355 q 381 344 402 355 q 359 313 359 333 q 382 202 363 258 l 393 163 q 396 138 396 150 q 361 64 396 94 q 275 17 327 33 q 169 1 222 1 q 88 12 125 1 q 27 46 50 23 q 4 106 4 70 q 9 138 4 121 q 104 560 75 395 q 150 762 127 682 q 207 889 172 843 q 299 951 241 930 q 420 972 357 972 q 550 949 489 972 q 644 880 611 926 q 696 755 676 833 q 739 562 717 677 q 836 138 769 396 q 840 106 840 120 q 817 46 840 70 q 757 12 794 23 q 676 1 720 1 m 422 536 q 469 545 448 536 q 491 576 491 555 q 490 585 491 580 q 459 670 478 631 q 422 708 440 708 q 382 667 405 708 q 353 577 359 625 l 352 569 q 374 544 352 553 q 422 536 397 536 m 420 1118 q 441 1131 432 1118 q 451 1169 451 1144 q 442 1202 451 1191 q 422 1213 433 1213 q 401 1202 410 1213 q 392 1168 392 1191 q 401 1130 392 1143 q 420 1118 410 1118 m 421 1042 q 349 1063 378 1042 q 304 1117 319 1084 q 288 1183 288 1149 q 302 1245 288 1216 q 346 1293 317 1275 q 422 1312 376 1312 q 496 1293 467 1312 q 540 1245 526 1274 q 554 1183 554 1215 q 539 1116 554 1148 q 494 1063 524 1084 q 421 1042 465 1042 z "},"Æ":{"ha":1194,"x_min":4,"x_max":1263,"o":"m 422 536 q 469 545 448 536 q 491 576 491 555 q 490 585 491 580 q 459 670 478 631 q 422 708 440 708 q 382 667 405 708 q 353 577 359 625 q 352 574 353 574 l 352 569 q 374 544 352 553 q 422 536 397 536 m 1000 1 q 928 5 964 1 q 877 7 901 7 q 820 4 840 7 q 777 1 799 1 l 676 1 q 570 17 623 1 q 484 64 518 33 q 449 137 449 94 q 464 205 449 156 q 485 318 485 277 q 466 345 485 336 q 426 355 448 355 q 381 344 402 355 q 361 315 361 334 q 381 202 361 267 q 396 138 396 154 q 361 64 396 94 q 275 17 327 33 q 169 1 222 1 q 88 12 125 1 q 27 46 50 23 q 4 106 4 70 q 8 138 4 121 q 105 560 75 395 q 150 762 127 682 q 208 888 172 843 q 299 951 241 930 q 420 972 357 972 q 550 949 489 972 q 619 907 591 933 q 632 929 624 920 q 753 974 671 974 q 792 970 774 974 q 840 966 810 966 q 898 970 867 966 q 977 975 937 975 q 1222 929 1192 975 q 1237 878 1237 907 q 1201 771 1237 825 q 1131 718 1166 718 q 1104 730 1116 718 q 1070 752 1092 743 q 1025 762 1048 762 q 998 760 1012 762 q 933 731 959 758 q 908 678 908 704 q 922 649 908 661 q 970 636 937 636 q 1013 641 989 636 q 1060 645 1036 645 q 1093 608 1080 645 q 1105 528 1105 570 q 1094 462 1105 492 q 1059 433 1083 433 q 1027 434 1045 433 q 974 435 1003 435 q 944 424 953 435 q 935 397 935 412 q 951 350 935 374 q 995 327 967 327 q 1140 373 1097 330 q 1159 382 1149 382 q 1205 343 1181 382 q 1246 247 1230 304 q 1263 136 1263 189 q 1196 19 1263 33 q 1000 1 1108 1 z "},"Ç":{"ha":759,"x_min":23,"x_max":732,"o":"m 452 -259 q 355 -237 403 -259 q 324 -186 324 -220 q 330 -163 324 -172 q 347 -153 336 -153 q 355 -155 351 -153 q 413 -168 390 -168 q 451 -156 439 -168 q 463 -132 463 -144 q 452 -108 463 -119 q 420 -98 441 -98 q 378 -108 402 -98 q 368 -110 374 -110 q 345 -101 356 -110 q 333 -78 333 -93 q 356 2 333 -73 q 230 44 286 8 q 116 160 162 87 q 46 322 70 233 q 23 506 23 412 q 45 678 23 595 q 111 827 66 762 q 224 932 156 893 q 385 972 292 972 q 517 948 452 972 q 628 872 581 925 q 691 732 675 819 q 692 721 692 727 q 669 665 692 692 q 614 621 647 638 q 549 604 581 604 q 502 620 522 604 q 475 672 481 636 q 453 720 469 703 q 417 737 437 737 q 343 692 366 734 q 320 588 320 650 q 333 494 320 541 q 366 417 345 448 q 413 387 387 387 q 524 473 467 390 q 591 514 554 514 q 659 481 627 514 q 712 398 691 449 q 732 294 732 348 q 721 224 732 258 q 590 59 682 117 q 459 7 529 20 q 441 -19 450 -5 q 431 -37 431 -32 q 438 -41 431 -41 l 486 -39 q 547 -54 522 -39 q 585 -93 572 -69 q 599 -141 599 -116 q 552 -231 596 -202 q 452 -259 509 -259 z "},"È":{"ha":718,"x_min":38,"x_max":688,"o":"m 426 1 q 356 4 390 1 q 293 8 321 8 q 245 4 266 7 q 202 1 224 1 q 122 12 159 1 q 62 46 85 23 q 39 106 39 70 q 43 138 39 120 q 93 486 93 317 q 43 835 93 655 q 38 871 38 854 q 58 929 38 906 q 110 963 77 951 q 178 974 142 974 q 218 970 201 974 q 258 965 235 966 q 323 970 288 965 q 402 975 362 975 q 648 929 618 975 q 663 878 663 907 q 627 771 663 825 q 557 718 592 718 q 530 730 542 718 q 496 753 518 743 q 447 762 473 762 l 424 762 q 359 731 385 758 q 334 678 334 704 q 348 649 334 661 q 396 636 363 636 q 438 641 416 636 q 486 645 461 645 q 519 608 507 645 q 531 528 531 570 q 520 462 531 492 q 484 433 509 433 q 453 434 471 433 q 399 435 429 435 q 369 424 378 435 q 360 397 360 412 q 377 350 360 374 q 421 326 393 326 q 566 373 524 330 q 585 382 574 382 q 631 343 608 382 q 672 247 655 304 q 688 136 688 189 q 673 58 688 91 q 622 16 658 25 q 426 1 534 1 m 390 1043 q 357 1059 371 1043 q 296 1114 340 1080 q 194 1175 251 1147 q 176 1206 176 1185 q 208 1276 176 1238 q 271 1314 240 1314 q 302 1298 289 1314 q 357 1214 334 1251 q 401 1146 379 1177 q 454 1090 423 1116 q 458 1084 458 1088 q 436 1058 458 1073 q 390 1043 414 1043 z "},"É":{"ha":718,"x_min":38,"x_max":688,"o":"m 426 1 q 356 4 390 1 q 293 8 321 8 q 245 4 266 7 q 202 1 224 1 q 122 12 159 1 q 62 46 85 23 q 39 106 39 70 q 43 138 39 120 q 93 486 93 317 q 43 835 93 655 q 38 871 38 854 q 58 929 38 906 q 110 963 77 951 q 178 974 142 974 q 218 970 201 974 q 258 965 235 966 q 323 970 288 965 q 402 975 362 975 q 648 929 618 975 q 663 878 663 907 q 627 771 663 825 q 557 718 592 718 q 530 730 542 718 q 496 753 518 743 q 447 762 473 762 l 424 762 q 359 731 385 758 q 334 678 334 704 q 348 649 334 661 q 396 636 363 636 q 438 641 416 636 q 486 645 461 645 q 519 608 507 645 q 531 528 531 570 q 520 462 531 492 q 484 433 509 433 q 453 434 471 433 q 399 435 429 435 q 369 424 378 435 q 360 397 360 412 q 377 350 360 374 q 421 326 393 326 q 566 373 524 330 q 585 382 574 382 q 631 343 608 382 q 672 247 655 304 q 688 136 688 189 q 673 58 688 91 q 622 16 658 25 q 426 1 534 1 m 337 1043 q 292 1058 313 1043 q 270 1084 270 1073 q 273 1090 270 1088 q 326 1146 304 1116 q 371 1214 349 1177 q 425 1298 393 1251 q 456 1314 439 1314 q 520 1276 488 1314 q 552 1206 552 1238 q 533 1175 552 1185 q 431 1114 476 1147 q 370 1059 387 1080 q 337 1043 356 1043 z "},"Ê":{"ha":718,"x_min":38,"x_max":688,"o":"m 426 1 q 356 4 390 1 q 293 8 321 8 q 245 4 266 7 q 202 1 224 1 q 122 12 159 1 q 62 46 85 23 q 39 106 39 70 q 43 138 39 120 q 93 486 93 317 q 43 835 93 655 q 38 871 38 854 q 58 929 38 906 q 110 963 77 951 q 178 974 142 974 q 218 970 201 974 q 258 965 235 966 q 323 970 288 965 q 402 975 362 975 q 648 929 618 975 q 663 878 663 907 q 627 771 663 825 q 557 718 592 718 q 530 730 542 718 q 496 753 518 743 q 447 762 473 762 l 424 762 q 359 731 385 758 q 334 678 334 704 q 348 649 334 661 q 396 636 363 636 q 438 641 416 636 q 486 645 461 645 q 519 608 507 645 q 531 528 531 570 q 520 462 531 492 q 484 433 509 433 q 453 434 471 433 q 399 435 429 435 q 369 424 378 435 q 360 397 360 412 q 377 350 360 374 q 421 326 393 326 q 566 373 524 330 q 585 382 574 382 q 631 343 608 382 q 672 247 655 304 q 688 136 688 189 q 673 58 688 91 q 622 16 658 25 q 426 1 534 1 m 469 1042 q 439 1057 452 1042 q 381 1145 395 1118 q 362 1170 369 1170 q 345 1147 356 1170 q 288 1057 332 1118 q 258 1042 275 1042 q 203 1066 231 1042 q 175 1111 175 1089 q 185 1130 175 1122 q 233 1171 204 1144 q 286 1222 261 1197 q 318 1258 310 1248 q 336 1268 323 1265 q 363 1272 349 1272 q 391 1268 378 1272 q 409 1258 404 1265 q 441 1223 417 1248 q 494 1171 466 1198 q 541 1130 522 1144 q 551 1111 551 1122 q 524 1066 551 1089 q 469 1042 496 1042 z "},"Ë":{"ha":718,"x_min":38,"x_max":688,"o":"m 426 1 q 356 4 390 1 q 293 8 321 8 q 245 4 266 7 q 202 1 224 1 q 122 12 159 1 q 62 46 85 23 q 39 106 39 70 q 43 138 39 120 q 93 486 93 317 q 43 835 93 655 q 38 871 38 854 q 58 929 38 906 q 110 963 77 951 q 178 974 142 974 q 218 970 201 974 q 258 965 235 966 q 323 970 288 965 q 402 975 362 975 q 648 929 618 975 q 663 878 663 907 q 627 771 663 825 q 557 718 592 718 q 530 730 542 718 q 496 753 518 743 q 447 762 473 762 l 424 762 q 359 731 385 758 q 334 678 334 704 q 348 649 334 661 q 396 636 363 636 q 438 641 416 636 q 486 645 461 645 q 519 608 507 645 q 531 528 531 570 q 520 462 531 492 q 484 433 509 433 q 453 434 471 433 q 399 435 429 435 q 369 424 378 435 q 360 397 360 412 q 377 350 360 374 q 421 326 393 326 q 566 373 524 330 q 585 382 574 382 q 631 343 608 382 q 672 247 655 304 q 688 136 688 189 q 673 58 688 91 q 622 16 658 25 q 426 1 534 1 m 248 1042 q 174 1070 205 1042 q 143 1136 143 1097 q 174 1202 143 1175 q 248 1230 205 1230 q 322 1202 292 1230 q 353 1136 353 1175 q 322 1070 353 1097 q 248 1042 292 1042 m 479 1042 q 405 1070 435 1042 q 374 1136 374 1097 q 405 1202 374 1175 q 479 1230 435 1230 q 553 1202 522 1230 q 584 1136 584 1175 q 553 1070 584 1097 q 479 1042 522 1042 z "},"Ì":{"ha":450,"x_min":33,"x_max":408,"o":"m 201 1 q 120 13 158 1 q 58 48 82 24 q 34 109 34 73 q 40 146 34 126 q 90 482 90 317 q 47 847 90 640 q 43 875 43 862 q 69 936 43 915 q 134 964 95 956 q 217 972 174 972 q 300 964 260 972 q 365 939 340 957 q 390 887 390 920 q 385 858 390 873 q 349 592 349 732 q 366 374 349 483 q 406 153 383 265 q 408 132 408 142 q 377 60 408 89 q 299 16 347 31 q 201 1 252 1 m 248 1043 q 214 1059 229 1043 q 153 1114 198 1080 q 52 1175 109 1147 q 33 1206 33 1185 q 65 1276 33 1238 q 129 1314 98 1314 q 159 1298 146 1314 q 214 1214 192 1251 q 259 1146 237 1177 q 312 1090 281 1116 q 315 1084 315 1088 q 293 1058 315 1073 q 248 1043 271 1043 z "},"Í":{"ha":450,"x_min":34,"x_max":410,"o":"m 201 1 q 120 13 158 1 q 58 48 82 24 q 34 109 34 73 q 40 146 34 126 q 90 482 90 317 q 47 847 90 640 q 43 875 43 862 q 69 936 43 915 q 134 964 95 956 q 217 972 174 972 q 300 964 260 972 q 365 939 340 957 q 390 887 390 920 q 385 858 390 873 q 349 592 349 732 q 366 374 349 483 q 406 153 383 265 q 408 132 408 142 q 377 60 408 89 q 299 16 347 31 q 201 1 252 1 m 195 1043 q 149 1058 171 1043 q 127 1084 127 1073 q 130 1090 127 1088 q 184 1146 161 1116 q 229 1214 206 1177 q 283 1298 251 1251 q 313 1314 296 1314 q 377 1276 345 1314 q 410 1206 410 1238 q 391 1175 410 1185 q 289 1114 334 1147 q 228 1059 244 1080 q 195 1043 214 1043 z "},"Î":{"ha":450,"x_min":33,"x_max":409,"o":"m 201 1 q 120 13 158 1 q 58 48 82 24 q 34 109 34 73 q 40 146 34 126 q 90 482 90 317 q 47 847 90 640 q 43 875 43 862 q 69 936 43 915 q 134 964 95 956 q 217 972 174 972 q 300 964 260 972 q 365 939 340 957 q 390 887 390 920 q 385 858 390 873 q 349 592 349 732 q 366 374 349 483 q 406 153 383 265 q 408 132 408 142 q 377 60 408 89 q 299 16 347 31 q 201 1 252 1 m 327 1042 q 296 1057 309 1042 q 239 1145 253 1118 q 220 1170 227 1170 q 203 1147 214 1170 q 146 1057 189 1118 q 115 1042 133 1042 q 60 1066 88 1042 q 33 1111 33 1089 q 43 1130 33 1122 q 90 1171 62 1144 q 143 1222 119 1197 q 176 1258 168 1248 q 194 1268 181 1265 q 221 1272 206 1272 q 248 1268 235 1272 q 267 1258 261 1265 q 299 1223 275 1248 q 352 1171 323 1198 q 399 1130 380 1144 q 409 1111 409 1122 q 381 1066 409 1089 q 327 1042 354 1042 z "},"Ï":{"ha":450,"x_min":1,"x_max":441,"o":"m 201 1 q 120 13 158 1 q 58 48 82 24 q 34 109 34 73 q 40 146 34 126 q 90 482 90 317 q 47 847 90 640 q 43 875 43 862 q 69 936 43 915 q 134 964 95 956 q 217 972 174 972 q 300 964 260 972 q 365 939 340 957 q 390 887 390 920 q 385 858 390 873 q 349 592 349 732 q 366 374 349 483 q 406 153 383 265 q 408 132 408 142 q 377 60 408 89 q 299 16 347 31 q 201 1 252 1 m 106 1042 q 32 1070 62 1042 q 1 1136 1 1097 q 32 1202 1 1175 q 106 1230 62 1230 q 180 1202 149 1230 q 210 1136 210 1175 q 180 1070 210 1097 q 106 1042 149 1042 m 336 1042 q 262 1070 293 1042 q 232 1136 232 1097 q 262 1202 232 1175 q 336 1230 293 1230 q 411 1202 380 1230 q 441 1136 441 1175 q 411 1070 441 1097 q 336 1042 380 1042 z "},"Ð":{"ha":759,"x_min":-52,"x_max":728,"o":"m 305 1 q 288 4 296 1 q 271 8 280 8 q 241 5 258 8 q 201 1 222 1 q 121 12 157 1 q 61 46 84 23 q 39 106 39 69 q 43 138 39 121 q 93 486 93 317 l 92 514 q -17 507 28 507 q -42 533 -33 507 q -52 597 -52 560 q -45 645 -52 624 q -22 667 -38 667 q 80 661 16 667 q 43 835 68 747 q 39 870 39 854 q 58 928 39 905 q 109 962 77 951 q 176 973 140 973 q 250 962 213 973 q 256 964 252 962 q 263 966 259 966 q 345 973 307 973 q 515 936 443 973 q 634 834 587 898 q 705 689 682 770 q 728 522 728 608 q 701 333 728 426 q 620 166 673 241 q 487 46 566 91 q 305 1 408 1 m 390 441 q 452 494 430 445 q 475 600 475 543 q 466 665 475 634 q 439 714 458 695 q 393 733 421 733 q 346 664 357 732 q 402 667 376 666 q 424 644 417 667 q 431 593 431 621 q 422 534 431 562 q 399 507 414 507 q 350 508 375 507 q 390 441 363 441 z "},"Ñ":{"ha":922,"x_min":24,"x_max":884,"o":"m 713 1 q 631 12 671 1 q 563 53 591 24 q 527 132 535 81 q 454 401 503 280 q 376 522 406 522 q 357 454 358 522 q 397 153 357 369 q 399 132 399 142 q 368 60 399 90 q 289 16 336 31 q 191 1 241 1 q 110 13 148 1 q 48 48 72 24 q 24 109 24 73 q 30 146 24 126 q 96 550 96 351 q 64 842 96 691 q 61 865 61 854 q 84 924 61 901 q 144 960 108 948 q 220 972 180 972 q 301 956 262 972 q 361 905 340 939 q 454 738 409 825 q 522 613 492 665 q 566 562 551 562 q 575 592 574 562 q 536 842 575 650 q 533 867 533 855 q 554 926 533 903 q 610 961 576 949 q 682 972 644 972 q 764 959 724 972 q 828 920 803 946 q 854 857 854 895 q 849 826 854 842 q 816 591 816 713 q 831 408 816 499 q 865 220 846 316 l 882 139 q 884 114 884 125 q 860 48 884 73 q 796 12 835 24 q 713 1 757 1 m 517 1042 q 468 1056 484 1042 q 439 1087 452 1069 q 415 1114 429 1101 q 392 1124 405 1124 q 364 1076 364 1124 l 364 1072 q 349 1050 364 1056 q 317 1044 333 1044 q 298 1046 309 1044 q 278 1053 287 1048 q 270 1067 270 1058 q 280 1137 270 1101 q 316 1197 290 1173 q 391 1221 342 1221 q 447 1208 426 1221 q 484 1170 467 1195 q 528 1140 505 1140 q 546 1147 538 1140 q 557 1168 554 1154 q 560 1194 560 1181 q 573 1213 560 1207 q 600 1219 587 1219 q 627 1213 615 1219 q 639 1193 639 1207 q 628 1124 639 1158 q 591 1066 618 1089 q 517 1042 565 1042 z "},"Ò":{"ha":816,"x_min":19,"x_max":782,"o":"m 399 404 q 446 431 427 404 q 475 500 465 458 q 485 587 485 543 q 476 667 485 629 q 449 727 467 704 q 402 751 431 751 q 354 726 373 751 q 326 663 335 702 q 317 581 317 624 q 337 461 317 515 q 397 404 358 407 l 399 404 m 401 1 q 238 45 309 1 q 118 163 167 90 q 44 329 69 237 q 19 517 19 421 q 42 689 19 606 q 113 839 65 772 q 233 944 160 905 q 406 983 306 983 q 573 944 503 983 q 690 838 644 905 q 759 687 736 771 q 782 513 782 603 q 757 327 782 418 q 684 162 732 236 q 565 45 636 89 q 401 1 494 1 m 431 1043 q 397 1059 412 1043 q 336 1114 381 1080 q 235 1175 292 1147 q 216 1206 216 1185 q 249 1276 216 1238 q 312 1314 281 1314 q 342 1298 330 1314 q 397 1214 375 1251 q 442 1146 420 1177 q 495 1090 464 1116 q 498 1084 498 1088 q 476 1058 498 1073 q 431 1043 454 1043 z "},"Ó":{"ha":816,"x_min":19,"x_max":782,"o":"m 399 404 q 446 431 427 404 q 475 500 465 458 q 485 587 485 543 q 476 667 485 629 q 449 727 467 704 q 402 751 431 751 q 354 726 373 751 q 326 663 335 702 q 317 581 317 624 q 337 461 317 515 q 397 404 358 407 l 399 404 m 401 1 q 238 45 309 1 q 118 163 167 90 q 44 329 69 237 q 19 517 19 421 q 42 689 19 606 q 113 839 65 772 q 233 944 160 905 q 406 983 306 983 q 573 944 503 983 q 690 838 644 905 q 759 687 736 771 q 782 513 782 603 q 757 327 782 418 q 684 162 732 236 q 565 45 636 89 q 401 1 494 1 m 378 1043 q 332 1058 354 1043 q 311 1084 311 1073 q 313 1090 311 1088 q 367 1146 345 1116 q 412 1214 389 1177 q 466 1298 434 1251 q 496 1314 479 1314 q 561 1276 528 1314 q 593 1206 593 1238 q 574 1175 593 1185 q 472 1114 517 1147 q 411 1059 427 1080 q 378 1043 397 1043 z "},"Ô":{"ha":816,"x_min":19,"x_max":782,"o":"m 399 404 q 446 431 427 404 q 475 500 465 458 q 485 587 485 543 q 476 667 485 629 q 449 727 467 704 q 402 751 431 751 q 354 726 373 751 q 326 663 335 702 q 317 581 317 624 q 337 461 317 515 q 397 404 358 407 l 399 404 m 401 1 q 238 45 309 1 q 118 163 167 90 q 44 329 69 237 q 19 517 19 421 q 42 689 19 606 q 113 839 65 772 q 233 944 160 905 q 406 983 306 983 q 573 944 503 983 q 690 838 644 905 q 759 687 736 771 q 782 513 782 603 q 757 327 782 418 q 684 162 732 236 q 565 45 636 89 q 401 1 494 1 m 510 1042 q 479 1057 492 1042 q 422 1145 436 1118 q 403 1170 410 1170 q 386 1147 397 1170 q 329 1057 372 1118 q 298 1042 316 1042 q 243 1066 271 1042 q 216 1111 216 1089 q 226 1130 216 1122 q 273 1171 245 1144 q 326 1222 302 1197 q 359 1258 351 1248 q 377 1268 364 1265 q 404 1272 389 1272 q 431 1268 418 1272 q 450 1258 444 1265 q 482 1223 458 1248 q 535 1171 507 1198 q 582 1130 563 1144 q 592 1111 592 1122 q 565 1066 592 1089 q 510 1042 537 1042 z "},"Õ":{"ha":816,"x_min":19,"x_max":782,"o":"m 399 404 q 446 431 427 404 q 475 500 465 458 q 485 587 485 543 q 476 667 485 629 q 449 727 467 704 q 402 751 431 751 q 354 726 373 751 q 326 663 335 702 q 317 581 317 624 q 337 461 317 515 q 397 404 358 407 l 399 404 m 401 1 q 238 45 309 1 q 118 163 167 90 q 44 329 69 237 q 19 517 19 421 q 42 689 19 606 q 113 839 65 772 q 233 944 160 905 q 406 983 306 983 q 573 944 503 983 q 690 838 644 905 q 759 687 736 771 q 782 513 782 603 q 757 327 782 418 q 684 162 732 236 q 565 45 636 89 q 401 1 494 1 m 467 1042 q 418 1056 434 1042 q 389 1087 401 1069 q 365 1114 378 1101 q 342 1124 355 1124 q 314 1076 314 1124 l 314 1072 q 298 1050 314 1056 q 267 1044 283 1044 q 248 1046 259 1044 q 228 1053 237 1048 q 220 1067 220 1058 q 230 1137 220 1101 q 266 1197 239 1173 q 341 1221 292 1221 q 396 1208 376 1221 q 433 1170 417 1195 q 478 1140 455 1140 q 496 1147 488 1140 q 507 1168 504 1154 q 510 1194 510 1181 q 523 1213 510 1207 q 550 1219 536 1219 q 577 1213 565 1219 q 589 1193 589 1207 q 578 1124 589 1158 q 541 1066 568 1089 q 467 1042 515 1042 z "},"Ö":{"ha":816,"x_min":19,"x_max":782,"o":"m 399 404 q 446 431 427 404 q 475 500 465 458 q 485 587 485 543 q 476 667 485 629 q 449 727 467 704 q 402 751 431 751 q 354 726 373 751 q 326 663 335 702 q 317 581 317 624 q 337 461 317 515 q 397 404 358 407 l 399 404 m 401 1 q 238 45 309 1 q 118 163 167 90 q 44 329 69 237 q 19 517 19 421 q 42 689 19 606 q 113 839 65 772 q 233 944 160 905 q 406 983 306 983 q 573 944 503 983 q 690 838 644 905 q 759 687 736 771 q 782 513 782 603 q 757 327 782 418 q 684 162 732 236 q 565 45 636 89 q 401 1 494 1 m 289 1042 q 215 1070 245 1042 q 184 1136 184 1097 q 215 1202 184 1175 q 289 1230 245 1230 q 363 1202 332 1230 q 393 1136 393 1175 q 363 1070 393 1097 q 289 1042 332 1042 m 519 1042 q 446 1070 476 1042 q 415 1136 415 1097 q 446 1202 415 1175 q 519 1230 476 1230 q 594 1202 563 1230 q 625 1136 625 1175 q 594 1070 625 1097 q 519 1042 563 1042 z "},"×":{"ha":600,"x_min":34,"x_max":566,"o":"m 160 219 q 107 242 137 219 q 56 297 78 266 q 34 350 34 328 q 42 370 34 362 l 75 395 q 138 448 117 428 q 160 485 160 468 q 137 524 160 503 q 70 579 115 545 l 42 601 q 35 618 35 607 q 56 672 35 640 q 106 729 77 704 q 159 753 135 753 q 180 743 172 753 l 209 708 q 261 646 241 667 q 298 625 281 625 q 337 647 316 625 q 393 715 358 669 l 414 741 q 431 748 420 748 q 485 727 452 748 q 542 677 517 706 q 566 625 566 648 q 556 603 566 612 l 522 575 q 459 523 481 543 q 438 484 438 503 q 467 438 438 464 q 555 369 496 413 q 565 348 565 361 q 542 295 565 325 q 487 243 518 265 q 433 221 456 221 q 414 229 422 221 l 393 256 q 338 323 359 300 q 298 347 317 347 q 252 318 277 347 q 182 229 226 289 q 160 219 173 219 z "},"Ø":{"ha":816,"x_min":19,"x_max":782,"o":"m 393 404 q 440 431 421 404 q 470 500 460 458 q 479 587 479 543 q 471 667 479 629 q 444 727 462 704 q 397 751 425 751 q 349 726 368 751 q 320 663 330 702 q 311 581 311 624 q 332 461 311 515 q 393 404 353 407 m 310 -68 q 189 -26 245 -68 q 132 85 133 16 q 142 130 134 107 q 44 330 76 212 q 19 517 19 421 q 42 689 19 606 q 113 839 65 772 q 233 944 160 905 q 406 983 306 983 l 419 983 q 479 1030 441 1015 q 547 1043 512 1043 q 644 1013 601 1043 q 687 929 687 983 q 669 867 686 901 q 760 687 730 793 q 782 513 782 603 q 757 327 782 418 q 684 162 732 236 q 565 45 636 89 q 429 2 505 7 q 398 -38 418 -23 q 310 -68 359 -68 z "},"Ù":{"ha":857,"x_min":46,"x_max":828,"o":"m 662 1 q 519 35 587 1 q 486 58 497 49 q 474 66 479 63 q 463 69 469 69 q 423 48 450 69 q 286 1 357 1 q 152 30 205 1 q 73 109 99 58 q 47 223 47 159 q 54 298 47 259 q 81 551 81 426 q 49 842 81 693 q 46 867 46 855 q 67 926 46 903 q 123 961 89 949 q 195 972 157 972 q 277 959 237 972 q 341 920 316 946 q 367 857 367 895 q 362 826 367 842 q 325 569 325 700 q 333 436 325 502 q 366 324 342 359 q 415 288 389 288 q 475 337 448 288 q 506 473 503 385 q 507 551 507 512 q 500 686 507 618 q 471 826 493 753 q 467 856 467 842 q 494 920 467 894 q 562 959 521 945 q 647 972 604 972 q 717 962 684 972 q 770 931 750 951 q 791 878 791 910 q 785 842 791 861 q 741 576 741 706 q 764 364 741 470 q 822 146 786 258 q 828 109 828 125 q 805 48 828 72 q 743 13 781 24 q 662 1 705 1 m 464 1043 q 431 1059 445 1043 q 370 1114 414 1080 q 268 1175 325 1147 q 250 1206 250 1185 q 282 1276 250 1238 q 345 1314 314 1314 q 376 1298 363 1314 q 431 1214 408 1251 q 475 1146 453 1177 q 528 1090 497 1116 q 532 1084 532 1088 q 510 1058 532 1073 q 464 1043 488 1043 z "},"Ú":{"ha":857,"x_min":46,"x_max":828,"o":"m 662 1 q 519 35 587 1 q 486 58 497 49 q 474 66 479 63 q 463 69 469 69 q 423 48 450 69 q 286 1 357 1 q 152 30 205 1 q 73 109 99 58 q 47 223 47 159 q 54 298 47 259 q 81 551 81 426 q 49 842 81 693 q 46 867 46 855 q 67 926 46 903 q 123 961 89 949 q 195 972 157 972 q 277 959 237 972 q 341 920 316 946 q 367 857 367 895 q 362 826 367 842 q 325 569 325 700 q 333 436 325 502 q 366 324 342 359 q 415 288 389 288 q 475 337 448 288 q 506 473 503 385 q 507 551 507 512 q 500 686 507 618 q 471 826 493 753 q 467 856 467 842 q 494 920 467 894 q 562 959 521 945 q 647 972 604 972 q 717 962 684 972 q 770 931 750 951 q 791 878 791 910 q 785 842 791 861 q 741 576 741 706 q 764 364 741 470 q 822 146 786 258 q 828 109 828 125 q 805 48 828 72 q 743 13 781 24 q 662 1 705 1 m 411 1043 q 366 1058 387 1043 q 344 1084 344 1073 q 347 1090 344 1088 q 400 1146 378 1116 q 445 1214 422 1177 q 499 1298 467 1251 q 530 1314 513 1314 q 594 1276 562 1314 q 626 1206 626 1238 q 607 1175 626 1185 q 505 1114 550 1147 q 444 1059 460 1080 q 411 1043 430 1043 z "},"Û":{"ha":857,"x_min":46,"x_max":828,"o":"m 662 1 q 519 35 587 1 q 486 58 497 49 q 474 66 479 63 q 463 69 469 69 q 423 48 450 69 q 286 1 357 1 q 152 30 205 1 q 73 109 99 58 q 47 223 47 159 q 54 298 47 259 q 81 551 81 426 q 49 842 81 693 q 46 867 46 855 q 67 926 46 903 q 123 961 89 949 q 195 972 157 972 q 277 959 237 972 q 341 920 316 946 q 367 857 367 895 q 362 826 367 842 q 325 569 325 700 q 333 436 325 502 q 366 324 342 359 q 415 288 389 288 q 475 337 448 288 q 506 473 503 385 q 507 551 507 512 q 500 686 507 618 q 471 826 493 753 q 467 856 467 842 q 494 920 467 894 q 562 959 521 945 q 647 972 604 972 q 717 962 684 972 q 770 931 750 951 q 791 878 791 910 q 785 842 791 861 q 741 576 741 706 q 764 364 741 470 q 822 146 786 258 q 828 109 828 125 q 805 48 828 72 q 743 13 781 24 q 662 1 705 1 m 543 1042 q 513 1057 526 1042 q 455 1145 469 1118 q 436 1170 443 1170 q 419 1147 430 1170 q 362 1057 406 1118 q 332 1042 349 1042 q 277 1066 304 1042 q 249 1111 249 1089 q 259 1130 249 1122 q 307 1171 278 1144 q 359 1222 335 1197 q 392 1258 384 1248 q 410 1268 397 1265 q 437 1272 422 1272 q 465 1268 452 1272 q 483 1258 477 1265 q 515 1223 491 1248 q 568 1171 540 1198 q 615 1130 596 1144 q 625 1111 625 1122 q 598 1066 625 1089 q 543 1042 570 1042 z "},"Ü":{"ha":857,"x_min":46,"x_max":828,"o":"m 662 1 q 519 35 587 1 q 486 58 497 49 q 474 66 479 63 q 463 69 469 69 q 423 48 450 69 q 286 1 357 1 q 152 30 205 1 q 73 109 99 58 q 47 223 47 159 q 54 298 47 259 q 81 551 81 426 q 49 842 81 693 q 46 867 46 855 q 67 926 46 903 q 123 961 89 949 q 195 972 157 972 q 277 959 237 972 q 341 920 316 946 q 367 857 367 895 q 362 826 367 842 q 325 569 325 700 q 333 436 325 502 q 366 324 342 359 q 415 288 389 288 q 475 337 448 288 q 506 473 503 385 q 507 551 507 512 q 500 686 507 618 q 471 826 493 753 q 467 856 467 842 q 494 920 467 894 q 562 959 521 945 q 647 972 604 972 q 717 962 684 972 q 770 931 750 951 q 791 878 791 910 q 785 842 791 861 q 741 576 741 706 q 764 364 741 470 q 822 146 786 258 q 828 109 828 125 q 805 48 828 72 q 743 13 781 24 q 662 1 705 1 m 322 1042 q 248 1070 279 1042 q 217 1136 217 1097 q 248 1202 217 1175 q 322 1230 279 1230 q 396 1202 366 1230 q 427 1136 427 1175 q 396 1070 427 1097 q 322 1042 366 1042 m 553 1042 q 479 1070 509 1042 q 448 1136 448 1097 q 479 1202 448 1175 q 553 1230 509 1230 q 627 1202 596 1230 q 658 1136 658 1175 q 627 1070 658 1097 q 553 1042 596 1042 z "},"Ý":{"ha":863,"x_min":-18,"x_max":856,"o":"m 395 -1 q 312 10 351 -1 q 249 44 273 21 q 225 104 225 67 q 230 136 225 119 q 279 416 271 282 l 279 428 q 196 613 279 521 q 28 746 127 689 q -18 817 -18 774 q 12 889 -18 853 q 89 948 41 924 q 191 972 136 972 l 197 972 q 257 960 230 972 q 301 915 285 949 l 307 902 q 373 765 348 810 q 419 719 398 719 q 465 765 440 719 q 531 902 490 810 l 537 915 q 581 960 553 949 q 642 972 608 972 l 647 972 q 749 948 702 972 q 826 889 797 924 q 856 817 856 853 q 810 746 856 774 q 701 669 753 713 q 582 448 582 567 q 628 161 585 321 q 631 135 631 147 q 596 61 631 92 q 506 15 560 31 q 395 -1 451 -1 m 393 1043 q 347 1058 369 1043 q 326 1084 326 1073 q 328 1090 326 1088 q 382 1146 359 1116 q 427 1214 404 1177 q 481 1298 449 1251 q 511 1314 494 1314 q 575 1276 543 1314 q 608 1206 608 1238 q 589 1175 608 1185 q 487 1114 532 1147 q 426 1059 442 1080 q 393 1043 412 1043 z "},"Þ":{"ha":798,"x_min":9,"x_max":778,"o":"m 399 488 q 491 502 456 488 q 543 534 526 515 q 560 574 560 554 q 532 622 560 600 q 451 644 503 644 l 428 644 q 373 629 396 644 q 337 592 349 614 q 324 548 324 570 q 342 506 324 524 q 399 488 359 488 m 195 -136 q 118 -124 154 -136 q 60 -90 82 -113 q 37 -30 37 -66 q 42 3 37 -15 q 91 357 91 185 q 71 676 91 524 q 45 883 52 829 q 13 1069 33 972 q 9 1097 9 1084 q 35 1157 9 1137 q 100 1186 61 1178 q 183 1194 140 1194 q 266 1186 227 1194 q 331 1160 306 1179 q 356 1109 356 1142 q 351 1080 356 1095 q 323 916 323 981 q 353 832 323 834 q 444 831 383 831 q 696 742 606 831 q 778 539 778 661 q 740 385 778 460 q 630 254 703 309 q 450 184 557 200 q 390 173 408 178 q 373 153 373 168 q 383 110 373 139 q 410 1 410 33 q 378 -73 410 -43 q 296 -120 345 -104 q 195 -136 246 -136 z "},"ß":{"ha":834,"x_min":36,"x_max":823,"o":"m 208 -1 q 126 12 165 -1 q 61 50 87 24 q 36 115 36 76 q 58 251 36 135 q 77 364 69 311 q 85 465 85 418 q 78 541 85 505 q 63 671 63 613 q 89 811 63 753 q 159 904 115 868 q 257 956 203 939 q 367 972 311 972 q 497 948 435 972 q 598 883 559 924 q 637 789 637 842 q 623 709 637 744 q 587 638 608 673 l 566 600 q 546 541 546 561 q 563 509 546 519 q 608 489 579 499 q 690 452 643 477 q 777 385 738 427 q 822 270 817 342 q 823 254 823 259 q 823 231 823 248 q 796 119 823 170 q 721 38 768 68 q 612 8 673 8 q 422 81 521 8 q 379 173 379 115 q 405 264 379 222 q 458 306 431 306 q 480 296 470 306 q 531 259 504 271 q 580 248 558 248 q 607 254 596 248 q 617 272 617 260 q 582 324 617 292 q 512 361 551 348 q 432 405 467 374 q 394 519 397 436 q 404 571 394 530 q 416 623 410 597 q 418 646 418 635 q 408 680 418 668 q 382 691 397 691 q 343 672 363 691 q 312 614 322 652 q 296 444 296 539 q 309 272 296 357 q 347 136 321 188 q 359 91 359 111 q 338 41 359 61 q 281 10 316 20 q 208 -1 246 -1 z "},"à":{"ha":800,"x_min":28,"x_max":758,"o":"m 551 9 q 448 31 502 9 q 398 14 425 19 q 334 9 372 9 q 208 34 264 9 q 111 102 151 60 q 50 196 71 144 q 28 302 28 248 q 59 421 28 363 q 156 516 90 478 q 326 559 222 553 q 343 559 336 559 q 362 560 350 560 q 395 558 383 560 q 422 556 407 556 q 458 572 446 556 q 469 608 469 587 q 457 655 469 631 q 422 696 445 680 q 370 713 400 713 q 327 695 347 713 q 297 641 307 676 q 264 586 287 603 q 214 569 241 569 q 151 585 183 569 q 98 628 119 602 q 76 684 76 654 q 125 843 79 781 q 242 936 172 905 q 384 966 313 966 q 508 942 447 966 q 620 870 570 918 q 699 751 669 823 q 729 583 729 679 l 728 536 q 727 468 727 505 q 736 293 727 387 q 758 117 751 150 q 758 105 758 112 q 724 55 758 77 q 642 21 690 33 q 551 9 594 9 m 277 300 q 390 329 334 300 q 446 387 446 358 q 424 413 446 401 q 354 424 402 424 l 329 424 q 240 397 270 422 q 210 347 210 372 q 227 314 210 328 q 277 300 243 300 m 410 1042 q 376 1058 391 1042 q 315 1113 360 1079 q 214 1174 271 1147 q 195 1205 195 1185 q 228 1275 195 1237 q 291 1314 260 1314 q 321 1297 309 1314 q 376 1213 354 1251 q 421 1146 399 1176 q 474 1090 443 1116 q 477 1084 477 1087 q 455 1057 477 1072 q 410 1042 433 1042 z "},"á":{"ha":800,"x_min":28,"x_max":758,"o":"m 551 9 q 448 31 502 9 q 398 14 425 19 q 334 9 372 9 q 208 34 264 9 q 111 102 151 60 q 50 196 71 144 q 28 302 28 248 q 59 421 28 363 q 156 516 90 478 q 326 559 222 553 q 343 559 336 559 q 362 560 350 560 q 395 558 383 560 q 422 556 407 556 q 458 572 446 556 q 469 608 469 587 q 457 655 469 631 q 422 696 445 680 q 370 713 400 713 q 327 695 347 713 q 297 641 307 676 q 264 586 287 603 q 214 569 241 569 q 151 585 183 569 q 98 628 119 602 q 76 684 76 654 q 125 843 79 781 q 242 936 172 905 q 384 966 313 966 q 508 942 447 966 q 620 870 570 918 q 699 751 669 823 q 729 583 729 679 l 728 536 q 727 468 727 505 q 736 293 727 387 q 758 117 751 150 q 758 105 758 112 q 724 55 758 77 q 642 21 690 33 q 551 9 594 9 m 277 300 q 390 329 334 300 q 446 387 446 358 q 424 413 446 401 q 354 424 402 424 l 329 424 q 240 397 270 422 q 210 347 210 372 q 227 314 210 328 q 277 300 243 300 m 357 1042 q 311 1057 333 1042 q 290 1084 290 1072 q 292 1090 290 1087 q 346 1146 323 1116 q 391 1213 368 1176 q 445 1297 413 1251 q 475 1314 458 1314 q 539 1275 507 1314 q 572 1205 572 1237 q 553 1174 572 1185 q 451 1113 496 1147 q 390 1058 406 1079 q 357 1042 376 1042 z "},"â":{"ha":800,"x_min":28,"x_max":758,"o":"m 551 9 q 448 31 502 9 q 398 14 425 19 q 334 9 372 9 q 208 34 264 9 q 111 102 151 60 q 50 196 71 144 q 28 302 28 248 q 59 421 28 363 q 156 516 90 478 q 326 559 222 553 q 343 559 336 559 q 362 560 350 560 q 395 558 383 560 q 422 556 407 556 q 458 572 446 556 q 469 608 469 587 q 457 655 469 631 q 422 696 445 680 q 370 713 400 713 q 327 695 347 713 q 297 641 307 676 q 264 586 287 603 q 214 569 241 569 q 151 585 183 569 q 98 628 119 602 q 76 684 76 654 q 125 843 79 781 q 242 936 172 905 q 384 966 313 966 q 508 942 447 966 q 620 870 570 918 q 699 751 669 823 q 729 583 729 679 l 728 536 q 727 468 727 505 q 736 293 727 387 q 758 117 751 150 q 758 105 758 112 q 724 55 758 77 q 642 21 690 33 q 551 9 594 9 m 277 300 q 390 329 334 300 q 446 387 446 358 q 424 413 446 401 q 354 424 402 424 l 329 424 q 240 397 270 422 q 210 347 210 372 q 227 314 210 328 q 277 300 243 300 m 489 1042 q 458 1057 471 1042 q 401 1145 415 1117 q 382 1169 389 1169 q 365 1146 376 1169 q 308 1057 351 1118 q 277 1042 295 1042 q 222 1065 250 1042 q 195 1110 195 1088 q 205 1129 195 1121 q 252 1170 224 1143 q 305 1222 281 1196 q 338 1257 330 1247 q 356 1267 343 1264 q 383 1271 368 1271 q 410 1267 397 1271 q 429 1257 423 1264 q 461 1222 437 1247 q 514 1170 486 1197 q 561 1129 542 1143 q 571 1110 571 1121 q 544 1065 571 1088 q 489 1042 516 1042 z "},"ã":{"ha":800,"x_min":28,"x_max":758,"o":"m 551 9 q 448 31 502 9 q 398 14 425 19 q 334 9 372 9 q 208 34 264 9 q 111 102 151 60 q 50 196 71 144 q 28 302 28 248 q 59 421 28 363 q 156 516 90 478 q 326 559 222 553 q 343 559 336 559 q 362 560 350 560 q 395 558 383 560 q 422 556 407 556 q 458 572 446 556 q 469 608 469 587 q 457 655 469 631 q 422 696 445 680 q 370 713 400 713 q 327 695 347 713 q 297 641 307 676 q 264 586 287 603 q 214 569 241 569 q 151 585 183 569 q 98 628 119 602 q 76 684 76 654 q 125 843 79 781 q 242 936 172 905 q 384 966 313 966 q 508 942 447 966 q 620 870 570 918 q 699 751 669 823 q 729 583 729 679 l 728 536 q 727 468 727 505 q 736 293 727 387 q 758 117 751 150 q 758 105 758 112 q 724 55 758 77 q 642 21 690 33 q 551 9 594 9 m 277 300 q 390 329 334 300 q 446 387 446 358 q 424 413 446 401 q 354 424 402 424 l 329 424 q 240 397 270 422 q 210 347 210 372 q 227 314 210 328 q 277 300 243 300 m 446 1042 q 397 1055 413 1042 q 368 1086 380 1068 q 344 1114 357 1100 q 321 1123 334 1123 q 293 1076 293 1123 l 293 1071 q 277 1049 293 1055 q 246 1044 262 1044 q 227 1045 238 1044 q 207 1052 216 1047 q 199 1066 199 1057 q 209 1136 199 1101 q 244 1196 218 1172 q 320 1221 271 1221 q 375 1207 355 1221 q 412 1169 396 1194 q 457 1139 434 1139 q 475 1146 467 1139 q 486 1167 483 1154 q 489 1194 489 1181 q 502 1213 489 1206 q 529 1219 515 1219 q 556 1213 544 1219 q 568 1192 568 1206 q 557 1123 568 1158 q 520 1065 547 1088 q 446 1042 494 1042 z "},"ä":{"ha":800,"x_min":28,"x_max":758,"o":"m 551 9 q 448 31 502 9 q 398 14 425 19 q 334 9 372 9 q 208 34 264 9 q 111 102 151 60 q 50 196 71 144 q 28 302 28 248 q 59 421 28 363 q 156 516 90 478 q 326 559 222 553 q 343 559 336 559 q 362 560 350 560 q 395 558 383 560 q 422 556 407 556 q 458 572 446 556 q 469 608 469 587 q 457 655 469 631 q 422 696 445 680 q 370 713 400 713 q 327 695 347 713 q 297 641 307 676 q 264 586 287 603 q 214 569 241 569 q 151 585 183 569 q 98 628 119 602 q 76 684 76 654 q 125 843 79 781 q 242 936 172 905 q 384 966 313 966 q 508 942 447 966 q 620 870 570 918 q 699 751 669 823 q 729 583 729 679 l 728 536 q 727 468 727 505 q 736 293 727 387 q 758 117 751 150 q 758 105 758 112 q 724 55 758 77 q 642 21 690 33 q 551 9 594 9 m 277 300 q 390 329 334 300 q 446 387 446 358 q 424 413 446 401 q 354 424 402 424 l 329 424 q 240 397 270 422 q 210 347 210 372 q 227 314 210 328 q 277 300 243 300 m 268 1042 q 194 1069 224 1042 q 163 1135 163 1097 q 194 1201 163 1174 q 268 1229 224 1229 q 342 1201 311 1229 q 372 1135 372 1174 q 342 1069 372 1097 q 268 1042 311 1042 m 498 1042 q 425 1069 455 1042 q 394 1135 394 1097 q 425 1201 394 1174 q 498 1229 455 1229 q 573 1201 542 1229 q 604 1135 604 1174 q 573 1069 604 1097 q 498 1042 542 1042 z "},"å":{"ha":800,"x_min":28,"x_max":758,"o":"m 551 9 q 448 31 502 9 q 398 14 425 19 q 334 9 372 9 q 208 34 264 9 q 111 102 151 60 q 50 196 71 144 q 28 302 28 248 q 59 421 28 363 q 156 516 90 478 q 326 559 222 553 q 343 559 336 559 q 362 560 350 560 q 395 558 383 560 q 422 556 407 556 q 458 572 446 556 q 469 608 469 587 q 457 655 469 631 q 422 696 445 680 q 370 713 400 713 q 327 695 347 713 q 297 641 307 676 q 264 586 287 603 q 214 569 241 569 q 151 585 183 569 q 98 628 119 602 q 76 684 76 654 q 125 843 79 781 q 242 936 172 905 q 384 966 313 966 q 508 942 447 966 q 620 870 570 918 q 699 751 669 823 q 729 583 729 679 l 728 536 q 727 468 727 505 q 736 293 727 387 q 758 117 751 150 q 758 105 758 112 q 724 55 758 77 q 642 21 690 33 q 551 9 594 9 m 277 300 q 390 329 334 300 q 446 387 446 358 q 424 413 446 401 q 354 424 402 424 l 329 424 q 240 397 270 422 q 210 347 210 372 q 227 314 210 328 q 277 300 243 300 m 382 1117 q 404 1130 394 1117 q 413 1168 413 1143 q 404 1201 413 1190 q 384 1213 395 1213 q 363 1201 372 1213 q 354 1168 354 1190 q 363 1129 354 1142 q 382 1117 372 1117 m 383 1042 q 311 1063 340 1042 q 266 1116 281 1084 q 250 1183 250 1148 q 264 1245 250 1215 q 308 1293 279 1274 q 384 1311 338 1311 q 458 1292 429 1311 q 502 1244 488 1274 q 516 1182 516 1215 q 501 1115 516 1147 q 456 1062 486 1083 q 383 1042 427 1042 z "},"æ":{"ha":1246,"x_min":28,"x_max":1289,"o":"m 277 300 q 390 329 334 300 q 446 387 446 358 q 424 413 446 401 q 354 424 402 424 l 329 424 q 240 397 270 422 q 210 347 210 372 q 227 314 210 328 q 277 300 243 300 m 947 633 q 1006 642 979 633 q 1034 665 1034 650 q 1010 708 1032 694 q 960 723 987 723 q 910 707 932 723 q 885 659 887 692 q 904 639 885 646 q 947 633 923 633 m 551 9 q 448 31 502 9 q 334 9 405 9 q 208 34 264 9 q 111 102 151 60 q 50 196 71 144 q 28 302 28 248 q 59 421 28 363 q 156 516 90 478 q 326 559 222 553 q 350 560 332 559 q 395 558 383 560 q 422 556 407 556 q 458 572 446 556 q 469 608 469 587 q 457 655 469 631 q 422 696 445 680 q 370 713 400 713 q 327 695 347 713 q 297 641 307 676 q 214 569 278 569 q 151 585 183 569 q 98 628 119 602 q 76 684 76 654 q 125 843 79 781 q 242 936 172 905 q 384 966 313 966 q 509 942 447 966 q 667 813 607 904 q 943 958 764 958 q 1079 935 1015 958 q 1187 860 1143 911 q 1249 722 1232 808 q 1251 694 1251 708 q 1220 606 1251 644 q 1137 556 1189 569 q 1027 546 1086 546 q 975 547 998 546 q 937 548 956 548 q 883 511 883 548 q 899 467 883 490 q 940 426 916 443 q 995 410 965 410 q 1082 466 1039 410 q 1149 507 1111 507 q 1216 475 1184 507 q 1269 393 1249 443 q 1289 290 1289 343 q 1278 220 1289 254 q 1150 63 1240 115 q 947 12 1060 12 q 752 83 836 12 q 724 56 744 68 q 642 21 690 33 q 551 9 594 9 z "},"ç":{"ha":760,"x_min":25,"x_max":732,"o":"m 440 -232 q 343 -210 391 -232 q 312 -159 312 -193 q 318 -136 312 -145 q 334 -126 324 -126 q 342 -127 338 -126 q 401 -140 378 -140 q 439 -129 427 -140 q 451 -104 451 -117 q 440 -81 451 -92 q 408 -71 429 -71 q 366 -81 390 -71 q 355 -83 361 -83 q 332 -74 344 -83 q 321 -51 321 -66 q 340 15 321 -46 q 234 54 281 24 q 119 168 165 97 q 49 328 73 239 q 25 508 25 416 q 47 674 25 593 q 113 819 68 755 q 225 921 157 883 q 386 958 294 958 q 592 903 507 958 q 692 706 692 837 q 670 653 692 678 q 614 612 647 627 q 551 596 581 596 q 475 663 487 596 q 453 712 470 696 q 414 728 436 728 q 363 709 383 728 q 333 658 342 690 q 323 589 323 627 q 336 503 323 545 q 373 432 349 460 q 433 404 397 404 q 525 466 480 404 q 591 507 557 507 q 659 475 627 507 q 712 393 691 443 q 732 290 732 343 q 721 220 732 254 q 593 64 683 115 q 432 14 520 22 q 419 -10 419 -7 q 426 -14 419 -14 l 474 -12 q 534 -27 509 -12 q 573 -65 559 -42 q 587 -114 587 -89 q 540 -203 584 -175 q 440 -232 496 -232 z "},"è":{"ha":761,"x_min":25,"x_max":732,"o":"m 390 12 q 234 54 302 12 q 120 168 166 97 q 49 328 73 239 q 25 508 25 416 q 47 674 25 593 q 113 819 68 755 q 225 921 157 883 q 386 958 294 958 q 522 935 458 958 q 630 860 586 911 q 692 722 675 808 q 694 694 694 708 q 663 606 694 644 q 580 556 631 569 q 469 546 529 546 q 417 547 441 546 q 380 548 399 548 q 338 537 351 548 q 326 511 326 526 q 342 467 326 490 q 383 426 358 443 q 437 410 408 410 q 525 466 481 410 q 591 507 555 507 q 659 475 627 507 q 712 393 691 443 q 732 290 732 343 q 721 220 732 254 q 592 63 682 115 q 390 12 503 12 m 391 633 q 449 642 421 633 q 477 665 477 650 q 453 708 475 694 q 403 723 431 723 q 352 707 375 723 q 328 659 330 692 q 347 639 328 646 q 391 633 366 633 m 416 1042 q 382 1058 397 1042 q 321 1113 366 1079 q 220 1174 277 1147 q 201 1205 201 1185 q 234 1275 201 1237 q 297 1314 266 1314 q 328 1297 315 1314 q 382 1213 360 1251 q 427 1146 405 1176 q 480 1090 449 1116 q 484 1084 484 1087 q 461 1057 484 1072 q 416 1042 439 1042 z "},"é":{"ha":761,"x_min":25,"x_max":732,"o":"m 390 12 q 234 54 302 12 q 120 168 166 97 q 49 328 73 239 q 25 508 25 416 q 47 674 25 593 q 113 819 68 755 q 225 921 157 883 q 386 958 294 958 q 522 935 458 958 q 630 860 586 911 q 692 722 675 808 q 694 694 694 708 q 663 606 694 644 q 580 556 631 569 q 469 546 529 546 q 417 547 441 546 q 380 548 399 548 q 338 537 351 548 q 326 511 326 526 q 342 467 326 490 q 383 426 358 443 q 437 410 408 410 q 525 466 481 410 q 591 507 555 507 q 659 475 627 507 q 712 393 691 443 q 732 290 732 343 q 721 220 732 254 q 592 63 682 115 q 390 12 503 12 m 391 633 q 449 642 421 633 q 477 665 477 650 q 453 708 475 694 q 403 723 431 723 q 352 707 375 723 q 328 659 330 692 q 347 639 328 646 q 391 633 366 633 m 363 1042 q 317 1057 339 1042 q 296 1084 296 1072 q 298 1090 296 1087 q 352 1146 330 1116 q 397 1213 374 1176 q 451 1297 419 1251 q 481 1314 465 1314 q 546 1275 513 1314 q 578 1205 578 1237 q 559 1174 578 1185 q 457 1113 502 1147 q 396 1058 412 1079 q 363 1042 382 1042 z "},"ê":{"ha":761,"x_min":25,"x_max":732,"o":"m 390 12 q 234 54 302 12 q 120 168 166 97 q 49 328 73 239 q 25 508 25 416 q 47 674 25 593 q 113 819 68 755 q 225 921 157 883 q 386 958 294 958 q 522 935 458 958 q 630 860 586 911 q 692 722 675 808 q 694 694 694 708 q 663 606 694 644 q 580 556 631 569 q 469 546 529 546 q 417 547 441 546 q 380 548 399 548 q 338 537 351 548 q 326 511 326 526 q 342 467 326 490 q 383 426 358 443 q 437 410 408 410 q 525 466 481 410 q 591 507 555 507 q 659 475 627 507 q 712 393 691 443 q 732 290 732 343 q 721 220 732 254 q 592 63 682 115 q 390 12 503 12 m 391 633 q 449 642 421 633 q 477 665 477 650 q 453 708 475 694 q 403 723 431 723 q 352 707 375 723 q 328 659 330 692 q 347 639 328 646 q 391 633 366 633 m 495 1042 q 465 1057 477 1042 q 407 1145 421 1117 q 388 1169 395 1169 q 371 1146 382 1169 q 314 1057 357 1118 q 283 1042 301 1042 q 229 1065 256 1042 q 201 1110 201 1088 q 211 1129 201 1121 q 258 1170 230 1143 q 311 1222 287 1196 q 344 1257 336 1247 q 362 1267 349 1264 q 389 1271 374 1271 q 416 1267 404 1271 q 435 1257 429 1264 q 467 1222 443 1247 q 520 1170 492 1197 q 567 1129 548 1143 q 577 1110 577 1121 q 550 1065 577 1088 q 495 1042 522 1042 z "},"ë":{"ha":761,"x_min":25,"x_max":732,"o":"m 390 12 q 234 54 302 12 q 120 168 166 97 q 49 328 73 239 q 25 508 25 416 q 47 674 25 593 q 113 819 68 755 q 225 921 157 883 q 386 958 294 958 q 522 935 458 958 q 630 860 586 911 q 692 722 675 808 q 694 694 694 708 q 663 606 694 644 q 580 556 631 569 q 469 546 529 546 q 417 547 441 546 q 380 548 399 548 q 338 537 351 548 q 326 511 326 526 q 342 467 326 490 q 383 426 358 443 q 437 410 408 410 q 525 466 481 410 q 591 507 555 507 q 659 475 627 507 q 712 393 691 443 q 732 290 732 343 q 721 220 732 254 q 592 63 682 115 q 390 12 503 12 m 391 633 q 449 642 421 633 q 477 665 477 650 q 453 708 475 694 q 403 723 431 723 q 352 707 375 723 q 328 659 330 692 q 347 639 328 646 q 391 633 366 633 m 274 1042 q 200 1069 231 1042 q 169 1135 169 1097 q 200 1201 169 1174 q 274 1229 231 1229 q 348 1201 317 1229 q 378 1135 378 1174 q 348 1069 378 1097 q 274 1042 317 1042 m 505 1042 q 431 1069 461 1042 q 400 1135 400 1097 q 431 1201 400 1174 q 505 1229 461 1229 q 579 1201 548 1229 q 610 1135 610 1174 q 579 1069 610 1097 q 505 1042 548 1042 z "},"ì":{"ha":444,"x_min":33,"x_max":413,"o":"m 206 1 q 124 13 163 1 q 62 48 86 24 q 39 110 39 73 q 44 146 39 126 q 82 294 70 229 q 95 420 95 358 q 67 638 95 516 q 64 670 64 655 q 86 728 64 709 q 218 762 124 762 q 300 755 267 762 q 368 683 368 739 q 363 647 368 667 q 338 494 338 560 q 349 399 338 444 q 373 304 359 354 q 411 153 393 240 q 413 132 413 142 q 382 60 413 90 q 303 16 351 31 q 206 1 256 1 m 247 832 q 214 848 228 832 q 153 903 197 869 q 51 964 108 937 q 33 995 33 975 q 65 1065 33 1027 q 128 1103 97 1103 q 159 1087 146 1103 q 214 1003 191 1040 q 258 936 236 966 q 311 880 280 905 q 315 873 315 877 q 293 847 315 862 q 247 832 271 832 z "},"í":{"ha":444,"x_min":39,"x_max":413,"o":"m 206 1 q 124 13 163 1 q 62 48 86 24 q 39 110 39 73 q 44 146 39 126 q 82 294 70 229 q 95 420 95 358 q 67 638 95 516 q 64 670 64 655 q 86 728 64 709 q 218 762 124 762 q 300 755 267 762 q 368 683 368 739 q 363 647 368 667 q 338 494 338 560 q 349 399 338 444 q 373 304 359 354 q 411 153 393 240 q 413 132 413 142 q 382 60 413 90 q 303 16 351 31 q 206 1 256 1 m 194 832 q 149 847 170 832 q 127 873 127 862 q 130 880 127 877 q 183 936 161 905 q 228 1003 205 966 q 282 1087 250 1040 q 313 1103 296 1103 q 377 1065 345 1103 q 409 995 409 1027 q 390 964 409 975 q 288 903 333 937 q 227 848 243 869 q 194 832 213 832 z "},"î":{"ha":444,"x_min":32,"x_max":413,"o":"m 206 1 q 124 13 163 1 q 62 48 86 24 q 39 110 39 73 q 44 146 39 126 q 82 294 70 229 q 95 420 95 358 q 67 638 95 516 q 64 670 64 655 q 86 728 64 709 q 218 762 124 762 q 300 755 267 762 q 368 683 368 739 q 363 647 368 667 q 338 494 338 560 q 349 399 338 444 q 373 304 359 354 q 411 153 393 240 q 413 132 413 142 q 382 60 413 90 q 303 16 351 31 q 206 1 256 1 m 326 831 q 296 846 309 831 q 238 935 252 907 q 219 959 226 959 q 202 936 213 959 q 145 846 189 907 q 115 831 132 831 q 60 855 87 831 q 32 900 32 878 q 42 919 32 911 q 90 960 61 933 q 142 1011 118 986 q 175 1047 167 1037 q 193 1057 180 1054 q 220 1061 205 1061 q 248 1057 235 1061 q 266 1047 260 1054 q 298 1012 274 1037 q 351 960 323 987 q 398 919 379 933 q 408 900 408 911 q 381 855 408 878 q 326 831 353 831 z "},"ï":{"ha":444,"x_min":0,"x_max":441,"o":"m 206 1 q 124 13 163 1 q 62 48 86 24 q 39 110 39 73 q 44 146 39 126 q 82 294 70 229 q 95 420 95 358 q 67 638 95 516 q 64 670 64 655 q 86 728 64 709 q 218 762 124 762 q 300 755 267 762 q 368 683 368 739 q 363 647 368 667 q 338 494 338 560 q 349 399 338 444 q 373 304 359 354 q 411 153 393 240 q 413 132 413 142 q 382 60 413 90 q 303 16 351 31 q 206 1 256 1 m 105 831 q 31 859 62 831 q 0 925 0 886 q 31 991 0 964 q 105 1019 62 1019 q 179 991 149 1019 q 210 925 210 964 q 179 859 210 886 q 105 831 149 831 m 336 831 q 262 859 292 831 q 231 925 231 886 q 262 991 231 964 q 336 1019 292 1019 q 410 991 379 1019 q 441 925 441 964 q 410 859 441 886 q 336 831 379 831 z "},"ð":{"ha":773,"x_min":7,"x_max":743,"o":"m 380 0 q 245 24 311 0 q 125 93 178 48 q 40 200 72 138 q 7 339 7 262 q 39 457 7 402 q 125 545 71 511 q 247 578 179 578 q 361 553 298 578 q 376 549 368 549 q 414 569 397 549 q 430 609 430 589 q 419 635 430 624 q 382 646 408 646 q 349 642 368 646 q 193 600 245 618 q 182 597 187 597 q 146 623 161 597 q 131 677 131 650 q 140 710 131 696 q 170 726 149 724 q 301 741 263 730 q 339 762 339 751 q 323 775 339 770 q 283 781 307 781 q 229 773 258 781 q 210 770 220 770 q 165 796 181 770 q 149 854 149 821 q 171 926 149 892 q 239 970 192 960 q 304 977 273 977 q 455 939 387 977 q 576 836 524 901 q 603 805 595 812 q 621 798 611 798 q 648 805 631 798 q 697 819 687 819 q 732 796 720 819 q 743 747 743 773 q 735 708 743 726 q 709 690 726 690 l 690 690 q 666 677 666 690 q 674 651 666 668 q 690 610 682 635 q 718 414 718 509 q 668 171 718 262 q 543 41 620 82 q 380 0 465 0 m 322 310 q 387 333 361 310 q 414 407 412 355 q 373 457 412 441 q 292 473 335 473 q 217 459 246 473 q 187 422 187 446 q 208 365 187 391 q 260 325 229 339 q 322 310 291 310 z "},"ñ":{"ha":861,"x_min":41,"x_max":847,"o":"m 680 0 q 567 14 616 0 q 490 57 518 28 q 462 127 462 85 q 468 165 462 145 q 488 352 484 232 q 492 569 491 440 q 480 667 492 627 q 451 729 469 707 q 414 750 433 750 q 373 714 391 750 q 355 599 355 677 q 374 411 356 504 q 416 219 391 319 l 429 163 q 432 139 432 151 q 397 64 432 95 q 310 17 362 33 q 203 1 257 1 q 123 12 160 1 q 63 45 86 22 q 41 104 41 68 q 45 138 41 120 q 100 505 100 327 q 57 835 100 665 q 52 869 52 853 q 76 930 52 907 q 138 962 100 952 q 217 972 176 972 q 284 965 260 972 q 323 949 309 958 q 345 932 337 940 q 358 920 352 924 q 375 916 365 916 q 439 939 395 916 q 568 972 505 972 q 656 953 616 972 q 721 899 696 935 q 745 810 745 863 q 743 773 745 793 q 741 722 741 751 q 771 421 741 594 q 840 140 802 248 q 847 102 847 119 q 823 45 847 68 q 762 11 800 22 q 680 0 724 0 m 507 1042 q 457 1055 473 1042 q 428 1086 441 1068 q 404 1114 418 1100 q 381 1123 394 1123 q 353 1076 353 1123 l 353 1071 q 338 1049 353 1055 q 307 1044 322 1044 q 287 1045 298 1044 q 268 1052 276 1047 q 259 1066 259 1057 q 269 1136 259 1101 q 305 1196 279 1172 q 380 1221 331 1221 q 436 1207 415 1221 q 473 1169 456 1194 q 517 1139 494 1139 q 535 1146 527 1139 q 546 1167 543 1154 q 549 1194 549 1181 q 563 1213 549 1206 q 589 1219 576 1219 q 616 1213 604 1219 q 628 1192 628 1206 q 617 1123 628 1158 q 581 1065 607 1088 q 507 1042 554 1042 z "},"ò":{"ha":819,"x_min":26,"x_max":783,"o":"m 402 448 q 444 469 424 448 q 476 532 463 490 q 489 635 489 574 q 477 724 489 688 q 446 778 465 760 q 406 795 427 795 q 365 777 385 795 q 333 723 346 759 q 321 632 321 686 q 333 529 321 570 q 363 468 345 488 q 402 448 382 448 m 405 1 q 259 35 328 1 q 138 138 190 69 q 56 310 86 207 q 26 549 26 412 q 58 739 26 657 q 144 874 90 820 q 265 956 198 928 q 403 983 332 983 q 542 956 474 983 q 665 872 610 928 q 751 734 719 817 q 783 541 783 652 q 753 303 783 405 q 671 135 723 202 q 550 34 618 67 q 405 1 481 1 m 431 1042 q 398 1058 412 1042 q 337 1113 382 1079 q 235 1174 292 1147 q 217 1205 217 1185 q 249 1275 217 1237 q 313 1314 281 1314 q 343 1297 330 1314 q 398 1213 376 1251 q 443 1146 420 1176 q 496 1090 465 1116 q 499 1084 499 1087 q 477 1057 499 1072 q 431 1042 455 1042 z "},"ó":{"ha":819,"x_min":26,"x_max":783,"o":"m 402 448 q 444 469 424 448 q 476 532 463 490 q 489 635 489 574 q 477 724 489 688 q 446 778 465 760 q 406 795 427 795 q 365 777 385 795 q 333 723 346 759 q 321 632 321 686 q 333 529 321 570 q 363 468 345 488 q 402 448 382 448 m 405 1 q 259 35 328 1 q 138 138 190 69 q 56 310 86 207 q 26 549 26 412 q 58 739 26 657 q 144 874 90 820 q 265 956 198 928 q 403 983 332 983 q 542 956 474 983 q 665 872 610 928 q 751 734 719 817 q 783 541 783 652 q 753 303 783 405 q 671 135 723 202 q 550 34 618 67 q 405 1 481 1 m 378 1042 q 333 1057 355 1042 q 311 1084 311 1072 q 314 1090 311 1087 q 368 1146 345 1116 q 412 1213 390 1176 q 467 1297 435 1251 q 497 1314 480 1314 q 561 1275 529 1314 q 593 1205 593 1237 q 574 1174 593 1185 q 473 1113 517 1147 q 412 1058 428 1079 q 378 1042 397 1042 z "},"ô":{"ha":819,"x_min":26,"x_max":783,"o":"m 402 448 q 444 469 424 448 q 476 532 463 490 q 489 635 489 574 q 477 724 489 688 q 446 778 465 760 q 406 795 427 795 q 365 777 385 795 q 333 723 346 759 q 321 632 321 686 q 333 529 321 570 q 363 468 345 488 q 402 448 382 448 m 405 1 q 259 35 328 1 q 138 138 190 69 q 56 310 86 207 q 26 549 26 412 q 58 739 26 657 q 144 874 90 820 q 265 956 198 928 q 403 983 332 983 q 542 956 474 983 q 665 872 610 928 q 751 734 719 817 q 783 541 783 652 q 753 303 783 405 q 671 135 723 202 q 550 34 618 67 q 405 1 481 1 m 511 1042 q 480 1057 493 1042 q 422 1145 437 1117 q 404 1169 410 1169 q 387 1146 397 1169 q 330 1057 373 1118 q 299 1042 317 1042 q 244 1065 272 1042 q 216 1110 216 1088 q 227 1129 216 1121 q 274 1170 245 1143 q 327 1222 302 1196 q 359 1257 351 1247 q 377 1267 365 1264 q 405 1271 390 1271 q 432 1267 419 1271 q 450 1257 445 1264 q 483 1222 458 1247 q 535 1170 507 1197 q 583 1129 564 1143 q 593 1110 593 1121 q 565 1065 593 1088 q 511 1042 538 1042 z "},"õ":{"ha":819,"x_min":26,"x_max":783,"o":"m 402 448 q 444 469 424 448 q 476 532 463 490 q 489 635 489 574 q 477 724 489 688 q 446 778 465 760 q 406 795 427 795 q 365 777 385 795 q 333 723 346 759 q 321 632 321 686 q 333 529 321 570 q 363 468 345 488 q 402 448 382 448 m 405 1 q 259 35 328 1 q 138 138 190 69 q 56 310 86 207 q 26 549 26 412 q 58 739 26 657 q 144 874 90 820 q 265 956 198 928 q 403 983 332 983 q 542 956 474 983 q 665 872 610 928 q 751 734 719 817 q 783 541 783 652 q 753 303 783 405 q 671 135 723 202 q 550 34 618 67 q 405 1 481 1 m 468 1042 q 418 1055 435 1042 q 389 1086 402 1068 q 366 1114 379 1100 q 342 1123 355 1123 q 315 1076 315 1123 l 315 1071 q 299 1049 315 1055 q 268 1044 283 1044 q 249 1045 260 1044 q 229 1052 237 1047 q 220 1066 220 1057 q 230 1136 220 1101 q 266 1196 240 1172 q 342 1221 292 1221 q 397 1207 376 1221 q 434 1169 418 1194 q 479 1139 456 1139 q 496 1146 488 1139 q 508 1167 505 1154 q 511 1194 511 1181 q 524 1213 511 1206 q 551 1219 537 1219 q 577 1213 566 1219 q 589 1192 589 1206 q 579 1123 589 1158 q 542 1065 568 1088 q 468 1042 515 1042 z "},"ö":{"ha":819,"x_min":26,"x_max":783,"o":"m 402 448 q 444 469 424 448 q 476 532 463 490 q 489 635 489 574 q 477 724 489 688 q 446 778 465 760 q 406 795 427 795 q 365 777 385 795 q 333 723 346 759 q 321 632 321 686 q 333 529 321 570 q 363 468 345 488 q 402 448 382 448 m 405 1 q 259 35 328 1 q 138 138 190 69 q 56 310 86 207 q 26 549 26 412 q 58 739 26 657 q 144 874 90 820 q 265 956 198 928 q 403 983 332 983 q 542 956 474 983 q 665 872 610 928 q 751 734 719 817 q 783 541 783 652 q 753 303 783 405 q 671 135 723 202 q 550 34 618 67 q 405 1 481 1 m 290 1042 q 215 1069 246 1042 q 184 1135 184 1097 q 215 1201 184 1174 q 290 1229 246 1229 q 363 1201 333 1229 q 394 1135 394 1174 q 363 1069 394 1097 q 290 1042 333 1042 m 520 1042 q 446 1069 477 1042 q 416 1135 416 1097 q 446 1201 416 1174 q 520 1229 477 1229 q 594 1201 564 1229 q 625 1135 625 1174 q 594 1069 625 1097 q 520 1042 564 1042 z "},"÷":{"ha":574,"x_min":34,"x_max":541,"o":"m 507 405 l 504 405 q 412 410 461 406 q 288 416 351 416 q 162 410 218 416 q 70 405 113 405 q 44 435 54 405 q 34 498 34 465 q 70 568 34 568 q 164 563 111 567 q 303 557 233 557 q 429 564 368 557 q 509 568 473 567 q 533 544 526 568 q 541 491 541 519 q 532 432 541 460 q 507 405 524 405 m 288 590 q 214 617 244 590 q 183 684 183 645 q 214 750 183 722 q 288 777 244 777 q 361 750 331 777 q 392 684 392 722 q 361 617 392 645 q 288 590 331 590 m 288 195 q 214 222 244 195 q 183 288 183 250 q 214 354 183 327 q 288 382 244 382 q 361 354 331 382 q 392 288 392 327 q 361 222 392 250 q 288 195 331 195 z "},"ø":{"ha":819,"x_min":26,"x_max":783,"o":"m 404 448 q 445 469 425 448 q 477 532 465 490 q 490 635 490 574 q 478 724 490 688 q 447 778 466 760 q 407 795 428 795 q 367 777 386 795 q 335 723 347 759 q 322 632 322 686 q 334 529 322 570 q 365 468 346 488 q 404 448 383 448 m 327 -93 q 235 -73 281 -93 q 160 -18 190 -54 q 130 64 130 17 q 146 127 130 90 q 26 549 26 277 q 58 739 26 657 q 265 956 120 897 q 392 983 328 981 q 453 1029 414 1015 q 526 1043 488 1043 q 599 1029 564 1043 q 657 989 635 1015 q 680 926 680 963 q 667 870 680 901 q 783 541 783 749 q 671 135 783 280 q 458 5 586 25 q 441 -38 454 -20 q 327 -93 405 -93 z "},"ù":{"ha":866,"x_min":28,"x_max":836,"o":"m 669 1 q 560 20 612 1 q 479 76 507 39 q 326 1 416 12 l 302 1 q 202 18 243 1 q 134 63 161 36 q 92 119 107 90 q 71 174 77 149 q 64 213 64 200 l 65 220 q 87 454 87 340 q 33 825 87 638 q 28 856 28 841 q 51 917 28 892 q 111 953 75 941 q 189 965 148 965 q 266 953 229 965 q 326 916 302 941 q 349 855 349 892 q 347 830 349 843 q 325 633 325 728 q 327 568 325 600 q 349 413 334 473 q 385 325 365 353 q 426 297 405 297 q 489 368 461 297 q 517 569 517 439 q 479 826 517 696 q 474 858 474 843 q 499 921 474 895 q 564 959 525 946 q 645 972 603 972 q 717 961 683 972 q 773 926 751 949 q 795 867 795 903 q 792 842 795 855 q 762 557 762 694 q 829 146 762 354 q 836 109 836 126 q 812 48 836 72 q 750 12 788 24 q 669 1 712 1 m 458 1042 q 425 1058 439 1042 q 364 1113 409 1079 q 262 1174 319 1147 q 244 1205 244 1185 q 276 1275 244 1237 q 340 1314 309 1314 q 370 1297 357 1314 q 425 1213 403 1251 q 470 1146 448 1176 q 523 1090 492 1116 q 526 1084 526 1087 q 504 1057 526 1072 q 458 1042 482 1042 z "},"ú":{"ha":866,"x_min":28,"x_max":836,"o":"m 669 1 q 560 20 612 1 q 479 76 507 39 q 326 1 416 12 l 302 1 q 202 18 243 1 q 134 63 161 36 q 92 119 107 90 q 71 174 77 149 q 64 213 64 200 l 65 220 q 87 454 87 340 q 33 825 87 638 q 28 856 28 841 q 51 917 28 892 q 111 953 75 941 q 189 965 148 965 q 266 953 229 965 q 326 916 302 941 q 349 855 349 892 q 347 830 349 843 q 325 633 325 728 q 327 568 325 600 q 349 413 334 473 q 385 325 365 353 q 426 297 405 297 q 489 368 461 297 q 517 569 517 439 q 479 826 517 696 q 474 858 474 843 q 499 921 474 895 q 564 959 525 946 q 645 972 603 972 q 717 961 683 972 q 773 926 751 949 q 795 867 795 903 q 792 842 795 855 q 762 557 762 694 q 829 146 762 354 q 836 109 836 126 q 812 48 836 72 q 750 12 788 24 q 669 1 712 1 m 406 1042 q 360 1057 382 1042 q 338 1084 338 1072 q 341 1090 338 1087 q 395 1146 372 1116 q 439 1213 417 1176 q 494 1297 462 1251 q 524 1314 507 1314 q 588 1275 556 1314 q 621 1205 621 1237 q 602 1174 621 1185 q 500 1113 545 1147 q 439 1058 455 1079 q 406 1042 425 1042 z "},"û":{"ha":866,"x_min":28,"x_max":836,"o":"m 669 1 q 560 20 612 1 q 479 76 507 39 q 326 1 416 12 l 302 1 q 202 18 243 1 q 134 63 161 36 q 92 119 107 90 q 71 174 77 149 q 64 213 64 200 l 65 220 q 87 454 87 340 q 33 825 87 638 q 28 856 28 841 q 51 917 28 892 q 111 953 75 941 q 189 965 148 965 q 266 953 229 965 q 326 916 302 941 q 349 855 349 892 q 347 830 349 843 q 325 633 325 728 q 327 568 325 600 q 349 413 334 473 q 385 325 365 353 q 426 297 405 297 q 489 368 461 297 q 517 569 517 439 q 479 826 517 696 q 474 858 474 843 q 499 921 474 895 q 564 959 525 946 q 645 972 603 972 q 717 961 683 972 q 773 926 751 949 q 795 867 795 903 q 792 842 795 855 q 762 557 762 694 q 829 146 762 354 q 836 109 836 126 q 812 48 836 72 q 750 12 788 24 q 669 1 712 1 m 538 1042 q 507 1057 520 1042 q 450 1145 464 1117 q 431 1169 437 1169 q 414 1146 425 1169 q 357 1057 400 1118 q 326 1042 344 1042 q 271 1065 299 1042 q 243 1110 243 1088 q 254 1129 243 1121 q 301 1170 273 1143 q 354 1222 330 1196 q 387 1257 378 1247 q 405 1267 392 1264 q 432 1271 417 1271 q 459 1267 446 1271 q 477 1257 472 1264 q 510 1222 486 1247 q 563 1170 534 1197 q 610 1129 591 1143 q 620 1110 620 1121 q 592 1065 620 1088 q 538 1042 565 1042 z "},"ü":{"ha":866,"x_min":28,"x_max":836,"o":"m 669 1 q 560 20 612 1 q 479 76 507 39 q 326 1 416 12 l 302 1 q 202 18 243 1 q 134 63 161 36 q 92 119 107 90 q 71 174 77 149 q 64 213 64 200 l 65 220 q 87 454 87 340 q 33 825 87 638 q 28 856 28 841 q 51 917 28 892 q 111 953 75 941 q 189 965 148 965 q 266 953 229 965 q 326 916 302 941 q 349 855 349 892 q 347 830 349 843 q 325 633 325 728 q 327 568 325 600 q 349 413 334 473 q 385 325 365 353 q 426 297 405 297 q 489 368 461 297 q 517 569 517 439 q 479 826 517 696 q 474 858 474 843 q 499 921 474 895 q 564 959 525 946 q 645 972 603 972 q 717 961 683 972 q 773 926 751 949 q 795 867 795 903 q 792 842 795 855 q 762 557 762 694 q 829 146 762 354 q 836 109 836 126 q 812 48 836 72 q 750 12 788 24 q 669 1 712 1 m 317 1042 q 242 1069 273 1042 q 212 1135 212 1097 q 242 1201 212 1174 q 317 1229 273 1229 q 391 1201 360 1229 q 421 1135 421 1174 q 391 1069 421 1097 q 317 1042 360 1042 m 547 1042 q 473 1069 504 1042 q 443 1135 443 1097 q 473 1201 443 1174 q 547 1229 504 1229 q 622 1201 591 1229 q 652 1135 652 1174 q 622 1069 652 1097 q 547 1042 591 1042 z "},"ý":{"ha":857,"x_min":-20,"x_max":854,"o":"m 393 -1 q 310 10 349 -1 q 247 44 271 21 q 223 104 223 68 q 228 136 223 119 q 277 431 275 299 q 193 614 277 523 q 26 746 123 690 q -20 817 -20 774 q 9 889 -20 853 q 86 948 39 924 q 192 972 134 972 q 254 961 227 972 q 300 915 282 950 q 311 890 306 903 q 374 762 350 805 q 417 719 397 719 q 464 766 439 719 q 532 908 490 813 l 535 915 q 580 961 552 950 q 642 972 608 972 q 748 948 701 972 q 825 889 795 924 q 854 817 854 853 q 808 746 854 774 q 700 670 751 713 q 580 450 580 569 q 626 161 583 313 q 629 135 629 147 q 593 62 629 92 q 503 15 557 31 q 393 -1 449 -1 m 391 1042 q 345 1057 367 1042 q 323 1084 323 1072 q 326 1090 323 1087 q 380 1146 357 1116 q 425 1213 402 1176 q 479 1297 447 1251 q 509 1314 492 1314 q 573 1275 541 1314 q 606 1205 606 1237 q 587 1174 606 1185 q 485 1113 530 1147 q 424 1058 440 1079 q 391 1042 410 1042 z "},"þ":{"ha":811,"x_min":17,"x_max":791,"o":"m 416 619 q 448 622 430 619 q 555 656 521 634 q 589 702 589 679 q 557 744 589 726 q 467 762 524 762 q 372 731 402 760 q 342 673 342 702 q 360 635 342 651 q 416 619 378 619 m 211 1 q 130 12 168 1 q 69 46 92 23 q 46 106 46 70 q 51 138 46 121 q 100 486 100 317 q 75 826 100 627 q 22 1135 50 1026 q 17 1168 17 1153 q 41 1230 17 1207 q 103 1262 65 1252 q 182 1272 140 1272 q 268 1259 229 1272 q 331 1223 307 1247 q 355 1161 355 1198 q 350 1128 355 1145 q 337 1046 337 1079 q 350 995 337 1013 q 406 967 371 967 q 445 972 416 967 q 515 978 475 978 q 668 940 607 978 q 760 840 730 901 q 791 709 791 778 q 770 596 791 652 q 707 496 749 541 q 603 425 666 452 q 457 398 541 398 q 395 387 412 398 q 378 353 378 376 q 401 265 378 330 q 435 163 418 221 q 438 138 438 150 q 404 64 438 94 q 317 17 369 33 q 211 1 264 1 z "},"ÿ":{"ha":857,"x_min":-20,"x_max":854,"o":"m 393 -1 q 310 10 349 -1 q 247 44 271 21 q 223 104 223 68 q 228 136 223 119 q 277 431 275 299 q 193 614 277 523 q 26 746 123 690 q -20 817 -20 774 q 9 889 -20 853 q 86 948 39 924 q 192 972 134 972 q 254 961 227 972 q 300 915 282 950 q 311 890 306 903 q 374 762 350 805 q 417 719 397 719 q 464 766 439 719 q 532 908 490 813 l 535 915 q 580 961 552 950 q 642 972 608 972 q 748 948 701 972 q 825 889 795 924 q 854 817 854 853 q 808 746 854 774 q 700 670 751 713 q 580 450 580 569 q 626 161 583 313 q 629 135 629 147 q 593 62 629 92 q 503 15 557 31 q 393 -1 449 -1 m 302 1042 q 228 1069 258 1042 q 197 1135 197 1097 q 228 1201 197 1174 q 302 1229 258 1229 q 376 1201 345 1229 q 406 1135 406 1174 q 376 1069 406 1097 q 302 1042 345 1042 m 532 1042 q 458 1069 489 1042 q 428 1135 428 1097 q 458 1201 428 1174 q 532 1229 489 1229 q 607 1201 576 1229 q 637 1135 637 1174 q 607 1069 637 1097 q 532 1042 576 1042 z "},"Ā":{"ha":854,"x_min":4,"x_max":840,"o":"m 676 1 q 570 17 623 1 q 484 64 518 33 q 449 137 449 94 q 452 163 449 149 q 464 205 458 185 q 485 305 479 258 l 486 317 q 467 345 486 336 q 426 355 448 355 q 381 344 402 355 q 359 313 359 333 q 382 202 363 258 l 393 163 q 396 138 396 150 q 361 64 396 94 q 275 17 327 33 q 169 1 222 1 q 88 12 125 1 q 27 46 50 23 q 4 106 4 70 q 9 138 4 121 q 104 560 75 395 q 150 762 127 682 q 207 889 172 843 q 299 951 241 930 q 420 972 357 972 q 550 949 489 972 q 644 880 611 926 q 696 755 676 833 q 739 562 717 677 q 836 138 769 396 q 840 106 840 120 q 817 46 840 70 q 757 12 794 23 q 676 1 720 1 m 422 536 q 469 545 448 536 q 491 576 491 555 q 490 585 491 580 q 459 670 478 631 q 422 708 440 708 q 382 667 405 708 q 353 577 359 625 l 352 569 q 374 544 352 553 q 422 536 397 536 m 593 1043 l 536 1046 q 420 1053 478 1053 q 304 1046 363 1053 q 250 1043 258 1043 q 227 1066 235 1043 q 218 1116 218 1090 q 225 1154 218 1137 q 247 1171 232 1171 q 328 1166 288 1171 q 432 1162 376 1162 q 553 1168 496 1162 q 595 1171 588 1171 q 617 1153 610 1171 q 624 1112 624 1134 q 616 1065 624 1087 q 593 1043 608 1043 z "},"ā":{"ha":800,"x_min":28,"x_max":758,"o":"m 551 9 q 448 31 502 9 q 398 14 425 19 q 334 9 372 9 q 208 34 264 9 q 111 102 151 60 q 50 196 71 144 q 28 302 28 248 q 59 421 28 363 q 156 516 90 478 q 326 559 222 553 q 343 559 336 559 q 362 560 350 560 q 395 558 383 560 q 422 556 407 556 q 458 572 446 556 q 469 608 469 587 q 457 655 469 631 q 422 696 445 680 q 370 713 400 713 q 327 695 347 713 q 297 641 307 676 q 264 586 287 603 q 214 569 241 569 q 151 585 183 569 q 98 628 119 602 q 76 684 76 654 q 125 843 79 781 q 242 936 172 905 q 384 966 313 966 q 508 942 447 966 q 620 870 570 918 q 699 751 669 823 q 729 583 729 679 l 728 536 q 727 468 727 505 q 736 293 727 387 q 758 117 751 150 q 758 105 758 112 q 724 55 758 77 q 642 21 690 33 q 551 9 594 9 m 277 300 q 390 329 334 300 q 446 387 446 358 q 424 413 446 401 q 354 424 402 424 l 329 424 q 240 397 270 422 q 210 347 210 372 q 227 314 210 328 q 277 300 243 300 m 555 1042 l 498 1046 q 382 1052 440 1052 q 267 1046 325 1052 q 212 1042 220 1042 q 189 1066 197 1042 q 180 1115 180 1089 q 187 1153 180 1136 q 209 1171 194 1171 q 290 1166 250 1170 q 394 1161 338 1161 q 515 1168 458 1161 q 557 1171 550 1171 q 579 1152 572 1171 q 586 1111 586 1133 q 578 1064 586 1086 q 555 1042 570 1042 z "},"Ă":{"ha":854,"x_min":4,"x_max":840,"o":"m 676 1 q 570 17 623 1 q 484 64 518 33 q 449 137 449 94 q 452 163 449 149 q 464 205 458 185 q 485 305 479 258 l 486 317 q 467 345 486 336 q 426 355 448 355 q 381 344 402 355 q 359 313 359 333 q 382 202 363 258 l 393 163 q 396 138 396 150 q 361 64 396 94 q 275 17 327 33 q 169 1 222 1 q 88 12 125 1 q 27 46 50 23 q 4 106 4 70 q 9 138 4 121 q 104 560 75 395 q 150 762 127 682 q 207 889 172 843 q 299 951 241 930 q 420 972 357 972 q 550 949 489 972 q 644 880 611 926 q 696 755 676 833 q 739 562 717 677 q 836 138 769 396 q 840 106 840 120 q 817 46 840 70 q 757 12 794 23 q 676 1 720 1 m 422 536 q 469 545 448 536 q 491 576 491 555 q 490 585 491 580 q 459 670 478 631 q 422 708 440 708 q 382 667 405 708 q 353 577 359 625 l 352 569 q 374 544 352 553 q 422 536 397 536 m 418 1043 q 291 1076 349 1043 q 220 1176 233 1109 l 219 1182 q 240 1218 219 1204 q 285 1233 262 1233 q 310 1226 299 1233 q 326 1202 321 1219 q 362 1139 336 1160 q 420 1118 389 1118 q 479 1140 451 1118 q 517 1206 507 1162 q 532 1229 521 1222 q 557 1236 543 1236 q 602 1222 581 1236 q 623 1185 623 1207 l 623 1179 q 550 1077 610 1112 q 418 1043 490 1043 z "},"ă":{"ha":800,"x_min":28,"x_max":758,"o":"m 551 9 q 448 31 502 9 q 398 14 425 19 q 334 9 372 9 q 208 34 264 9 q 111 102 151 60 q 50 196 71 144 q 28 302 28 248 q 59 421 28 363 q 156 516 90 478 q 326 559 222 553 q 343 559 336 559 q 362 560 350 560 q 395 558 383 560 q 422 556 407 556 q 458 572 446 556 q 469 608 469 587 q 457 655 469 631 q 422 696 445 680 q 370 713 400 713 q 327 695 347 713 q 297 641 307 676 q 264 586 287 603 q 214 569 241 569 q 151 585 183 569 q 98 628 119 602 q 76 684 76 654 q 125 843 79 781 q 242 936 172 905 q 384 966 313 966 q 508 942 447 966 q 620 870 570 918 q 699 751 669 823 q 729 583 729 679 l 728 536 q 727 468 727 505 q 736 293 727 387 q 758 117 751 150 q 758 105 758 112 q 724 55 758 77 q 642 21 690 33 q 551 9 594 9 m 277 300 q 390 329 334 300 q 446 387 446 358 q 424 413 446 401 q 354 424 402 424 l 329 424 q 240 397 270 422 q 210 347 210 372 q 227 314 210 328 q 277 300 243 300 m 380 1042 q 253 1076 311 1042 q 182 1175 195 1109 l 181 1181 q 202 1218 181 1203 q 247 1232 224 1232 q 272 1225 261 1232 q 288 1202 283 1218 q 324 1139 298 1160 q 382 1118 351 1118 q 441 1140 413 1118 q 479 1205 469 1162 q 494 1229 483 1221 q 519 1236 505 1236 q 564 1221 543 1236 q 585 1185 585 1206 l 585 1179 q 512 1077 572 1111 q 380 1042 452 1042 z "},"Ą":{"ha":854,"x_min":4,"x_max":840,"o":"m 422 536 q 469 545 448 536 q 491 576 491 555 q 490 585 491 580 q 459 670 478 631 q 422 708 440 708 q 382 667 405 708 q 353 577 359 625 q 352 574 353 574 l 352 569 q 374 544 352 553 q 422 536 397 536 m 656 -203 q 581 -178 613 -203 q 549 -106 549 -152 q 574 16 549 -54 q 484 63 519 32 q 449 137 449 94 q 464 205 449 156 q 485 318 485 277 q 466 345 485 336 q 426 355 448 355 q 381 344 402 355 q 361 315 361 334 q 381 202 361 267 q 396 138 396 154 q 361 64 396 94 q 275 17 327 33 q 169 1 222 1 q 88 12 125 1 q 27 46 50 23 q 4 106 4 70 q 8 138 4 121 q 105 560 75 395 q 150 762 127 682 q 208 888 172 843 q 299 951 241 930 q 420 972 357 972 q 550 949 489 972 q 644 879 611 926 q 696 755 676 833 q 738 562 717 677 q 836 138 769 396 q 840 106 840 120 q 817 46 840 70 q 757 12 794 23 q 676 1 720 1 q 672 -23 672 -12 q 709 -82 673 -82 q 762 -39 736 -82 q 776 -29 767 -29 q 800 -43 788 -29 q 812 -76 812 -57 q 808 -94 812 -85 q 740 -177 783 -151 q 656 -203 698 -203 z "},"ą":{"ha":800,"x_min":28,"x_max":816,"o":"m 277 300 q 390 329 334 300 q 446 387 446 358 q 425 412 446 401 q 359 423 404 423 l 329 423 q 240 397 270 422 q 210 347 210 372 q 227 314 210 328 q 277 300 243 300 m 661 -203 q 586 -178 617 -203 q 554 -108 554 -153 q 577 10 554 -56 q 551 9 564 9 q 448 31 502 9 q 334 9 405 9 q 208 34 264 9 q 111 102 151 60 q 50 196 71 144 q 28 302 28 248 q 59 421 28 363 q 156 516 90 478 q 326 558 222 553 l 378 559 q 398 557 390 559 q 422 556 407 556 q 458 572 446 556 q 469 608 469 587 q 457 655 469 631 q 422 696 445 680 q 370 713 400 713 q 327 695 347 713 q 297 641 307 676 q 214 569 278 569 q 151 585 183 569 q 98 627 119 602 q 77 682 77 653 q 125 843 77 778 q 242 936 172 905 q 384 966 313 966 q 508 942 447 966 q 620 870 570 918 q 699 751 669 823 q 729 583 729 679 q 728 536 729 554 q 727 468 727 513 q 736 293 727 387 q 758 117 755 120 q 758 113 758 115 q 758 105 758 112 q 693 39 758 68 q 677 -23 677 1 q 713 -82 677 -82 q 766 -39 741 -82 q 780 -29 771 -29 q 804 -43 792 -29 q 816 -76 816 -57 q 812 -94 816 -85 q 745 -177 787 -151 q 661 -203 703 -203 z "},"Ć":{"ha":759,"x_min":23,"x_max":732,"o":"m 385 1 q 230 44 297 1 q 116 160 162 87 q 46 322 70 233 q 23 506 23 412 q 45 678 23 595 q 111 827 66 762 q 224 932 156 893 q 385 972 292 972 q 517 948 452 972 q 628 872 581 925 q 691 732 675 819 q 692 721 692 727 q 669 665 692 692 q 614 621 647 638 q 549 604 581 604 q 502 620 522 604 q 475 672 481 636 q 453 720 469 703 q 417 737 437 737 q 343 692 366 734 q 320 588 320 650 q 333 494 320 541 q 366 417 345 448 q 413 387 387 387 q 472 415 443 389 q 524 473 502 441 q 591 514 553 514 q 659 481 627 514 q 712 398 691 449 q 732 294 732 348 q 721 224 732 258 q 590 59 682 117 q 385 1 498 1 m 361 1043 q 315 1058 337 1043 q 294 1084 294 1073 q 296 1090 294 1088 q 350 1146 328 1116 q 395 1214 372 1177 q 449 1298 417 1251 q 479 1314 463 1314 q 544 1276 511 1314 q 576 1206 576 1238 q 557 1175 576 1185 q 455 1114 500 1147 q 394 1059 410 1080 q 361 1043 380 1043 z "},"ć":{"ha":760,"x_min":25,"x_max":732,"o":"m 390 12 q 234 54 302 12 q 119 168 165 97 q 49 328 73 239 q 25 508 25 416 q 47 674 25 593 q 113 819 68 755 q 225 921 157 883 q 386 958 294 958 q 493 945 439 958 q 592 903 547 932 q 665 825 637 873 q 692 706 692 777 q 670 653 692 678 q 614 612 647 627 q 551 596 581 596 q 503 612 524 596 q 475 663 481 627 q 453 712 470 696 q 414 728 436 728 q 363 709 383 728 q 333 658 342 690 q 323 589 323 627 q 336 503 323 545 q 373 432 349 460 q 433 404 397 404 q 478 418 456 404 q 525 466 500 431 q 591 507 557 507 q 659 475 627 507 q 712 393 691 443 q 732 290 732 343 q 721 220 732 254 q 593 63 683 115 q 390 12 503 12 m 363 1042 q 318 1057 340 1042 q 296 1084 296 1072 q 299 1090 296 1087 q 353 1146 330 1116 q 397 1213 375 1176 q 452 1297 420 1251 q 482 1314 465 1314 q 546 1275 514 1314 q 578 1205 578 1237 q 559 1174 578 1185 q 458 1113 503 1147 q 397 1058 413 1079 q 363 1042 382 1042 z "},"Ĉ":{"ha":759,"x_min":23,"x_max":732,"o":"m 385 1 q 230 44 297 1 q 116 160 162 87 q 46 322 70 233 q 23 506 23 412 q 45 678 23 595 q 111 827 66 762 q 224 932 156 893 q 385 972 292 972 q 517 948 452 972 q 628 872 581 925 q 691 732 675 819 q 692 721 692 727 q 669 665 692 692 q 614 621 647 638 q 549 604 581 604 q 502 620 522 604 q 475 672 481 636 q 453 720 469 703 q 417 737 437 737 q 343 692 366 734 q 320 588 320 650 q 333 494 320 541 q 366 417 345 448 q 413 387 387 387 q 472 415 443 389 q 524 473 502 441 q 591 514 553 514 q 659 481 627 514 q 712 398 691 449 q 732 294 732 348 q 721 224 732 258 q 590 59 682 117 q 385 1 498 1 m 493 1042 q 463 1057 475 1042 q 405 1145 419 1118 q 386 1170 393 1170 q 369 1147 380 1170 q 312 1057 355 1118 q 281 1042 299 1042 q 227 1066 254 1042 q 199 1111 199 1089 q 209 1130 199 1122 q 256 1171 228 1144 q 309 1222 285 1197 q 342 1258 334 1248 q 360 1268 347 1265 q 387 1272 372 1272 q 414 1268 401 1272 q 433 1258 427 1265 q 465 1223 441 1248 q 518 1171 490 1198 q 565 1130 546 1144 q 575 1111 575 1122 q 548 1066 575 1089 q 493 1042 520 1042 z "},"ĉ":{"ha":760,"x_min":25,"x_max":732,"o":"m 390 12 q 234 54 302 12 q 119 168 165 97 q 49 328 73 239 q 25 508 25 416 q 47 674 25 593 q 113 819 68 755 q 225 921 157 883 q 386 958 294 958 q 493 945 439 958 q 592 903 547 932 q 665 825 637 873 q 692 706 692 777 q 670 653 692 678 q 614 612 647 627 q 551 596 581 596 q 503 612 524 596 q 475 663 481 627 q 453 712 470 696 q 414 728 436 728 q 363 709 383 728 q 333 658 342 690 q 323 589 323 627 q 336 503 323 545 q 373 432 349 460 q 433 404 397 404 q 478 418 456 404 q 525 466 500 431 q 591 507 557 507 q 659 475 627 507 q 712 393 691 443 q 732 290 732 343 q 721 220 732 254 q 593 63 683 115 q 390 12 503 12 m 496 1042 q 465 1057 478 1042 q 408 1145 422 1117 q 389 1169 395 1169 q 372 1146 382 1169 q 315 1057 358 1118 q 284 1042 302 1042 q 229 1065 257 1042 q 201 1110 201 1088 q 212 1129 201 1121 q 259 1170 231 1143 q 312 1222 288 1196 q 345 1257 336 1247 q 362 1267 350 1264 q 390 1271 375 1271 q 417 1267 404 1271 q 435 1257 430 1264 q 468 1222 444 1247 q 520 1170 492 1197 q 568 1129 549 1143 q 578 1110 578 1121 q 550 1065 578 1088 q 496 1042 523 1042 z "},"Ċ":{"ha":759,"x_min":23,"x_max":732,"o":"m 385 1 q 230 44 297 1 q 116 160 162 87 q 46 322 70 233 q 23 506 23 412 q 45 678 23 595 q 111 827 66 762 q 224 932 156 893 q 385 972 292 972 q 517 948 452 972 q 628 872 581 925 q 691 732 675 819 q 692 721 692 727 q 669 665 692 692 q 614 621 647 638 q 549 604 581 604 q 502 620 522 604 q 475 672 481 636 q 453 720 469 703 q 417 737 437 737 q 343 692 366 734 q 320 588 320 650 q 333 494 320 541 q 366 417 345 448 q 413 387 387 387 q 472 415 443 389 q 524 473 502 441 q 591 514 553 514 q 659 481 627 514 q 712 398 691 449 q 732 294 732 348 q 721 224 732 258 q 590 59 682 117 q 385 1 498 1 m 387 1042 q 313 1070 344 1042 q 282 1136 282 1097 q 313 1202 282 1175 q 387 1230 344 1230 q 461 1202 431 1230 q 492 1136 492 1175 q 461 1070 492 1097 q 387 1042 431 1042 z "},"ċ":{"ha":760,"x_min":25,"x_max":732,"o":"m 390 12 q 234 54 302 12 q 119 168 165 97 q 49 328 73 239 q 25 508 25 416 q 47 674 25 593 q 113 819 68 755 q 225 921 157 883 q 386 958 294 958 q 493 945 439 958 q 592 903 547 932 q 665 825 637 873 q 692 706 692 777 q 670 653 692 678 q 614 612 647 627 q 551 596 581 596 q 503 612 524 596 q 475 663 481 627 q 453 712 470 696 q 414 728 436 728 q 363 709 383 728 q 333 658 342 690 q 323 589 323 627 q 336 503 323 545 q 373 432 349 460 q 433 404 397 404 q 478 418 456 404 q 525 466 500 431 q 591 507 557 507 q 659 475 627 507 q 712 393 691 443 q 732 290 732 343 q 721 220 732 254 q 593 63 683 115 q 390 12 503 12 m 390 1042 q 316 1069 347 1042 q 285 1135 285 1097 q 316 1201 285 1174 q 390 1229 347 1229 q 464 1201 433 1229 q 494 1135 494 1174 q 464 1069 494 1097 q 390 1042 433 1042 z "},"Č":{"ha":759,"x_min":23,"x_max":732,"o":"m 385 1 q 230 44 297 1 q 116 160 162 87 q 46 322 70 233 q 23 506 23 412 q 45 678 23 595 q 111 827 66 762 q 224 932 156 893 q 385 972 292 972 q 517 948 452 972 q 628 872 581 925 q 691 732 675 819 q 692 721 692 727 q 669 665 692 692 q 614 621 647 638 q 549 604 581 604 q 502 620 522 604 q 475 672 481 636 q 453 720 469 703 q 417 737 437 737 q 343 692 366 734 q 320 588 320 650 q 333 494 320 541 q 366 417 345 448 q 413 387 387 387 q 472 415 443 389 q 524 473 502 441 q 591 514 553 514 q 659 481 627 514 q 712 398 691 449 q 732 294 732 348 q 721 224 732 258 q 590 59 682 117 q 385 1 498 1 m 387 1043 q 360 1046 373 1043 q 342 1056 347 1049 q 309 1091 334 1066 q 257 1143 285 1116 q 210 1184 229 1170 q 199 1203 199 1192 q 227 1248 199 1225 q 281 1272 254 1272 q 312 1257 299 1272 q 369 1167 355 1196 q 387 1144 380 1144 q 405 1168 393 1144 q 463 1257 419 1196 q 493 1272 475 1272 q 548 1248 520 1272 q 576 1203 576 1225 q 566 1184 576 1192 q 518 1143 547 1170 q 465 1092 490 1117 q 433 1056 441 1066 q 415 1046 427 1049 q 387 1043 402 1043 z "},"č":{"ha":760,"x_min":25,"x_max":732,"o":"m 390 12 q 234 54 302 12 q 119 168 165 97 q 49 328 73 239 q 25 508 25 416 q 47 674 25 593 q 113 819 68 755 q 225 921 157 883 q 386 958 294 958 q 493 945 439 958 q 592 903 547 932 q 665 825 637 873 q 692 706 692 777 q 670 653 692 678 q 614 612 647 627 q 551 596 581 596 q 503 612 524 596 q 475 663 481 627 q 453 712 470 696 q 414 728 436 728 q 363 709 383 728 q 333 658 342 690 q 323 589 323 627 q 336 503 323 545 q 373 432 349 460 q 433 404 397 404 q 478 418 456 404 q 525 466 500 431 q 591 507 557 507 q 659 475 627 507 q 712 393 691 443 q 732 290 732 343 q 721 220 732 254 q 593 63 683 115 q 390 12 503 12 m 390 1042 q 363 1045 376 1042 q 345 1055 350 1048 q 312 1090 336 1065 q 259 1142 288 1116 q 212 1183 231 1169 q 202 1202 202 1192 q 230 1247 202 1224 q 284 1271 257 1271 q 315 1256 302 1271 q 372 1166 358 1195 q 389 1143 382 1143 q 408 1168 396 1143 q 465 1256 422 1196 q 496 1271 478 1271 q 551 1247 523 1271 q 578 1202 578 1224 q 568 1183 578 1192 q 521 1143 549 1169 q 468 1091 492 1116 q 435 1055 444 1065 q 417 1045 430 1048 q 390 1042 405 1042 z "},"Ď":{"ha":759,"x_min":39,"x_max":728,"o":"m 390 441 q 452 494 430 445 q 475 600 475 543 q 466 665 475 634 q 439 714 458 695 q 393 733 421 733 q 354 695 366 732 q 341 597 341 659 q 347 524 341 559 q 363 465 353 488 q 390 441 374 441 m 305 1 q 288 4 296 1 q 271 8 280 8 q 241 5 258 8 q 201 1 222 1 q 121 12 157 1 q 61 46 84 23 q 39 106 39 69 q 43 138 39 121 q 93 486 93 317 q 43 835 93 655 q 39 870 39 854 q 58 928 39 905 q 109 962 77 951 q 176 973 140 973 q 250 962 213 973 q 256 964 252 962 q 263 966 259 966 q 345 973 307 973 q 515 936 443 973 q 634 834 587 898 q 705 689 682 770 q 728 522 728 608 q 701 333 728 426 q 620 166 673 241 q 487 46 566 91 q 305 1 408 1 m 367 1043 q 340 1046 353 1043 q 321 1056 327 1049 q 289 1091 313 1066 q 236 1143 264 1116 q 189 1184 208 1170 q 179 1203 179 1192 q 207 1248 179 1225 q 261 1272 234 1272 q 292 1257 279 1272 q 349 1167 335 1196 q 366 1144 359 1144 q 385 1168 373 1144 q 442 1257 399 1196 q 473 1272 455 1272 q 528 1248 500 1272 q 555 1203 555 1225 q 545 1184 555 1192 q 498 1143 526 1170 q 445 1092 469 1117 q 412 1056 420 1066 q 394 1046 407 1049 q 367 1043 382 1043 z "},"ď":{"ha":1043,"x_min":20,"x_max":1009,"o":"m 373 416 q 438 442 414 416 q 463 496 463 468 q 444 538 463 519 q 382 557 425 557 q 263 531 305 555 q 222 480 222 507 q 256 438 222 457 q 366 416 291 418 l 373 416 m 598 0 q 495 16 547 0 q 355 0 438 0 q 209 34 271 0 q 104 125 146 68 q 41 253 62 182 q 20 397 20 323 q 39 533 20 467 q 96 651 58 599 q 191 734 134 703 q 323 766 248 766 q 392 759 357 766 q 427 755 415 755 q 443 768 443 755 q 429 831 443 785 q 425 860 425 846 q 452 927 425 900 q 520 969 479 955 q 606 983 562 983 q 682 971 646 983 q 741 934 718 959 q 763 871 763 909 q 758 835 763 854 q 709 486 709 655 q 758 138 709 317 q 763 106 763 121 q 740 46 763 69 q 679 11 717 22 q 598 0 642 0 m 923 720 q 889 729 905 720 q 873 749 873 738 q 889 770 873 760 q 919 803 905 780 q 933 839 933 825 q 925 848 933 848 l 909 847 q 859 869 880 847 q 838 916 838 890 q 862 964 838 945 q 922 983 886 983 q 973 971 954 983 q 1001 937 992 958 q 1009 891 1009 916 q 992 803 1009 848 q 954 732 975 758 q 923 720 941 720 z "},"Đ":{"ha":759,"x_min":-52,"x_max":728,"o":"m 305 1 q 288 4 296 1 q 271 8 280 8 q 241 5 258 8 q 201 1 222 1 q 121 12 157 1 q 61 46 84 23 q 39 106 39 69 q 43 138 39 121 q 93 486 93 317 l 92 514 q -17 507 28 507 q -42 533 -33 507 q -52 597 -52 560 q -45 645 -52 624 q -22 667 -38 667 q 80 661 16 667 q 43 835 68 747 q 39 870 39 854 q 58 928 39 905 q 109 962 77 951 q 176 973 140 973 q 250 962 213 973 q 256 964 252 962 q 263 966 259 966 q 345 973 307 973 q 515 936 443 973 q 634 834 587 898 q 705 689 682 770 q 728 522 728 608 q 701 333 728 426 q 620 166 673 241 q 487 46 566 91 q 305 1 408 1 m 390 441 q 452 494 430 445 q 475 600 475 543 q 466 665 475 634 q 439 714 458 695 q 393 733 421 733 q 346 664 357 732 q 402 667 376 666 q 424 644 417 667 q 431 593 431 621 q 422 534 431 562 q 399 507 414 507 q 350 508 375 507 q 390 441 363 441 z "},"đ":{"ha":813,"x_min":20,"x_max":850,"o":"m 373 416 q 438 442 414 416 q 463 496 463 468 q 444 538 463 519 q 382 557 425 557 q 263 531 305 555 q 222 480 222 507 q 256 438 222 457 q 373 416 296 416 m 598 0 q 495 16 547 0 q 355 0 438 0 q 209 34 271 0 q 104 125 146 68 q 41 253 62 182 q 20 397 20 323 q 39 533 20 467 q 96 651 58 599 q 191 734 134 703 q 323 766 248 766 q 392 759 357 766 q 427 755 415 755 q 443 768 443 755 q 439 796 443 779 q 315 789 358 790 q 284 816 295 789 q 273 880 273 843 q 281 928 273 907 q 309 949 290 949 q 422 944 360 949 q 467 941 444 942 q 521 969 490 959 q 606 983 562 983 q 682 971 646 983 q 729 945 710 962 q 815 949 777 949 q 842 926 833 949 q 850 876 850 903 q 840 817 850 844 q 811 789 830 789 q 747 791 780 789 q 709 486 709 635 q 758 138 709 317 q 763 106 763 121 q 740 46 763 69 q 679 11 717 22 q 598 0 642 0 z "},"Ē":{"ha":718,"x_min":38,"x_max":688,"o":"m 426 1 q 356 4 390 1 q 293 8 321 8 q 245 4 266 7 q 202 1 224 1 q 122 12 159 1 q 62 46 85 23 q 39 106 39 70 q 43 138 39 120 q 93 486 93 317 q 43 835 93 655 q 38 871 38 854 q 58 929 38 906 q 110 963 77 951 q 178 974 142 974 q 218 970 201 974 q 258 965 235 966 q 323 970 288 965 q 402 975 362 975 q 648 929 618 975 q 663 878 663 907 q 627 771 663 825 q 557 718 592 718 q 530 730 542 718 q 496 753 518 743 q 447 762 473 762 l 424 762 q 359 731 385 758 q 334 678 334 704 q 348 649 334 661 q 396 636 363 636 q 438 641 416 636 q 486 645 461 645 q 519 608 507 645 q 531 528 531 570 q 520 462 531 492 q 484 433 509 433 q 453 434 471 433 q 399 435 429 435 q 369 424 378 435 q 360 397 360 412 q 377 350 360 374 q 421 326 393 326 q 566 373 524 330 q 585 382 574 382 q 631 343 608 382 q 672 247 655 304 q 688 136 688 189 q 673 58 688 91 q 622 16 658 25 q 426 1 534 1 m 536 1043 l 478 1046 q 363 1053 420 1053 q 247 1046 305 1053 q 192 1043 201 1043 q 169 1066 178 1043 q 161 1116 161 1090 q 168 1154 161 1137 q 189 1171 174 1171 q 271 1166 230 1171 q 374 1162 318 1162 q 496 1168 438 1162 q 537 1171 530 1171 q 559 1153 552 1171 q 566 1112 566 1134 q 558 1065 566 1087 q 536 1043 550 1043 z "},"ē":{"ha":761,"x_min":25,"x_max":732,"o":"m 390 12 q 234 54 302 12 q 120 168 166 97 q 49 328 73 239 q 25 508 25 416 q 47 674 25 593 q 113 819 68 755 q 225 921 157 883 q 386 958 294 958 q 522 935 458 958 q 630 860 586 911 q 692 722 675 808 q 694 694 694 708 q 663 606 694 644 q 580 556 631 569 q 469 546 529 546 q 417 547 441 546 q 380 548 399 548 q 338 537 351 548 q 326 511 326 526 q 342 467 326 490 q 383 426 358 443 q 437 410 408 410 q 525 466 481 410 q 591 507 555 507 q 659 475 627 507 q 712 393 691 443 q 732 290 732 343 q 721 220 732 254 q 592 63 682 115 q 390 12 503 12 m 391 633 q 449 642 421 633 q 477 665 477 650 q 453 708 475 694 q 403 723 431 723 q 352 707 375 723 q 328 659 330 692 q 347 639 328 646 q 391 633 366 633 m 562 1042 l 504 1046 q 389 1052 446 1052 q 273 1046 331 1052 q 218 1042 227 1042 q 195 1066 203 1042 q 186 1115 186 1089 q 193 1153 186 1136 q 215 1171 200 1171 q 296 1166 256 1170 q 400 1161 344 1161 q 522 1168 464 1161 q 563 1171 556 1171 q 585 1152 578 1171 q 592 1111 592 1133 q 584 1064 592 1086 q 562 1042 576 1042 z "},"Ĕ":{"ha":718,"x_min":38,"x_max":688,"o":"m 426 1 q 356 4 390 1 q 293 8 321 8 q 245 4 266 7 q 202 1 224 1 q 122 12 159 1 q 62 46 85 23 q 39 106 39 70 q 43 138 39 120 q 93 486 93 317 q 43 835 93 655 q 38 871 38 854 q 58 929 38 906 q 110 963 77 951 q 178 974 142 974 q 218 970 201 974 q 258 965 235 966 q 323 970 288 965 q 402 975 362 975 q 648 929 618 975 q 663 878 663 907 q 627 771 663 825 q 557 718 592 718 q 530 730 542 718 q 496 753 518 743 q 447 762 473 762 l 424 762 q 359 731 385 758 q 334 678 334 704 q 348 649 334 661 q 396 636 363 636 q 438 641 416 636 q 486 645 461 645 q 519 608 507 645 q 531 528 531 570 q 520 462 531 492 q 484 433 509 433 q 453 434 471 433 q 399 435 429 435 q 369 424 378 435 q 360 397 360 412 q 377 350 360 374 q 421 326 393 326 q 566 373 524 330 q 585 382 574 382 q 631 343 608 382 q 672 247 655 304 q 688 136 688 189 q 673 58 688 91 q 622 16 658 25 q 426 1 534 1 m 361 1043 q 233 1076 291 1043 q 162 1176 175 1109 l 161 1182 q 183 1218 161 1204 q 227 1233 204 1233 q 253 1226 241 1233 q 268 1202 264 1219 q 304 1139 278 1160 q 362 1118 331 1118 q 421 1140 393 1118 q 459 1206 449 1162 q 474 1229 463 1222 q 500 1236 486 1236 q 544 1222 523 1236 q 566 1185 566 1207 l 565 1179 q 492 1077 552 1112 q 361 1043 432 1043 z "},"ĕ":{"ha":761,"x_min":25,"x_max":732,"o":"m 390 12 q 234 54 302 12 q 120 168 166 97 q 49 328 73 239 q 25 508 25 416 q 47 674 25 593 q 113 819 68 755 q 225 921 157 883 q 386 958 294 958 q 522 935 458 958 q 630 860 586 911 q 692 722 675 808 q 694 694 694 708 q 663 606 694 644 q 580 556 631 569 q 469 546 529 546 q 417 547 441 546 q 380 548 399 548 q 338 537 351 548 q 326 511 326 526 q 342 467 326 490 q 383 426 358 443 q 437 410 408 410 q 525 466 481 410 q 591 507 555 507 q 659 475 627 507 q 712 393 691 443 q 732 290 732 343 q 721 220 732 254 q 592 63 682 115 q 390 12 503 12 m 391 633 q 449 642 421 633 q 477 665 477 650 q 453 708 475 694 q 403 723 431 723 q 352 707 375 723 q 328 659 330 692 q 347 639 328 646 q 391 633 366 633 m 387 1042 q 259 1076 317 1042 q 188 1175 201 1109 l 187 1181 q 209 1218 187 1203 q 253 1232 230 1232 q 278 1225 267 1232 q 294 1202 290 1218 q 330 1139 304 1160 q 388 1118 357 1118 q 447 1140 419 1118 q 485 1205 475 1162 q 500 1229 489 1221 q 526 1236 511 1236 q 570 1221 549 1236 q 591 1185 591 1206 l 591 1179 q 518 1077 578 1111 q 387 1042 458 1042 z "},"Ė":{"ha":718,"x_min":38,"x_max":688,"o":"m 426 1 q 356 4 390 1 q 293 8 321 8 q 245 4 266 7 q 202 1 224 1 q 122 12 159 1 q 62 46 85 23 q 39 106 39 70 q 43 138 39 120 q 93 486 93 317 q 43 835 93 655 q 38 871 38 854 q 58 929 38 906 q 110 963 77 951 q 178 974 142 974 q 218 970 201 974 q 258 965 235 966 q 323 970 288 965 q 402 975 362 975 q 648 929 618 975 q 663 878 663 907 q 627 771 663 825 q 557 718 592 718 q 530 730 542 718 q 496 753 518 743 q 447 762 473 762 l 424 762 q 359 731 385 758 q 334 678 334 704 q 348 649 334 661 q 396 636 363 636 q 438 641 416 636 q 486 645 461 645 q 519 608 507 645 q 531 528 531 570 q 520 462 531 492 q 484 433 509 433 q 453 434 471 433 q 399 435 429 435 q 369 424 378 435 q 360 397 360 412 q 377 350 360 374 q 421 326 393 326 q 566 373 524 330 q 585 382 574 382 q 631 343 608 382 q 672 247 655 304 q 688 136 688 189 q 673 58 688 91 q 622 16 658 25 q 426 1 534 1 m 363 1042 q 289 1070 320 1042 q 258 1136 258 1097 q 289 1202 258 1175 q 363 1230 320 1230 q 437 1202 407 1230 q 468 1136 468 1175 q 437 1070 468 1097 q 363 1042 407 1042 z "},"ė":{"ha":761,"x_min":25,"x_max":732,"o":"m 390 12 q 234 54 302 12 q 120 168 166 97 q 49 328 73 239 q 25 508 25 416 q 47 674 25 593 q 113 819 68 755 q 225 921 157 883 q 386 958 294 958 q 522 935 458 958 q 630 860 586 911 q 692 722 675 808 q 694 694 694 708 q 663 606 694 644 q 580 556 631 569 q 469 546 529 546 q 417 547 441 546 q 380 548 399 548 q 338 537 351 548 q 326 511 326 526 q 342 467 326 490 q 383 426 358 443 q 437 410 408 410 q 525 466 481 410 q 591 507 555 507 q 659 475 627 507 q 712 393 691 443 q 732 290 732 343 q 721 220 732 254 q 592 63 682 115 q 390 12 503 12 m 391 633 q 449 642 421 633 q 477 665 477 650 q 453 708 475 694 q 403 723 431 723 q 352 707 375 723 q 328 659 330 692 q 347 639 328 646 q 391 633 366 633 m 389 1042 q 315 1069 346 1042 q 284 1135 284 1097 q 315 1201 284 1174 q 389 1229 346 1229 q 463 1201 433 1229 q 494 1135 494 1174 q 463 1069 494 1097 q 389 1042 433 1042 z "},"Ę":{"ha":718,"x_min":38,"x_max":688,"o":"m 385 -237 q 310 -212 341 -237 q 278 -142 278 -186 q 313 7 278 -80 q 245 4 266 7 q 202 1 224 1 q 122 12 159 1 q 62 46 85 23 q 39 106 39 70 q 43 138 39 120 q 93 486 93 317 q 43 835 93 655 q 38 871 38 854 q 58 929 38 906 q 110 963 77 951 q 178 974 142 974 q 218 970 201 974 q 265 966 235 966 q 323 970 293 966 q 402 975 362 975 q 599 958 510 975 q 663 878 663 945 q 627 771 663 825 q 557 718 592 718 q 530 730 542 718 q 496 752 518 743 q 450 762 475 762 q 424 760 437 762 q 359 731 385 758 q 334 678 334 704 q 348 649 334 661 q 396 636 363 636 q 438 641 416 636 q 486 645 461 645 q 519 608 507 645 q 531 528 531 570 q 520 462 531 492 q 484 433 509 433 q 453 434 471 433 q 399 435 429 435 q 369 424 378 435 q 360 397 360 412 q 376 350 360 374 q 420 327 393 327 q 566 373 524 330 q 585 382 574 382 q 631 343 608 382 q 672 247 655 304 q 688 136 688 189 q 621 19 688 33 q 416 1 534 1 l 408 -21 q 400 -59 400 -41 q 438 -116 404 -116 q 490 -73 466 -116 q 505 -63 496 -63 q 529 -77 517 -63 q 541 -110 541 -91 q 536 -128 541 -119 q 469 -211 511 -184 q 385 -237 427 -237 z "},"ę":{"ha":761,"x_min":25,"x_max":732,"o":"m 391 633 q 449 642 421 633 q 476 665 476 650 q 453 708 476 693 q 403 723 431 723 q 352 707 375 723 q 328 659 328 691 q 347 639 328 646 q 391 633 366 633 m 487 -203 q 412 -178 444 -203 q 380 -108 380 -153 q 404 12 380 -56 l 390 12 q 234 54 302 12 q 120 168 166 97 q 49 328 73 239 q 25 508 25 416 q 47 674 25 593 q 113 819 68 755 q 225 921 157 883 q 386 958 294 958 q 522 935 458 958 q 630 860 586 911 q 692 722 675 808 q 694 694 694 708 q 663 606 694 644 q 580 557 631 569 q 469 546 529 546 q 417 547 441 546 q 380 548 399 548 q 326 511 326 548 q 342 467 326 490 q 383 426 358 443 q 437 410 408 410 q 524 467 481 410 q 591 507 555 507 q 659 475 627 507 q 712 393 691 443 q 732 290 732 343 q 720 220 732 254 q 516 30 668 76 q 503 -22 503 0 q 540 -82 503 -82 q 592 -39 567 -82 q 606 -29 597 -29 q 630 -43 618 -29 q 642 -76 642 -57 q 638 -94 642 -85 q 570 -177 612 -151 q 487 -203 528 -203 z "},"Ě":{"ha":718,"x_min":38,"x_max":688,"o":"m 426 1 q 356 4 390 1 q 293 8 321 8 q 245 4 266 7 q 202 1 224 1 q 122 12 159 1 q 62 46 85 23 q 39 106 39 70 q 43 138 39 120 q 93 486 93 317 q 43 835 93 655 q 38 871 38 854 q 58 929 38 906 q 110 963 77 951 q 178 974 142 974 q 218 970 201 974 q 258 965 235 966 q 323 970 288 965 q 402 975 362 975 q 648 929 618 975 q 663 878 663 907 q 627 771 663 825 q 557 718 592 718 q 530 730 542 718 q 496 753 518 743 q 447 762 473 762 l 424 762 q 359 731 385 758 q 334 678 334 704 q 348 649 334 661 q 396 636 363 636 q 438 641 416 636 q 486 645 461 645 q 519 608 507 645 q 531 528 531 570 q 520 462 531 492 q 484 433 509 433 q 453 434 471 433 q 399 435 429 435 q 369 424 378 435 q 360 397 360 412 q 377 350 360 374 q 421 326 393 326 q 566 373 524 330 q 585 382 574 382 q 631 343 608 382 q 672 247 655 304 q 688 136 688 189 q 673 58 688 91 q 622 16 658 25 q 426 1 534 1 m 363 1043 q 336 1046 349 1043 q 318 1056 323 1049 q 286 1091 310 1066 q 233 1143 261 1116 q 186 1184 205 1170 q 176 1203 176 1192 q 203 1248 176 1225 q 258 1272 231 1272 q 288 1257 275 1272 q 345 1167 332 1196 q 363 1144 356 1144 q 381 1168 370 1144 q 439 1257 395 1196 q 469 1272 452 1272 q 524 1248 496 1272 q 552 1203 552 1225 q 542 1184 552 1192 q 494 1143 523 1170 q 441 1092 466 1117 q 409 1056 417 1066 q 391 1046 404 1049 q 363 1043 378 1043 z "},"ě":{"ha":761,"x_min":25,"x_max":732,"o":"m 390 12 q 234 54 302 12 q 120 168 166 97 q 49 328 73 239 q 25 508 25 416 q 47 674 25 593 q 113 819 68 755 q 225 921 157 883 q 386 958 294 958 q 522 935 458 958 q 630 860 586 911 q 692 722 675 808 q 694 694 694 708 q 663 606 694 644 q 580 556 631 569 q 469 546 529 546 q 417 547 441 546 q 380 548 399 548 q 338 537 351 548 q 326 511 326 526 q 342 467 326 490 q 383 426 358 443 q 437 410 408 410 q 525 466 481 410 q 591 507 555 507 q 659 475 627 507 q 712 393 691 443 q 732 290 732 343 q 721 220 732 254 q 592 63 682 115 q 390 12 503 12 m 391 633 q 449 642 421 633 q 477 665 477 650 q 453 708 475 694 q 403 723 431 723 q 352 707 375 723 q 328 659 330 692 q 347 639 328 646 q 391 633 366 633 m 389 1042 q 362 1045 375 1042 q 344 1055 349 1048 q 311 1090 336 1065 q 259 1142 287 1116 q 212 1183 231 1169 q 201 1202 201 1192 q 229 1247 201 1224 q 283 1271 256 1271 q 314 1256 301 1271 q 371 1166 357 1195 q 389 1143 382 1143 q 407 1168 395 1143 q 465 1256 421 1196 q 495 1271 477 1271 q 550 1247 522 1271 q 578 1202 578 1224 q 568 1183 578 1192 q 520 1143 549 1169 q 467 1091 492 1116 q 435 1055 443 1065 q 417 1045 429 1048 q 389 1042 404 1042 z "},"Ĝ":{"ha":766,"x_min":25,"x_max":731,"o":"m 398 1 q 263 28 330 1 q 143 117 197 56 q 57 273 90 177 q 25 505 25 368 q 47 677 25 593 q 113 827 68 761 q 227 932 158 893 q 388 972 295 972 q 519 948 455 972 q 630 872 583 925 q 694 732 676 819 q 694 721 694 727 q 672 665 694 692 q 617 621 650 638 q 552 604 584 604 q 504 620 525 604 q 477 672 484 636 q 456 720 472 703 q 421 737 440 737 q 346 688 368 735 q 323 566 323 641 q 340 432 323 484 q 385 355 358 380 q 440 331 412 331 q 491 351 470 331 q 513 395 513 370 q 493 410 513 410 q 453 404 476 410 q 412 397 429 397 q 377 428 388 397 q 366 496 366 458 q 377 573 366 536 q 406 610 388 610 q 481 597 445 608 q 524 588 502 592 q 574 583 547 583 q 650 591 612 583 l 659 591 q 699 564 686 591 q 711 500 711 536 q 694 425 711 460 q 731 283 731 359 q 683 138 731 202 q 559 38 635 75 q 398 1 484 1 m 484 1042 q 454 1057 467 1042 q 396 1145 410 1118 q 377 1170 384 1170 q 360 1147 371 1170 q 303 1057 347 1118 q 273 1042 290 1042 q 218 1066 245 1042 q 190 1111 190 1089 q 200 1130 190 1122 q 248 1171 219 1144 q 300 1222 276 1197 q 333 1258 325 1248 q 351 1268 338 1265 q 378 1272 363 1272 q 406 1268 393 1272 q 424 1258 418 1265 q 456 1223 432 1248 q 509 1171 481 1198 q 556 1130 537 1144 q 566 1111 566 1122 q 539 1066 566 1089 q 484 1042 511 1042 z "},"ĝ":{"ha":727,"x_min":30,"x_max":677,"o":"m 394 1 q 273 16 333 1 q 164 58 212 31 q 86 122 115 85 q 56 206 56 160 q 65 313 56 262 q 92 394 75 363 q 133 425 109 425 q 151 420 141 425 q 225 391 176 407 q 322 376 275 376 q 389 392 363 376 q 414 432 414 408 q 400 455 414 445 q 356 465 387 465 l 321 464 q 164 501 229 464 q 65 595 99 538 q 30 716 31 652 q 58 820 30 776 q 130 894 85 865 q 229 938 175 924 q 334 953 282 953 q 436 936 391 953 q 469 961 446 955 q 532 967 492 967 q 604 960 572 967 q 655 932 636 954 q 674 869 674 911 q 668 821 674 848 q 634 574 634 667 q 640 488 634 530 q 654 393 645 446 q 677 220 677 256 q 653 121 677 162 q 590 53 630 79 q 499 14 550 26 q 394 1 449 1 m 286 701 q 393 729 357 705 q 429 779 429 753 q 411 809 429 795 q 355 822 393 822 l 331 821 q 248 794 276 818 q 220 747 220 770 q 236 715 220 728 q 286 701 252 701 m 459 1042 q 429 1057 441 1042 q 371 1145 385 1117 q 352 1169 359 1169 q 335 1146 346 1169 q 278 1057 321 1118 q 248 1042 265 1042 q 193 1065 220 1042 q 165 1110 165 1088 q 175 1129 165 1121 q 222 1170 194 1143 q 275 1222 251 1196 q 308 1257 300 1247 q 326 1267 313 1264 q 353 1271 338 1271 q 380 1267 368 1271 q 399 1257 393 1264 q 431 1222 407 1247 q 484 1170 456 1197 q 531 1129 512 1143 q 541 1110 541 1121 q 514 1065 541 1088 q 459 1042 486 1042 z "},"Ğ":{"ha":766,"x_min":25,"x_max":731,"o":"m 398 1 q 263 28 330 1 q 143 117 197 56 q 57 273 90 177 q 25 505 25 368 q 47 677 25 593 q 113 827 68 761 q 227 932 158 893 q 388 972 295 972 q 519 948 455 972 q 630 872 583 925 q 694 732 676 819 q 694 721 694 727 q 672 665 694 692 q 617 621 650 638 q 552 604 584 604 q 504 620 525 604 q 477 672 484 636 q 456 720 472 703 q 421 737 440 737 q 346 688 368 735 q 323 566 323 641 q 340 432 323 484 q 385 355 358 380 q 440 331 412 331 q 491 351 470 331 q 513 395 513 370 q 493 410 513 410 q 453 404 476 410 q 412 397 429 397 q 377 428 388 397 q 366 496 366 458 q 377 573 366 536 q 406 610 388 610 q 481 597 445 608 q 524 588 502 592 q 574 583 547 583 q 650 591 612 583 l 659 591 q 699 564 686 591 q 711 500 711 536 q 694 425 711 460 q 731 283 731 359 q 683 138 731 202 q 559 38 635 75 q 398 1 484 1 m 376 1043 q 248 1076 306 1043 q 177 1176 190 1109 l 176 1182 q 198 1218 176 1204 q 242 1233 219 1233 q 268 1226 256 1233 q 283 1202 279 1219 q 319 1139 293 1160 q 377 1118 346 1118 q 436 1140 408 1118 q 474 1206 464 1162 q 489 1229 478 1222 q 515 1236 500 1236 q 559 1222 538 1236 q 581 1185 581 1207 l 580 1179 q 507 1077 567 1112 q 376 1043 447 1043 z "},"ğ":{"ha":727,"x_min":30,"x_max":677,"o":"m 394 1 q 273 16 333 1 q 164 58 212 31 q 86 122 115 85 q 56 206 56 160 q 65 313 56 262 q 92 394 75 363 q 133 425 109 425 q 151 420 141 425 q 225 391 176 407 q 322 376 275 376 q 389 392 363 376 q 414 432 414 408 q 400 455 414 445 q 356 465 387 465 l 321 464 q 164 501 229 464 q 65 595 99 538 q 30 716 31 652 q 58 820 30 776 q 130 894 85 865 q 229 938 175 924 q 334 953 282 953 q 436 936 391 953 q 469 961 446 955 q 532 967 492 967 q 604 960 572 967 q 655 932 636 954 q 674 869 674 911 q 668 821 674 848 q 634 574 634 667 q 640 488 634 530 q 654 393 645 446 q 677 220 677 256 q 653 121 677 162 q 590 53 630 79 q 499 14 550 26 q 394 1 449 1 m 286 701 q 393 729 357 705 q 429 779 429 753 q 411 809 429 795 q 355 822 393 822 l 331 821 q 248 794 276 818 q 220 747 220 770 q 236 715 220 728 q 286 701 252 701 m 351 1042 q 223 1076 281 1042 q 152 1175 165 1109 l 151 1181 q 173 1218 151 1203 q 217 1232 194 1232 q 242 1225 231 1232 q 258 1202 254 1218 q 294 1139 268 1160 q 352 1118 321 1118 q 411 1140 383 1118 q 449 1205 439 1162 q 464 1229 453 1221 q 490 1236 475 1236 q 534 1221 513 1236 q 555 1185 555 1206 l 555 1179 q 482 1077 542 1111 q 351 1042 422 1042 z "},"Ġ":{"ha":766,"x_min":25,"x_max":731,"o":"m 398 1 q 263 28 330 1 q 143 117 197 56 q 57 273 90 177 q 25 505 25 368 q 47 677 25 593 q 113 827 68 761 q 227 932 158 893 q 388 972 295 972 q 519 948 455 972 q 630 872 583 925 q 694 732 676 819 q 694 721 694 727 q 672 665 694 692 q 617 621 650 638 q 552 604 584 604 q 504 620 525 604 q 477 672 484 636 q 456 720 472 703 q 421 737 440 737 q 346 688 368 735 q 323 566 323 641 q 340 432 323 484 q 385 355 358 380 q 440 331 412 331 q 491 351 470 331 q 513 395 513 370 q 493 410 513 410 q 453 404 476 410 q 412 397 429 397 q 377 428 388 397 q 366 496 366 458 q 377 573 366 536 q 406 610 388 610 q 481 597 445 608 q 524 588 502 592 q 574 583 547 583 q 650 591 612 583 l 659 591 q 699 564 686 591 q 711 500 711 536 q 694 425 711 460 q 731 283 731 359 q 683 138 731 202 q 559 38 635 75 q 398 1 484 1 m 378 1042 q 304 1070 335 1042 q 273 1136 273 1097 q 304 1202 273 1175 q 378 1230 335 1230 q 452 1202 422 1230 q 483 1136 483 1175 q 452 1070 483 1097 q 378 1042 422 1042 z "},"ġ":{"ha":727,"x_min":30,"x_max":677,"o":"m 394 1 q 273 16 333 1 q 164 58 212 31 q 86 122 115 85 q 56 206 56 160 q 65 313 56 262 q 92 394 75 363 q 133 425 109 425 q 151 420 141 425 q 225 391 176 407 q 322 376 275 376 q 389 392 363 376 q 414 432 414 408 q 400 455 414 445 q 356 465 387 465 l 321 464 q 164 501 229 464 q 65 595 99 538 q 30 716 31 652 q 58 820 30 776 q 130 894 85 865 q 229 938 175 924 q 334 953 282 953 q 436 936 391 953 q 469 961 446 955 q 532 967 492 967 q 604 960 572 967 q 655 932 636 954 q 674 869 674 911 q 668 821 674 848 q 634 574 634 667 q 640 488 634 530 q 654 393 645 446 q 677 220 677 256 q 653 121 677 162 q 590 53 630 79 q 499 14 550 26 q 394 1 449 1 m 286 701 q 393 729 357 705 q 429 779 429 753 q 411 809 429 795 q 355 822 393 822 l 331 821 q 248 794 276 818 q 220 747 220 770 q 236 715 220 728 q 286 701 252 701 m 353 1042 q 279 1069 310 1042 q 248 1135 248 1097 q 279 1201 248 1174 q 353 1229 310 1229 q 427 1201 397 1229 q 458 1135 458 1174 q 427 1069 458 1097 q 353 1042 397 1042 z "},"Ģ":{"ha":766,"x_min":25,"x_max":731,"o":"m 398 1 q 263 28 330 1 q 143 117 197 56 q 57 273 90 177 q 25 505 25 368 q 47 677 25 593 q 113 827 68 761 q 227 932 158 893 q 388 972 295 972 q 519 948 455 972 q 630 872 583 925 q 694 732 676 819 q 694 721 694 727 q 672 665 694 692 q 617 621 650 638 q 552 604 584 604 q 504 620 525 604 q 477 672 484 636 q 456 720 472 703 q 421 737 440 737 q 346 688 368 735 q 323 566 323 641 q 340 432 323 484 q 385 355 358 380 q 440 331 412 331 q 491 351 470 331 q 513 395 513 370 q 493 410 513 410 q 453 404 476 410 q 412 397 429 397 q 377 428 388 397 q 366 496 366 458 q 377 573 366 536 q 406 610 388 610 q 481 597 445 608 q 524 588 502 592 q 574 583 547 583 q 650 591 612 583 l 659 591 q 699 564 686 591 q 711 500 711 536 q 694 425 711 460 q 731 283 731 359 q 683 138 731 202 q 559 38 635 75 q 398 1 484 1 m 378 -340 q 345 -331 361 -340 q 329 -310 329 -321 q 345 -290 329 -300 q 374 -257 360 -279 q 389 -220 389 -234 q 380 -211 389 -212 l 365 -212 q 314 -191 335 -212 q 293 -143 293 -169 q 317 -95 293 -115 q 377 -76 342 -76 q 429 -89 410 -76 q 456 -122 448 -101 q 465 -168 465 -143 q 447 -257 465 -212 q 409 -328 430 -302 q 378 -340 396 -340 z "},"ģ":{"ha":727,"x_min":30,"x_max":677,"o":"m 394 1 q 273 16 333 1 q 164 58 212 31 q 86 122 115 85 q 56 206 56 160 q 65 313 56 262 q 92 394 75 363 q 133 425 109 425 q 151 420 141 425 q 225 391 176 407 q 322 376 275 376 q 389 392 363 376 q 414 432 414 408 q 400 455 414 445 q 356 465 387 465 l 321 464 q 164 501 229 464 q 65 595 99 538 q 30 716 31 652 q 58 820 30 776 q 130 894 85 865 q 229 938 175 924 q 334 953 282 953 q 436 936 391 953 q 469 961 446 955 q 532 967 492 967 q 604 960 572 967 q 655 932 636 954 q 674 869 674 911 q 668 821 674 848 q 634 574 634 667 q 640 488 634 530 q 654 393 645 446 q 677 220 677 256 q 653 121 677 162 q 590 53 630 79 q 499 14 550 26 q 394 1 449 1 m 286 701 q 393 729 357 705 q 429 779 429 753 q 411 809 429 795 q 355 822 393 822 l 331 821 q 248 794 276 818 q 220 747 220 770 q 236 715 220 728 q 286 701 252 701 m 355 1043 q 303 1056 322 1043 q 276 1089 284 1068 q 268 1136 268 1110 q 285 1224 268 1179 q 323 1295 302 1269 q 354 1308 336 1308 q 387 1298 372 1308 q 403 1277 403 1289 q 388 1257 403 1267 q 358 1224 372 1246 q 343 1187 343 1201 q 352 1178 343 1179 l 367 1179 q 418 1158 397 1179 q 439 1111 439 1136 q 414 1063 439 1082 q 355 1043 390 1043 z "},"Ĥ":{"ha":860,"x_min":25,"x_max":837,"o":"m 659 1 q 566 14 612 1 q 491 53 521 27 q 461 118 461 79 q 479 259 464 193 q 496 400 494 324 q 472 435 496 423 q 421 446 448 446 q 374 437 396 446 q 352 410 352 427 l 352 407 q 382 228 363 318 q 399 132 399 145 q 369 60 399 90 q 290 16 338 31 q 193 1 243 1 q 111 13 149 1 q 49 48 73 24 q 25 110 25 73 q 31 146 25 126 q 95 547 95 349 q 62 842 95 689 q 60 867 60 856 q 81 926 60 903 q 137 961 102 949 q 209 972 171 972 q 291 959 251 972 q 356 920 330 946 q 381 857 381 895 q 376 826 381 842 q 354 742 363 784 q 344 656 344 699 q 361 629 344 637 q 402 621 379 621 q 461 633 431 621 q 491 667 491 646 q 481 735 490 703 q 454 817 474 760 q 448 852 448 836 q 475 917 448 890 q 543 957 502 943 q 627 971 585 971 q 696 960 664 971 q 748 926 728 949 q 768 867 768 903 q 767 848 768 859 q 746 606 746 722 q 829 154 746 380 q 837 113 837 133 q 811 51 837 76 q 745 13 785 26 q 659 1 704 1 m 537 1042 q 507 1057 519 1042 q 449 1145 463 1118 q 430 1170 437 1170 q 413 1147 424 1170 q 356 1057 399 1118 q 326 1042 343 1042 q 271 1066 298 1042 q 243 1111 243 1089 q 253 1130 243 1122 q 300 1171 272 1144 q 353 1222 329 1197 q 386 1258 378 1248 q 404 1268 391 1265 q 431 1272 416 1272 q 458 1268 446 1272 q 477 1258 471 1265 q 509 1223 485 1248 q 562 1171 534 1198 q 609 1130 590 1144 q 619 1111 619 1122 q 592 1066 619 1089 q 537 1042 564 1042 z "},"ĥ":{"ha":846,"x_min":28,"x_max":846,"o":"m 680 0 q 567 14 616 0 q 490 57 517 28 q 462 127 462 85 q 467 165 462 145 q 488 282 484 224 q 491 377 491 331 l 491 417 q 477 516 490 476 q 444 575 464 555 q 405 595 424 595 q 373 576 386 595 q 359 518 359 557 q 361 490 359 505 q 429 163 383 336 q 432 139 432 151 q 397 64 432 96 q 310 17 362 33 q 203 1 257 1 q 123 12 160 1 q 63 45 86 22 q 41 104 41 68 q 45 138 41 120 q 100 505 100 327 q 56 835 100 652 q 52 868 52 853 q 76 930 52 907 q 138 962 100 952 q 217 972 176 972 q 303 960 264 972 q 366 923 342 947 q 390 861 390 899 q 385 828 390 846 q 371 762 371 779 q 376 753 371 753 q 405 766 385 753 q 459 794 426 779 q 568 817 515 817 q 656 799 616 817 q 720 744 696 781 q 745 655 745 708 q 743 618 745 637 q 740 572 740 595 q 755 427 740 502 q 792 280 770 353 q 839 140 814 207 q 846 102 846 120 q 823 45 846 68 q 761 11 799 22 q 680 0 723 0 m 322 1042 q 292 1057 304 1042 q 234 1145 248 1117 q 215 1169 222 1169 q 198 1146 209 1169 q 141 1057 184 1118 q 111 1042 128 1042 q 56 1065 83 1042 q 28 1110 28 1088 q 38 1129 28 1121 q 85 1170 57 1143 q 138 1222 114 1196 q 171 1257 163 1247 q 189 1267 176 1264 q 216 1271 201 1271 q 243 1267 231 1271 q 262 1257 256 1264 q 294 1222 270 1247 q 347 1170 319 1197 q 394 1129 375 1143 q 404 1110 404 1121 q 377 1065 404 1088 q 322 1042 349 1042 z "},"Ħ":{"ha":860,"x_min":-4,"x_max":837,"o":"m 659 1 q 566 14 612 1 q 491 53 521 27 q 462 116 462 79 q 479 259 462 184 q 496 401 496 330 q 472 435 496 423 q 421 446 448 446 q 375 437 396 446 q 354 410 354 428 l 354 407 q 382 228 363 318 q 399 132 399 143 q 369 60 399 90 q 290 16 338 31 q 193 1 243 1 q 111 13 149 1 q 49 48 73 24 q 25 110 25 73 q 31 146 25 126 q 95 547 95 349 q 89 675 95 610 l 57 674 q 12 701 28 674 q -4 765 -4 728 q 8 813 -4 791 q 48 834 20 834 l 64 834 q 60 867 60 855 q 81 926 60 903 q 137 961 102 949 q 209 972 171 972 q 291 959 251 972 q 356 920 330 946 q 381 857 381 895 q 376 823 381 841 q 452 823 413 823 q 448 852 448 838 q 475 917 448 890 q 543 957 502 943 q 627 971 585 971 q 696 960 664 971 q 748 926 728 949 q 768 867 768 903 q 765 834 768 856 l 784 834 q 822 811 810 834 q 834 760 834 788 q 820 702 834 729 q 778 674 806 674 l 748 674 q 746 606 746 640 q 829 154 746 380 q 837 113 837 133 q 811 51 837 76 q 745 13 785 26 q 659 1 704 1 m 402 621 q 461 633 431 621 q 490 666 490 646 l 490 686 q 414 686 453 686 l 345 686 q 344 656 344 671 q 361 629 344 637 q 402 621 379 621 z "}}}
